<svg width="421" height="72" viewBox="0 0 421 72" fill="none" xmlns="http://www.w3.org/2000/svg">
<path d="M2.47286 13.1647L14.2496 4.03284V36.7825L31.2052 19.9291H48.1607L28.7538 39.5403L51.4293 71H36.6187L19.7653 47.9159L14.2496 53.4316V71H0.971191L2.47286 13.1647Z" fill="#4082E6"/>
<path d="M56.5024 44.1368C56.5024 36.0335 58.5112 29.939 62.5288 25.8534C66.5464 21.7677 71.8237 19.7249 78.3608 19.7249H78.9736V32.6969H78.4629C75.5349 32.6969 73.3558 33.6161 71.9259 35.4547C70.4959 37.2933 69.7809 40.1873 69.7809 44.1368V71.0001H56.5024V44.1368Z" fill="#4082E6"/>
<path d="M84.0469 44.7495C84.0469 40.051 85.1704 35.693 87.4176 31.6754C89.7328 27.5897 92.8651 24.3552 96.8146 21.9719C100.832 19.5205 105.224 18.2948 109.991 18.2948C114.349 18.2948 118.537 19.3162 122.554 21.3591C126.572 23.3338 129.875 26.2278 132.462 30.0411C135.118 33.8544 136.514 38.3486 136.65 43.5238C136.718 45.7029 136.582 47.8138 136.241 49.8566H98.3467C98.9596 52.3761 100.287 54.3849 102.33 55.883C104.441 57.313 106.995 58.028 109.991 58.028C112.102 58.028 113.804 57.7556 115.098 57.2108C116.46 56.6661 117.686 55.9511 118.775 55.0659L134.607 55.168C132.496 59.8665 129.262 63.6798 124.904 66.6079C120.546 69.5359 115.711 71 110.399 71C105.565 71 101.139 69.8424 97.121 67.5272C93.1035 65.1438 89.903 61.9434 87.5197 57.9258C85.2045 53.9082 84.0469 49.5162 84.0469 44.7495ZM122.452 39.2339C121.431 36.8506 119.797 34.9439 117.549 33.5139C115.37 32.0159 112.987 31.2668 110.399 31.2668C107.539 31.2668 105.088 31.9818 103.045 33.4118C101.002 34.8418 99.4362 36.7825 98.3467 39.2339H122.452Z" fill="#4082E6"/>
<path d="M168.093 71C163.326 71 158.934 69.8424 154.917 67.5272C150.899 65.1438 147.699 61.9434 145.315 57.9258C142.932 53.8402 141.74 49.414 141.74 44.6474C141.74 39.8808 142.932 35.4887 145.315 31.4711C147.699 27.3854 150.899 24.185 154.917 21.8698C158.934 19.4865 163.326 18.2948 168.093 18.2948C172.859 18.2948 177.252 19.4865 181.269 21.8698C185.287 24.185 188.453 27.3854 190.768 31.4711C193.152 35.4887 194.343 39.8808 194.343 44.6474V70.1828H181.065V64.7693C180.316 66.4717 178.682 67.9357 176.162 69.1614C173.643 70.3871 170.953 71 168.093 71ZM168.195 58.028C171.94 58.028 175.038 56.7682 177.49 54.2487C179.941 51.6611 181.167 48.4607 181.167 44.6474C181.167 40.8341 179.941 37.6677 177.49 35.1482C175.038 32.5606 171.94 31.2668 168.195 31.2668C164.45 31.2668 161.317 32.5606 158.798 35.1482C156.278 37.6677 155.019 40.8341 155.019 44.6474C155.019 48.4607 156.278 51.6611 158.798 54.2487C161.317 56.7682 164.45 58.028 168.195 58.028Z" fill="#4082E6"/>
<path d="M199.417 19.9291H213.308L224.952 53.5337L236.698 19.9291H250.59L231.591 71H218.313L199.417 19.9291Z" fill="#4082E6"/>
<path d="M289.823 3.7663C294.553 4.35876 298.763 6.08709 302.453 8.95128C306.219 11.7564 308.997 15.3298 310.786 19.6715C312.652 23.9542 313.288 28.4603 312.696 33.19C312.103 37.9197 310.371 42.1634 307.498 45.9211C304.702 49.6198 301.128 52.3976 296.778 54.2546C292.504 56.0525 288.002 56.6552 283.272 56.0628C278.542 55.4703 274.295 53.7715 270.528 50.9665C266.838 48.1023 264.06 44.5289 262.195 40.2462C260.405 35.9044 259.807 31.3687 260.399 26.6391C260.992 21.9094 262.686 17.6953 265.483 13.9966C268.356 10.2389 271.929 7.46102 276.203 5.66312C280.553 3.80611 285.093 3.17384 289.823 3.7663ZM288.312 16.6504C284.596 16.1849 281.327 17.0793 278.505 19.3337C275.692 21.5205 274.049 24.5058 273.575 28.2895C273.101 32.0732 273.953 35.4054 276.131 38.2861C278.318 41.0992 281.27 42.7386 284.986 43.2041C288.702 43.6696 291.933 42.8047 294.678 40.6094C297.432 38.3466 299.046 35.3233 299.52 31.5396C299.994 27.7559 299.172 24.4617 297.052 21.657C294.942 18.7848 292.028 17.1159 288.312 16.6504Z" fill="#4082E6"/>
<path d="M260.186 52.6176C268.973 65.2078 283.74 70.7341 301.883 61.4156" stroke="url(#paint0_linear_49_60)" stroke-width="10.1465" stroke-linecap="round"/>
<circle cx="286.287" cy="29.0299" r="7.10258" transform="rotate(7.13997 286.287 29.0299)" fill="#FEF747"/>
<path d="M322.546 13.1647L334.323 4.03284V36.7825L351.278 19.9291H368.234L348.827 39.5403L371.502 71H356.692L339.839 47.9159L334.323 53.4316V71H321.044L322.546 13.1647Z" fill="#4082E6"/>
<path d="M398.496 71C394.554 71 390.918 70.3543 387.587 69.0629C384.257 67.7035 381.572 65.7324 379.533 63.1496C377.562 60.4988 376.576 57.3382 376.576 53.6679H389.218C389.218 55.2992 390.102 56.6246 391.869 57.6441C393.704 58.6636 396.015 59.1734 398.802 59.1734C401.453 59.1734 403.492 58.7316 404.919 57.848C406.414 56.8965 407.162 55.707 407.162 54.2797C407.162 52.7843 406.346 51.7308 404.715 51.1191C403.084 50.5074 400.467 49.8957 396.865 49.2839C392.855 48.6043 389.524 47.8566 386.873 47.041C384.223 46.1574 381.912 44.6961 379.941 42.657C378.037 40.55 377.086 37.5933 377.086 33.7871C377.086 30.8644 378.003 28.2476 379.839 25.9367C381.742 23.5578 384.291 21.7226 387.485 20.4312C390.68 19.0718 394.248 18.3922 398.19 18.3922C404.307 18.3922 409.303 19.8875 413.177 22.8781C417.052 25.8007 418.989 29.8789 418.989 35.1125H406.346C406.346 33.6851 405.497 32.4957 403.798 31.5441C402.166 30.5925 400.229 30.1168 397.986 30.1168C395.811 30.1168 393.976 30.5586 392.481 31.4421C391.054 32.3257 390.34 33.4472 390.34 34.8066C390.34 36.03 391.121 36.9476 392.685 37.5593C394.248 38.1711 396.729 38.7488 400.127 39.2925C404.137 39.9722 407.502 40.7539 410.221 41.6375C412.939 42.4531 415.318 43.9144 417.357 46.0214C419.396 48.0605 420.416 50.9152 420.416 54.5855C420.484 60.023 418.479 64.1351 414.401 66.9218C410.391 69.6406 405.089 71 398.496 71Z" fill="#4082E6"/>
<defs>
<linearGradient id="paint0_linear_49_60" x1="259.279" y1="56.9156" x2="300.976" y2="65.7136" gradientUnits="userSpaceOnUse">
<stop stop-color="#4082E6"/>
<stop offset="1" stop-color="#FEF747"/>
</linearGradient>
</defs>
</svg>
