<svg width="210" height="49" viewBox="0 0 210 49" fill="none" xmlns="http://www.w3.org/2000/svg">
<rect x="179.821" y="34.4878" width="19.8585" height="1.52758" rx="0.763789" fill="#16B7C4"/>
<rect x="185.168" y="17.6846" width="19.8585" height="1.52758" rx="0.763789" fill="#16B7C4"/>
<path d="M23.928 15.4012V36.8813H17.3454V33.9557C16.6781 34.9053 15.7671 35.6752 14.6123 36.2654C13.4831 36.83 12.2256 37.1123 10.8397 37.1123C9.1973 37.1123 7.74732 36.753 6.48982 36.0345C5.23232 35.2902 4.25711 34.2252 3.5642 32.8394C2.87129 31.4536 2.52484 29.8239 2.52484 27.9505V15.4012H9.06898V27.0651C9.06898 28.5023 9.4411 29.6186 10.1853 30.4142C10.9296 31.2098 11.9304 31.6075 13.1879 31.6075C14.4711 31.6075 15.4848 31.2098 16.229 30.4142C16.9733 29.6186 17.3454 28.5023 17.3454 27.0651V15.4012H23.928ZM55.2948 15.1702C57.9638 15.1702 60.081 15.9786 61.6465 17.5954C63.2376 19.2122 64.0331 21.4577 64.0331 24.332V36.8813H57.489V25.2174C57.489 23.8316 57.1169 22.7665 56.3727 22.0223C55.6541 21.2524 54.6532 20.8674 53.37 20.8674C52.0869 20.8674 51.0732 21.2524 50.3289 22.0223C49.6104 22.7665 49.2511 23.8316 49.2511 25.2174V36.8813H42.7069V25.2174C42.7069 23.8316 42.3348 22.7665 41.5906 22.0223C40.872 21.2524 39.8712 20.8674 38.588 20.8674C37.3048 20.8674 36.2911 21.2524 35.5469 22.0223C34.8283 22.7665 34.469 23.8316 34.469 25.2174V36.8813H27.8864V15.4012H34.469V18.0958C35.1363 17.1976 36.0088 16.4919 37.0867 15.9786C38.1645 15.4397 39.3835 15.1702 40.7437 15.1702C42.3605 15.1702 43.7976 15.5167 45.0551 16.2096C46.3383 16.9025 47.3392 17.8905 48.0577 19.1737C48.802 17.9932 49.8157 17.0308 51.0988 16.2866C52.382 15.5423 53.7807 15.1702 55.2948 15.1702ZM80.9938 36.8813L74.4496 27.8735V36.8813H67.867V8.39509H74.4496V24.1395L80.9553 15.4012H89.0777L80.1469 26.1798L89.1547 36.8813H80.9938ZM118.302 15.1702C120.971 15.1702 123.088 15.9786 124.653 17.5954C126.244 19.2122 127.04 21.4577 127.04 24.332V36.8813H120.496V25.2174C120.496 23.8316 120.124 22.7665 119.38 22.0223C118.661 21.2524 117.66 20.8674 116.377 20.8674C115.094 20.8674 114.08 21.2524 113.336 22.0223C112.617 22.7665 112.258 23.8316 112.258 25.2174V36.8813H105.714V25.2174C105.714 23.8316 105.342 22.7665 104.597 22.0223C103.879 21.2524 102.878 20.8674 101.595 20.8674C100.312 20.8674 99.298 21.2524 98.5538 22.0223C97.8352 22.7665 97.4759 23.8316 97.4759 25.2174V36.8813H90.8933V15.4012H97.4759V18.0958C98.1432 17.1976 99.0157 16.4919 100.094 15.9786C101.171 15.4397 102.39 15.1702 103.751 15.1702C105.367 15.1702 106.805 15.5167 108.062 16.2096C109.345 16.9025 110.346 17.8905 111.065 19.1737C111.809 17.9932 112.823 17.0308 114.106 16.2866C115.389 15.5423 116.788 15.1702 118.302 15.1702Z" fill="#1C606E"/>
<path d="M133.953 37.1893C132.799 37.1893 131.849 36.8557 131.105 36.1884C130.386 35.4955 130.027 34.6486 130.027 33.6478C130.027 32.6212 130.386 31.7615 131.105 31.0686C131.849 30.3757 132.799 30.0292 133.953 30.0292C135.083 30.0292 136.007 30.3757 136.725 31.0686C137.469 31.7615 137.841 32.6212 137.841 33.6478C137.841 34.6486 137.469 35.4955 136.725 36.1884C136.007 36.8557 135.083 37.1893 133.953 37.1893ZM140.314 23.3311C140.776 20.6621 141.764 18.2883 143.278 16.2096C144.818 14.1052 146.73 12.4756 149.014 11.3207C151.298 10.1402 153.774 9.54993 156.443 9.54993C159.677 9.54993 162.269 10.3327 164.219 11.8981C166.195 13.4636 167.273 15.6321 167.453 18.4038H160.216C159.882 17.5056 159.292 16.8255 158.445 16.3635C157.624 15.8759 156.61 15.6321 155.404 15.6321C153.274 15.6321 151.439 16.3379 149.899 17.7494C148.385 19.1352 147.423 20.9958 147.012 23.3311C146.884 24.101 146.82 24.7683 146.82 25.3329C146.82 27.2319 147.371 28.6948 148.475 29.7213C149.578 30.7478 151.144 31.2611 153.171 31.2611C154.814 31.2611 156.264 30.8505 157.521 30.0292C158.779 29.1824 159.792 27.989 160.562 26.4492H152.247L153.056 21.6373H167.376L166.298 27.758C165.528 29.4005 164.425 30.9275 162.987 32.3389C161.576 33.7504 159.895 34.8924 157.945 35.765C155.994 36.6375 153.89 37.0738 151.631 37.0738C149.296 37.0738 147.243 36.6247 145.472 35.7265C143.727 34.8026 142.38 33.5195 141.43 31.877C140.506 30.2346 140.044 28.3226 140.044 26.1413C140.044 25.397 140.134 24.4603 140.314 23.3311ZM180.415 37.1508C178.131 37.1508 176.116 36.676 174.371 35.7265C172.652 34.777 171.317 33.4425 170.368 31.723C169.418 30.0036 168.943 28.0275 168.943 25.7948C168.943 22.6382 169.623 19.8281 170.984 17.3644C172.344 14.8751 174.23 12.9375 176.642 11.5517C179.08 10.1659 181.839 9.47295 184.919 9.47295C187.228 9.47295 189.256 9.94772 191.001 10.8973C192.746 11.8211 194.093 13.1428 195.043 14.8622C195.992 16.556 196.467 18.5064 196.467 20.7135C196.467 23.8701 195.787 26.7058 194.427 29.2209C193.067 31.7102 191.168 33.6606 188.73 35.0721C186.292 36.4579 183.52 37.1508 180.415 37.1508ZM181.416 31.0686C183.109 31.0686 184.598 30.6323 185.881 29.7598C187.164 28.8872 188.152 27.7196 188.845 26.2567C189.564 24.7683 189.923 23.1643 189.923 21.4449C189.923 19.5971 189.41 18.1471 188.383 17.0949C187.357 16.0428 185.92 15.5167 184.072 15.5167C182.378 15.5167 180.877 15.9529 179.568 16.8255C178.285 17.698 177.284 18.8657 176.565 20.3285C175.872 21.7657 175.526 23.3568 175.526 25.1019C175.526 26.9497 176.039 28.4125 177.066 29.4903C178.092 30.5425 179.542 31.0686 181.416 31.0686Z" fill="#FDB022"/>
<rect x="189.75" y="23.7949" width="19.8585" height="1.52758" rx="0.763789" fill="#16B7C4"/>
<rect x="185.168" y="29.9053" width="19.8585" height="1.52758" rx="0.763789" fill="#16B7C4"/>
</svg>
