<svg width="180" height="63" viewBox="0 0 180 63" fill="none" xmlns="http://www.w3.org/2000/svg">
<path d="M6.23637 17.345C-2.64361 73.3258 57.2001 70.3753 42.0656 13.7734C31.7956 -12.2371 3.68834 36.669 54.5641 27.954" stroke="#EF5B38" stroke-width="7.61219" stroke-linecap="round"/>
<path d="M75.2882 40.3749C75.2882 42.1143 75.6296 43.4413 76.3125 44.356C76.9953 45.2579 77.9873 45.7088 79.2886 45.7088C80.68 45.7088 81.7236 45.2643 82.4193 44.3753C83.128 43.4735 83.4823 42.14 83.4823 40.3749V27.4654C83.4823 26.3188 83.3727 25.3912 83.1537 24.6826C82.9476 23.9739 82.5289 23.3298 81.8976 22.75H92.546C91.992 23.2653 91.5926 23.8193 91.3478 24.412C91.1159 25.0046 90.9999 26.0225 90.9999 27.4654V44.8392C90.9999 46.2306 91.1159 47.242 91.3478 47.8733C91.5926 48.4917 91.992 49.065 92.546 49.5933H83.6369V46.7524C82.5546 47.9764 81.3886 48.8782 80.1389 49.458C78.8892 50.0249 77.472 50.3083 75.8873 50.3083C74.5345 50.3083 73.3363 50.0893 72.2927 49.6512C71.2491 49.2132 70.3473 48.5626 69.5871 47.6994C68.9301 46.9263 68.4598 46.0309 68.1764 45.0131C67.9058 43.9953 67.7705 42.5265 67.7705 40.6069V27.4654C67.7705 26.0225 67.6546 25.0046 67.4227 24.412C67.1908 23.8193 66.7914 23.2653 66.2245 22.75H76.8342C76.2674 23.2782 75.868 23.8516 75.6361 24.47C75.4042 25.0755 75.2882 26.074 75.2882 27.4654V40.3749ZM103.582 57.826H93.8037C94.2933 57.375 94.6411 56.879 94.8473 56.3379C95.0534 55.8097 95.1565 55.1333 95.1565 54.3087V34.3647C95.1565 33.5015 95.0534 32.7993 94.8473 32.2582C94.6411 31.7042 94.3061 31.2146 93.8423 30.7894H95.6203C96.9344 30.7894 98.1004 30.7572 99.1182 30.6928C100.136 30.6155 101.096 30.506 101.998 30.3643L102.152 32.4514C102.938 31.7042 103.769 31.1502 104.645 30.7894C105.534 30.4287 106.488 30.2483 107.506 30.2483C109.953 30.2483 111.944 31.176 113.477 33.0312C115.01 34.8865 115.777 37.2957 115.777 40.259C115.777 43.2867 114.92 45.6959 113.207 47.4868C111.506 49.2647 109.193 50.1537 106.269 50.1537C105.844 50.1537 105.509 50.1473 105.264 50.1344C105.032 50.1215 104.813 50.1022 104.607 50.0764L103.235 46.076C103.595 46.1147 103.905 46.1469 104.162 46.1726C104.433 46.1855 104.652 46.192 104.819 46.192C106.108 46.192 107.035 45.7539 107.602 44.8778C108.169 43.9888 108.452 42.5394 108.452 40.5296C108.452 38.6356 108.143 37.1411 107.525 36.046C106.906 34.9509 106.082 34.4033 105.051 34.4033C104.02 34.4033 103.293 34.777 102.867 35.5242C102.442 36.2715 102.23 37.7145 102.23 39.8532V54.3087C102.23 55.1333 102.333 55.8097 102.539 56.3379C102.758 56.879 103.106 57.375 103.582 57.826ZM127.161 40.7615C125.692 41.3283 124.707 41.8437 124.204 42.3075C123.715 42.7713 123.47 43.3382 123.47 44.0082C123.47 44.7297 123.715 45.303 124.204 45.7281C124.694 46.1404 125.364 46.3466 126.214 46.3466H126.523L124.861 49.8638C124.282 49.9154 123.805 49.9476 123.431 49.9604C123.071 49.9733 122.768 49.9798 122.523 49.9798C120.603 49.9798 119.025 49.4258 117.788 48.3178C116.564 47.2098 115.952 45.799 115.952 44.0855C115.952 42.6425 116.41 41.4507 117.324 40.5102C118.239 39.5697 119.611 38.8804 121.441 38.4424C121.956 38.3135 122.652 38.1654 123.528 37.9979C125.976 37.5083 127.2 36.7675 127.2 35.7755C127.2 35.1828 126.987 34.7319 126.562 34.4227C126.15 34.1135 125.531 33.9588 124.707 33.9588C123.947 33.9588 123.148 34.049 122.31 34.2294C121.486 34.4098 120.61 34.6868 119.682 35.0604L121.537 30.8281C122.388 30.5833 123.167 30.4029 123.876 30.287C124.597 30.171 125.293 30.1131 125.963 30.1131C127.561 30.1131 128.907 30.287 130.002 30.6348C131.11 30.9827 132.012 31.5109 132.708 32.2195C133.313 32.8508 133.745 33.5981 134.002 34.4613C134.273 35.3245 134.408 36.7675 134.408 38.7902V39.1381V43.5443C134.408 44.5235 134.608 45.2192 135.007 45.6315C135.407 46.0438 136.193 46.3337 137.365 46.5012L135.858 49.8252C135.342 49.8638 134.904 49.8896 134.544 49.9025C134.183 49.9282 133.887 49.9411 133.655 49.9411C131.735 49.9411 130.17 49.4064 128.958 48.3371C127.76 47.2549 127.161 45.8377 127.161 44.0855V40.7615ZM137.019 49.5933C137.508 49.1552 137.856 48.6656 138.062 48.1245C138.269 47.5834 138.372 46.9006 138.372 46.076V25.9967C138.372 25.1721 138.269 24.4957 138.062 23.9675C137.856 23.4264 137.508 22.9304 137.019 22.4794H139.009C140.169 22.4794 141.264 22.4408 142.295 22.3635C143.338 22.2862 144.35 22.1702 145.329 22.0156V46.076C145.329 46.9006 145.432 47.5834 145.638 48.1245C145.857 48.6656 146.205 49.1552 146.682 49.5933H137.019ZM158.317 40.7615C156.848 41.3283 155.863 41.8437 155.36 42.3075C154.871 42.7713 154.626 43.3382 154.626 44.0082C154.626 44.7297 154.871 45.303 155.36 45.7281C155.85 46.1404 156.52 46.3466 157.37 46.3466H157.679L156.017 49.8638C155.438 49.9154 154.961 49.9476 154.587 49.9604C154.227 49.9733 153.924 49.9798 153.679 49.9798C151.759 49.9798 150.181 49.4258 148.944 48.3178C147.72 47.2098 147.108 45.799 147.108 44.0855C147.108 42.6425 147.566 41.4507 148.48 40.5102C149.395 39.5697 150.767 38.8804 152.597 38.4424C153.112 38.3135 153.808 38.1654 154.684 37.9979C157.132 37.5083 158.356 36.7675 158.356 35.7755C158.356 35.1828 158.143 34.7319 157.718 34.4227C157.306 34.1135 156.687 33.9588 155.863 33.9588C155.103 33.9588 154.304 34.049 153.466 34.2294C152.642 34.4098 151.766 34.6868 150.838 35.0604L152.693 30.8281C153.544 30.5833 154.323 30.4029 155.032 30.287C155.753 30.171 156.449 30.1131 157.119 30.1131C158.717 30.1131 160.063 30.287 161.158 30.6348C162.266 30.9827 163.168 31.5109 163.864 32.2195C164.469 32.8508 164.901 33.5981 165.158 34.4613C165.429 35.3245 165.564 36.7675 165.564 38.7902V39.1381V43.5443C165.564 44.5235 165.764 45.2192 166.163 45.6315C166.563 46.0438 167.349 46.3337 168.521 46.5012L167.014 49.8252C166.498 49.8638 166.06 49.8896 165.7 49.9025C165.339 49.9282 165.042 49.9411 164.811 49.9411C162.891 49.9411 161.326 49.4064 160.114 48.3371C158.916 47.2549 158.317 45.8377 158.317 44.0855V40.7615Z" fill="#EF5B38"/>
<path d="M108.297 56.8L107.949 57.9095C107.701 58.0174 107.452 58.0984 107.201 58.1524C106.951 58.2063 106.689 58.2333 106.416 58.2333C105.625 58.2333 104.984 58.0095 104.492 57.5619C104 57.1111 103.754 56.5317 103.754 55.8237C103.754 55.0777 104.014 54.4697 104.535 53.9999C105.059 53.53 105.741 53.2951 106.582 53.2951C106.709 53.2951 106.86 53.3046 107.035 53.3237C107.213 53.3396 107.425 53.3665 107.673 53.4046V54.5666C107.473 54.4586 107.293 54.3793 107.135 54.3285C106.979 54.2777 106.841 54.2523 106.72 54.2523C106.39 54.2523 106.13 54.3713 105.939 54.6094C105.749 54.8475 105.654 55.1745 105.654 55.5904C105.654 56.092 105.771 56.4872 106.006 56.7761C106.241 57.065 106.563 57.2095 106.973 57.2095C107.163 57.2095 107.366 57.1761 107.582 57.1095C107.801 57.0396 108.04 56.9365 108.297 56.8ZM110.959 57.2476C111.245 57.2476 111.459 57.1317 111.602 56.9C111.748 56.6682 111.821 56.3253 111.821 55.8714C111.821 55.3666 111.745 54.9777 111.592 54.7047C111.443 54.4285 111.229 54.2904 110.949 54.2904C110.667 54.2904 110.451 54.4063 110.302 54.638C110.156 54.8666 110.083 55.2031 110.083 55.6475C110.083 56.1555 110.159 56.5492 110.311 56.8285C110.467 57.1079 110.683 57.2476 110.959 57.2476ZM108.259 55.8333C108.259 55.1158 108.522 54.5158 109.049 54.0332C109.576 53.5475 110.234 53.3046 111.021 53.3046C111.773 53.3046 112.4 53.5396 112.902 54.0094C113.404 54.4793 113.654 55.0539 113.654 55.7333C113.654 56.4539 113.391 57.0539 112.864 57.5333C112.337 58.0127 111.68 58.2524 110.892 58.2524C110.137 58.2524 109.508 58.019 109.007 57.5523C108.508 57.0825 108.259 56.5095 108.259 55.8333ZM115.864 57.2285C115.864 57.4317 115.89 57.6 115.94 57.7333C115.991 57.8666 116.075 57.9873 116.193 58.0952H113.817C113.934 57.9873 114.018 57.8666 114.069 57.7333C114.12 57.6 114.145 57.4317 114.145 57.2285V54.4475H113.521L114.145 53.4618V53.357C114.145 52.6903 114.321 52.1808 114.674 51.8284C115.029 51.476 115.539 51.2998 116.202 51.2998C116.323 51.2998 116.471 51.3078 116.645 51.3237C116.823 51.3395 117.047 51.3665 117.317 51.4046L116.76 52.4284C116.645 52.3745 116.553 52.3364 116.483 52.3141C116.417 52.2919 116.356 52.2808 116.302 52.2808C116.134 52.2808 116.017 52.33 115.95 52.4284C115.886 52.5268 115.855 52.7157 115.855 52.9951C115.855 53.1126 115.855 53.2046 115.855 53.2713C115.858 53.338 115.861 53.4015 115.864 53.4618H116.917V54.6047C116.825 54.5475 116.731 54.5078 116.636 54.4856C116.544 54.4602 116.423 54.4475 116.274 54.4475H115.864V57.2285ZM118.95 57.2285C118.95 57.4317 118.976 57.6 119.027 57.7333C119.077 57.8666 119.162 57.9873 119.279 58.0952H116.903C117.02 57.9873 117.104 57.8666 117.155 57.7333C117.206 57.6 117.231 57.4317 117.231 57.2285V54.4475H116.608L117.231 53.4618V53.357C117.231 52.6903 117.408 52.1808 117.76 51.8284C118.115 51.476 118.625 51.2998 119.289 51.2998C119.409 51.2998 119.557 51.3078 119.731 51.3237C119.909 51.3395 120.133 51.3665 120.403 51.4046L119.846 52.4284C119.731 52.3745 119.639 52.3364 119.569 52.3141C119.503 52.2919 119.442 52.2808 119.389 52.2808C119.22 52.2808 119.103 52.33 119.036 52.4284C118.973 52.5268 118.941 52.7157 118.941 52.9951C118.941 53.1126 118.941 53.2046 118.941 53.2713C118.944 53.338 118.947 53.4015 118.95 53.4618H120.003V54.6047C119.911 54.5475 119.817 54.5078 119.722 54.4856C119.63 54.4602 119.509 54.4475 119.36 54.4475H118.95V57.2285ZM122.979 54.9142C122.979 54.6793 122.929 54.5015 122.827 54.3809C122.725 54.257 122.575 54.1951 122.375 54.1951C122.181 54.1951 122.027 54.2586 121.913 54.3856C121.802 54.5126 121.741 54.6888 121.732 54.9142H122.979ZM124.689 55.7761H121.694C121.694 55.7952 121.692 55.8237 121.689 55.8618C121.686 55.8999 121.684 55.9253 121.684 55.938C121.684 56.3539 121.811 56.6793 122.065 56.9142C122.319 57.1492 122.67 57.2666 123.118 57.2666C123.314 57.2666 123.541 57.2285 123.799 57.1523C124.059 57.073 124.375 56.9444 124.746 56.7666L124.394 57.9C124.045 58.0174 123.733 58.1016 123.46 58.1524C123.187 58.2063 122.921 58.2333 122.66 58.2333C121.806 58.2333 121.13 58.0127 120.632 57.5714C120.137 57.1269 119.889 56.5317 119.889 55.7856C119.889 55.0586 120.127 54.4602 120.603 53.9904C121.083 53.5205 121.691 53.2856 122.427 53.2856C123.094 53.2856 123.637 53.5046 124.056 53.9428C124.478 54.3777 124.689 54.9459 124.689 55.6475V55.7761ZM127.894 54.9142C127.894 54.6793 127.843 54.5015 127.742 54.3809C127.64 54.257 127.489 54.1951 127.289 54.1951C127.096 54.1951 126.942 54.2586 126.828 54.3856C126.716 54.5126 126.656 54.6888 126.647 54.9142H127.894ZM129.604 55.7761H126.608C126.608 55.7952 126.607 55.8237 126.604 55.8618C126.601 55.8999 126.599 55.9253 126.599 55.938C126.599 56.3539 126.726 56.6793 126.98 56.9142C127.234 57.1492 127.585 57.2666 128.032 57.2666C128.229 57.2666 128.456 57.2285 128.713 57.1523C128.974 57.073 129.289 56.9444 129.661 56.7666L129.309 57.9C128.959 58.0174 128.648 58.1016 128.375 58.1524C128.102 58.2063 127.835 58.2333 127.575 58.2333C126.721 58.2333 126.045 58.0127 125.547 57.5714C125.051 57.1269 124.804 56.5317 124.804 55.7856C124.804 55.0586 125.042 54.4602 125.518 53.9904C125.997 53.5205 126.605 53.2856 127.342 53.2856C128.008 53.2856 128.551 53.5046 128.97 53.9428C129.393 54.3777 129.604 54.9459 129.604 55.6475V55.7761ZM135.171 53.3761C135.305 53.2681 135.4 53.1697 135.457 53.0808C135.517 52.9888 135.547 52.8951 135.547 52.7999C135.547 52.6665 135.501 52.5602 135.409 52.4808C135.321 52.4015 135.201 52.3618 135.052 52.3618C134.944 52.3618 134.859 52.3919 134.795 52.4522C134.732 52.5094 134.7 52.5888 134.7 52.6903C134.7 52.7729 134.735 52.8665 134.805 52.9713C134.874 53.0729 134.997 53.2078 135.171 53.3761ZM136.886 57.4428C136.603 57.7254 136.3 57.9333 135.976 58.0666C135.652 58.1968 135.282 58.2619 134.867 58.2619C134.111 58.2619 133.506 58.092 133.052 57.7524C132.598 57.4095 132.371 56.9587 132.371 56.3999C132.371 56.0507 132.474 55.7222 132.681 55.4142C132.887 55.1063 133.268 54.7348 133.824 54.2999C133.557 53.9983 133.36 53.7269 133.233 53.4856C133.106 53.2443 133.043 53.0189 133.043 52.8094C133.043 52.3935 133.216 52.0491 133.562 51.776C133.911 51.503 134.359 51.3665 134.905 51.3665C135.47 51.3665 135.921 51.4967 136.257 51.757C136.597 52.0173 136.767 52.3586 136.767 52.7808C136.767 53.0126 136.7 53.2396 136.567 53.4618C136.436 53.6808 136.23 53.9126 135.948 54.157L138.019 56.1761C138.282 56.4333 138.643 56.7285 139.1 57.0619C139.557 57.3952 140.071 57.7365 140.643 58.0857L139.219 58.1524C139.181 58.1555 139.14 58.1571 139.095 58.1571C139.054 58.1603 138.994 58.1619 138.914 58.1619C138.467 58.1619 138.082 58.1063 137.762 57.9952C137.444 57.8809 137.152 57.6968 136.886 57.4428ZM136.176 56.7571L134.624 55.1809C134.474 55.346 134.365 55.5031 134.295 55.6523C134.228 55.7983 134.195 55.9523 134.195 56.1142C134.195 56.4222 134.301 56.6873 134.514 56.9095C134.727 57.1285 134.984 57.2381 135.286 57.2381C135.447 57.2381 135.597 57.2015 135.733 57.1285C135.87 57.0555 136.017 56.9317 136.176 56.7571ZM145.153 54.9142C145.153 54.6793 145.102 54.5015 145.001 54.3809C144.899 54.257 144.748 54.1951 144.548 54.1951C144.355 54.1951 144.201 54.2586 144.087 54.3856C143.975 54.5126 143.915 54.6888 143.906 54.9142H145.153ZM146.863 55.7761H143.867C143.867 55.7952 143.866 55.8237 143.863 55.8618C143.86 55.8999 143.858 55.9253 143.858 55.938C143.858 56.3539 143.985 56.6793 144.239 56.9142C144.493 57.1492 144.844 57.2666 145.291 57.2666C145.488 57.2666 145.715 57.2285 145.972 57.1523C146.233 57.073 146.548 56.9444 146.92 56.7666L146.568 57.9C146.218 58.0174 145.907 58.1016 145.634 58.1524C145.361 58.2063 145.094 58.2333 144.834 58.2333C143.98 58.2333 143.304 58.0127 142.806 57.5714C142.31 57.1269 142.063 56.5317 142.063 55.7856C142.063 55.0586 142.301 54.4602 142.777 53.9904C143.256 53.5205 143.864 53.2856 144.601 53.2856C145.268 53.2856 145.81 53.5046 146.229 53.9428C146.652 54.3777 146.863 54.9459 146.863 55.6475V55.7761ZM149.758 55.919C149.397 56.0587 149.154 56.1857 149.03 56.2999C148.909 56.4142 148.849 56.5539 148.849 56.719C148.849 56.8968 148.909 57.0381 149.03 57.1428C149.151 57.2444 149.316 57.2952 149.525 57.2952H149.601L149.192 58.1619C149.049 58.1746 148.931 58.1825 148.839 58.1857C148.75 58.1889 148.676 58.1905 148.616 58.1905C148.143 58.1905 147.754 58.0539 147.449 57.7809C147.147 57.5079 146.996 57.1603 146.996 56.738C146.996 56.3825 147.109 56.0888 147.335 55.8571C147.56 55.6253 147.898 55.4555 148.349 55.3475C148.476 55.3158 148.647 55.2793 148.863 55.238C149.466 55.1174 149.768 54.9348 149.768 54.6904C149.768 54.5444 149.716 54.4332 149.611 54.357C149.509 54.2809 149.357 54.2428 149.154 54.2428C148.966 54.2428 148.77 54.265 148.563 54.3094C148.36 54.3539 148.144 54.4221 147.916 54.5142L148.373 53.4713C148.582 53.411 148.774 53.3665 148.949 53.338C149.127 53.3094 149.298 53.2951 149.463 53.2951C149.857 53.2951 150.189 53.338 150.458 53.4237C150.731 53.5094 150.954 53.6396 151.125 53.8142C151.274 53.9697 151.381 54.1539 151.444 54.3666C151.511 54.5793 151.544 54.9348 151.544 55.4333V55.519V56.6047C151.544 56.846 151.593 57.0174 151.692 57.119C151.79 57.2206 151.984 57.292 152.273 57.3333L151.901 58.1524C151.774 58.1619 151.666 58.1682 151.578 58.1714C151.489 58.1778 151.416 58.1809 151.358 58.1809C150.885 58.1809 150.5 58.0492 150.201 57.7857C149.906 57.519 149.758 57.1698 149.758 56.738V55.919ZM152.645 54.4094H152.102V53.7142C152.559 53.6316 152.924 53.4507 153.197 53.1713C153.473 52.8888 153.657 52.5078 153.749 52.0284H154.392V53.4618H155.483V54.6618C155.381 54.5729 155.276 54.5094 155.168 54.4713C155.061 54.4301 154.932 54.4094 154.783 54.4094H154.392V56.2428C154.392 56.7031 154.465 56.9984 154.611 57.1285C154.761 57.2555 155.051 57.3222 155.483 57.3285L155.064 58.1238C154.895 58.1714 154.738 58.2063 154.592 58.2286C154.449 58.2508 154.314 58.2619 154.187 58.2619C153.676 58.2619 153.291 58.1333 153.03 57.8762C152.773 57.619 152.645 57.2333 152.645 56.719V54.4094ZM158.707 54.9142C158.707 54.6793 158.656 54.5015 158.555 54.3809C158.453 54.257 158.302 54.1951 158.102 54.1951C157.909 54.1951 157.755 54.2586 157.64 54.3856C157.529 54.5126 157.469 54.6888 157.459 54.9142H158.707ZM160.417 55.7761H157.421C157.421 55.7952 157.42 55.8237 157.417 55.8618C157.413 55.8999 157.412 55.9253 157.412 55.938C157.412 56.3539 157.539 56.6793 157.793 56.9142C158.047 57.1492 158.397 57.2666 158.845 57.2666C159.042 57.2666 159.269 57.2285 159.526 57.1523C159.786 57.073 160.102 56.9444 160.474 56.7666L160.121 57.9C159.772 58.0174 159.461 58.1016 159.188 58.1524C158.915 58.2063 158.648 58.2333 158.388 58.2333C157.534 58.2333 156.858 58.0127 156.359 57.5714C155.864 57.1269 155.616 56.5317 155.616 55.7856C155.616 55.0586 155.855 54.4602 156.331 53.9904C156.81 53.5205 157.418 53.2856 158.155 53.2856C158.821 53.2856 159.364 53.5046 159.783 53.9428C160.205 54.3777 160.417 54.9459 160.417 55.6475V55.7761ZM160.56 58.0952C160.68 57.9873 160.766 57.8666 160.817 57.7333C160.868 57.6 160.893 57.4317 160.893 57.2285V54.3428C160.893 54.1301 160.868 53.957 160.817 53.8237C160.766 53.6872 160.684 53.5666 160.569 53.4618H161.007C161.328 53.4618 161.612 53.4539 161.86 53.438C162.107 53.4189 162.344 53.3919 162.569 53.357L162.607 53.9904C162.703 53.784 162.838 53.6285 163.012 53.5237C163.19 53.4189 163.407 53.3665 163.665 53.3665C163.703 53.3665 163.754 53.3697 163.817 53.3761C163.881 53.3792 163.958 53.3856 164.05 53.3951V54.5761C163.952 54.5666 163.858 54.5602 163.769 54.557C163.684 54.5507 163.606 54.5475 163.536 54.5475C163.206 54.5475 162.968 54.6269 162.822 54.7856C162.679 54.9412 162.607 55.2031 162.607 55.5714V57.2285C162.607 57.4317 162.633 57.6 162.684 57.7333C162.738 57.8666 162.823 57.9873 162.941 58.0952H160.56ZM163.803 60.1714L164.589 59.1714C164.665 59.1778 164.719 59.181 164.751 59.181C164.786 59.1841 164.817 59.1857 164.846 59.1857C165.141 59.1857 165.381 59.0936 165.565 58.9095C165.752 58.7254 165.91 58.4174 166.036 57.9857C165.862 57.8936 165.697 57.7428 165.541 57.5333C165.389 57.3238 165.248 57.0587 165.117 56.738L164.17 54.438C164.106 54.2856 164.024 54.1285 163.922 53.9666C163.821 53.8015 163.702 53.6332 163.565 53.4618H165.713L166.765 56.1952L167.303 54.6618C167.306 54.6491 167.313 54.6285 167.322 54.5999C167.421 54.311 167.47 54.1047 167.47 53.9808C167.47 53.9142 167.454 53.8443 167.422 53.7713C167.39 53.6951 167.332 53.592 167.246 53.4618H168.698L166.813 58.419C166.559 59.0984 166.263 59.5635 165.927 59.8143C165.59 60.0651 165.119 60.1905 164.513 60.1905C164.382 60.1905 164.175 60.1857 163.889 60.1762C163.851 60.173 163.822 60.1714 163.803 60.1714Z" fill="#EF5B38"/>
</svg>
