<svg width="23" height="24" viewBox="0 0 23 24" fill="none" xmlns="http://www.w3.org/2000/svg">
<g opacity="0.998">
<path fill-rule="evenodd" clip-rule="evenodd" d="M11.2146 0C11.417 0 11.6194 0 11.8218 0C12.2054 0.200278 12.5946 0.387778 12.9895 0.5625C12.943 0.558478 12.9041 0.574106 12.8728 0.609375C12.8572 0.578123 12.8416 0.546877 12.8261 0.515625C12.779 0.598078 12.7089 0.652767 12.6159 0.679688C11.1094 1.34506 9.59916 2.00131 8.08502 2.64844C7.68626 2.7539 7.55388 2.99609 7.68799 3.375C7.76884 3.47422 7.87006 3.54453 7.9916 3.58594C9.62041 4.25514 11.2396 4.93481 12.8494 5.625C12.4634 5.79328 12.0742 5.95734 11.6817 6.11719C11.5571 6.14845 11.4326 6.14845 11.308 6.11719C10.4951 5.7855 9.68548 5.44955 8.87908 5.10938C8.35369 4.88152 7.82433 4.66278 7.29095 4.45312C6.56037 4.14915 5.82857 3.84446 5.0956 3.53906C4.92315 3.41955 4.84533 3.25548 4.86205 3.04688C4.91077 2.92705 4.98863 2.82549 5.0956 2.74219C5.88649 2.4234 6.66495 2.07965 7.43108 1.71094C5.74963 1.6875 4.06805 1.67969 2.38644 1.6875C4.1068 1.64847 5.83506 1.62503 7.57121 1.61719C8.79393 1.08944 10.0084 0.550378 11.2146 0Z" fill="#44585F"/>
<path fill-rule="evenodd" clip-rule="evenodd" d="M12.9895 0.5625C13.8036 0.900586 14.6133 1.25215 15.4184 1.61719C17.139 1.62504 18.8517 1.64848 20.5565 1.6875C18.8749 1.67969 17.1933 1.6875 15.5119 1.71094C16.3215 2.07031 17.1311 2.42969 17.9408 2.78906C18.0313 2.85619 18.0936 2.94213 18.1276 3.04688C18.137 3.16356 18.1137 3.27293 18.0575 3.375C17.8866 3.52718 17.6919 3.63656 17.4737 3.70312C17.2347 3.78403 17.0011 3.87778 16.773 3.98438C16.3993 4.14062 16.0257 4.29688 15.652 4.45312C14.7178 4.84373 13.7836 5.23439 12.8494 5.625C11.2396 4.93481 9.62041 4.25514 7.9916 3.58594C7.87006 3.54453 7.76884 3.47422 7.68799 3.375C7.55388 2.99609 7.68626 2.7539 8.08502 2.64844C9.59916 2.00131 11.1094 1.34506 12.6159 0.679688C12.7089 0.652767 12.779 0.598078 12.8261 0.515625C12.8416 0.546877 12.8572 0.578123 12.8728 0.609375C12.9041 0.574106 12.943 0.558478 12.9895 0.5625Z" fill="#586A74"/>
<path fill-rule="evenodd" clip-rule="evenodd" d="M2.33973 1.6875C2.33973 1.70312 2.33973 1.71875 2.33973 1.73438C2.1858 1.77112 2.03011 1.818 1.87263 1.875C1.99836 1.74934 2.15406 1.68684 2.33973 1.6875Z" fill="#3C5E77"/>
<path fill-rule="evenodd" clip-rule="evenodd" d="M2.33973 1.73438C3.07168 1.72657 3.80346 1.73438 4.53508 1.75781C3.9814 1.98614 3.73228 2.4002 3.78773 3C3.49859 2.98486 3.21834 3.00049 2.94695 3.04688C2.87607 3.04737 2.82158 3.07862 2.78347 3.14062C2.75233 7.3125 2.75233 11.4844 2.78347 15.6562C2.81655 15.6975 2.85548 15.7288 2.90024 15.75C3.18725 15.7964 3.48308 15.812 3.78773 15.7969C3.73452 16.402 3.98364 16.816 4.53508 17.0391C3.80346 17.0625 3.07168 17.0703 2.33973 17.0625C1.88255 16.9867 1.59451 16.7211 1.4756 16.2656C1.46779 13.164 1.44444 10.0703 1.40553 6.98438C1.39004 5.47636 1.40562 3.97636 1.45224 2.48438C1.56659 2.26973 1.70672 2.0666 1.87263 1.875C2.03011 1.818 2.1858 1.77112 2.33973 1.73438Z" fill="#5FB5FC"/>
<path fill-rule="evenodd" clip-rule="evenodd" d="M2.33973 1.73438C2.33973 1.71875 2.33973 1.70312 2.33973 1.6875C2.35529 1.6875 2.37087 1.6875 2.38644 1.6875C4.06805 1.67969 5.74963 1.6875 7.43108 1.71094C6.66495 2.07965 5.88649 2.4234 5.0956 2.74219C4.98863 2.82549 4.91077 2.92705 4.86205 3.04688C4.72192 3.04688 4.58179 3.04688 4.44166 3.04688C3.94342 3.04688 3.44519 3.04688 2.94695 3.04688C3.21834 3.00049 3.49859 2.98486 3.78773 3C3.73228 2.4002 3.9814 1.98614 4.53508 1.75781C3.80346 1.73438 3.07168 1.72657 2.33973 1.73438Z" fill="#89C8FC"/>
<path fill-rule="evenodd" clip-rule="evenodd" d="M20.5565 1.6875C21.0818 1.73787 21.4165 2.01912 21.5608 2.53125C21.5841 4.01554 21.5919 5.49994 21.5841 6.98438C21.5452 10.039 21.5219 13.1015 21.5141 16.1719C21.4343 16.6218 21.1774 16.9108 20.7433 17.0391C14.998 17.0491 9.25267 17.0726 3.50747 17.1094C3.11012 17.1094 2.72087 17.0937 2.33973 17.0625C3.07168 17.0703 3.80346 17.0625 4.53508 17.0391C3.98364 16.816 3.73452 16.402 3.78773 15.7969C3.48308 15.812 3.18725 15.7964 2.90024 15.75C3.41405 15.75 3.92786 15.75 4.44166 15.75C9.67315 15.7578 14.9046 15.75 20.1361 15.7266C20.1595 15.7031 20.1828 15.6797 20.2062 15.6562C20.2373 11.4844 20.2373 7.3125 20.2062 3.14062C20.1828 3.11719 20.1595 3.09375 20.1361 3.07031C19.4668 3.04688 18.7973 3.03907 18.1276 3.04688C18.0936 2.94213 18.0313 2.85619 17.9408 2.78906C17.1311 2.42969 16.3215 2.07031 15.5119 1.71094C17.1933 1.6875 18.8749 1.67969 20.5565 1.6875Z" fill="#8AC8FC"/>
<path fill-rule="evenodd" clip-rule="evenodd" d="M1.87263 1.875C1.70672 2.0666 1.56659 2.26973 1.45224 2.48438C1.48078 2.3334 1.53527 2.19277 1.61573 2.0625C1.6835 1.97043 1.76913 1.90793 1.87263 1.875Z" fill="#3E5F79"/>
<path fill-rule="evenodd" clip-rule="evenodd" d="M2.94695 3.04688C3.44519 3.04688 3.94342 3.04688 4.44166 3.04688C4.42844 3.08386 4.40509 3.11512 4.3716 3.14062C4.34824 3.82795 4.34044 4.51545 4.34824 5.20312C5.01045 5.1877 5.66438 5.20331 6.31005 5.25C5.62482 5.24217 4.93973 5.25 4.25482 5.27344C4.05634 5.49848 4.07191 5.70159 4.30153 5.88281C4.97084 5.90625 5.64037 5.91408 6.31005 5.90625C5.66438 5.95294 5.01045 5.96855 4.34824 5.95312C4.34824 6.07814 4.34824 6.20311 4.34824 6.32812C4.03684 6.5625 4.03684 6.79688 4.34824 7.03125C4.34824 7.15627 4.34824 7.28123 4.34824 7.40625C5.01045 7.39083 5.66438 7.40644 6.31005 7.45312C5.64037 7.4453 4.97084 7.45312 4.30153 7.47656C4.07191 7.65778 4.05634 7.86089 4.25482 8.08594C4.93973 8.10938 5.62482 8.1172 6.31005 8.10938C5.66438 8.15606 5.01045 8.17167 4.34824 8.15625C4.34824 8.46877 4.34824 8.78123 4.34824 9.09375C4.20142 9.12347 4.08465 9.20156 3.99792 9.32812C3.96678 11.0469 3.96678 12.7656 3.99792 14.4844C4.04718 14.6042 4.13281 14.6823 4.25482 14.7188C4.32073 15.0587 4.38299 15.4024 4.44166 15.75C3.92786 15.75 3.41405 15.75 2.90024 15.75C2.85548 15.7288 2.81655 15.6975 2.78347 15.6562C2.75233 11.4844 2.75233 7.3125 2.78347 3.14062C2.82158 3.07862 2.87607 3.04737 2.94695 3.04688Z" fill="#D7EBFD"/>
<path fill-rule="evenodd" clip-rule="evenodd" d="M4.44166 3.04688C4.58179 3.04688 4.72192 3.04688 4.86205 3.04688C4.84533 3.25548 4.92315 3.41955 5.0956 3.53906C5.82857 3.84446 6.56037 4.14915 7.29095 4.45312C7.28315 5.56261 7.29095 6.672 7.31431 7.78125C7.35102 7.92577 7.43664 8.0273 7.57121 8.08594C8.10034 8.10938 8.62975 8.1172 9.15934 8.10938C11.2641 8.13211 13.366 8.10867 15.4651 8.03906C15.5197 7.98436 15.5741 7.9297 15.6286 7.875C15.652 6.73448 15.6598 5.59388 15.652 4.45312C16.0257 4.29688 16.3993 4.14062 16.773 3.98438C16.773 4.74998 16.773 5.51564 16.773 6.28125C16.3557 6.65208 16.3401 7.04269 16.7263 7.45312C16.5086 8.03039 16.2906 8.60855 16.0724 9.1875C16.0737 9.25917 16.1049 9.31387 16.1658 9.35156C16.4144 9.37495 16.6635 9.38278 16.9131 9.375C17.3027 9.38278 17.6919 9.375 18.0809 9.35156C18.207 9.30708 18.2459 9.22111 18.1977 9.09375C17.9826 8.54761 17.7724 8.00072 17.5671 7.45312C17.9667 7.02642 17.9356 6.63581 17.4737 6.28125C17.4737 5.42189 17.4737 4.5625 17.4737 3.70312C17.6919 3.63656 17.8866 3.52718 18.0575 3.375C18.1137 3.27293 18.137 3.16356 18.1276 3.04688C18.7973 3.03907 19.4668 3.04688 20.1361 3.07031C20.1595 3.09375 20.1828 3.11719 20.2062 3.14062C20.2373 7.3125 20.2373 11.4844 20.2062 15.6562C20.1828 15.6797 20.1595 15.7031 20.1361 15.7266C14.9046 15.75 9.67315 15.7578 4.44166 15.75C4.38299 15.4024 4.32073 15.0587 4.25482 14.7188C4.76863 14.7188 5.28244 14.7188 5.79624 14.7188C6.96408 14.7266 8.13182 14.7188 9.29947 14.6953C9.38467 14.6644 9.44693 14.6097 9.48631 14.5312C9.52218 14.4955 9.54554 14.4486 9.55637 14.3906C9.59519 12.7265 9.58739 11.0702 9.53302 9.42188C9.51382 9.25411 9.4204 9.15253 9.25276 9.11719C8.11627 9.09375 6.97968 9.08592 5.84295 9.09375C5.3447 9.09375 4.84649 9.09375 4.34824 9.09375C4.34824 8.78123 4.34824 8.46877 4.34824 8.15625C5.01045 8.17167 5.66438 8.15606 6.31005 8.10938C6.55191 8.04614 6.63758 7.88991 6.56695 7.64062C6.49918 7.54856 6.41356 7.48608 6.31005 7.45312C5.66438 7.40644 5.01045 7.39083 4.34824 7.40625C4.34824 7.28123 4.34824 7.15627 4.34824 7.03125C5.01792 7.03908 5.68746 7.03125 6.35676 7.00781C6.66817 6.78905 6.66817 6.57033 6.35676 6.35156C5.68746 6.32812 5.01792 6.3203 4.34824 6.32812C4.34824 6.20311 4.34824 6.07814 4.34824 5.95312C5.01045 5.96855 5.66438 5.95294 6.31005 5.90625C6.58993 5.80256 6.66 5.61506 6.52024 5.34375C6.45812 5.29303 6.38805 5.26177 6.31005 5.25C5.66438 5.20331 5.01045 5.1877 4.34824 5.20312C4.34044 4.51545 4.34824 3.82795 4.3716 3.14062C4.40509 3.11512 4.42844 3.08386 4.44166 3.04688Z" fill="#E9F5FE"/>
<path fill-rule="evenodd" clip-rule="evenodd" d="M17.4737 3.70312C17.4737 4.5625 17.4737 5.42189 17.4737 6.28125C17.4581 6.28125 17.4425 6.28125 17.427 6.28125C17.2153 6.16256 16.9973 6.16256 16.773 6.28125C16.773 5.51564 16.773 4.74998 16.773 3.98438C17.0011 3.87778 17.2347 3.78403 17.4737 3.70312Z" fill="#FD7AAA"/>
<path fill-rule="evenodd" clip-rule="evenodd" d="M18.6881 3.98438C19.2715 3.90575 19.5129 4.15575 19.4121 4.73438C19.0626 5.12414 18.7357 5.10848 18.4312 4.6875C18.4001 4.5625 18.4001 4.4375 18.4312 4.3125C18.509 4.19551 18.5947 4.08614 18.6881 3.98438Z" fill="#C4E2FF"/>
<path fill-rule="evenodd" clip-rule="evenodd" d="M7.29095 4.45312C7.82433 4.66278 8.35369 4.88152 8.87908 5.10938C8.87128 6.00014 8.87908 6.89077 8.90244 7.78125C8.94761 7.92755 9.03322 8.03691 9.15934 8.10938C8.62975 8.1172 8.10034 8.10938 7.57121 8.08594C7.43664 8.0273 7.35102 7.92577 7.31431 7.78125C7.29095 6.672 7.28315 5.56261 7.29095 4.45312Z" fill="#5A6D77"/>
<path fill-rule="evenodd" clip-rule="evenodd" d="M15.652 4.45312C15.6598 5.59388 15.652 6.73448 15.6286 7.875C15.5741 7.9297 15.5197 7.98436 15.4651 8.03906C13.366 8.10867 11.2641 8.13211 9.15934 8.10938C9.03322 8.03691 8.94761 7.92755 8.90244 7.78125C8.87908 6.89077 8.87128 6.00014 8.87908 5.10938C9.68548 5.44955 10.4951 5.7855 11.308 6.11719C11.4326 6.14845 11.5571 6.14845 11.6817 6.11719C12.0742 5.95734 12.4634 5.79328 12.8494 5.625C13.7836 5.23439 14.7178 4.84373 15.652 4.45312Z" fill="#798B97"/>
<path fill-rule="evenodd" clip-rule="evenodd" d="M6.31005 5.25C6.38805 5.26177 6.45812 5.29303 6.52024 5.34375C6.66 5.61506 6.58993 5.80256 6.31005 5.90625C5.64037 5.91408 4.97084 5.90625 4.30153 5.88281C4.07191 5.70159 4.05634 5.49848 4.25482 5.27344C4.93973 5.25 5.62482 5.24217 6.31005 5.25Z" fill="#8AC9FE"/>
<path fill-rule="evenodd" clip-rule="evenodd" d="M18.6881 5.39062C19.1923 5.29603 19.4492 5.49914 19.4588 6C19.3374 6.34331 19.0961 6.47611 18.7348 6.39844C18.3245 6.07777 18.309 5.74181 18.6881 5.39062Z" fill="#C4E2FF"/>
<path fill-rule="evenodd" clip-rule="evenodd" d="M17.427 6.28125C17.1792 6.414 17.0546 6.62494 17.0533 6.91406C17.0586 7.04213 17.0976 7.15931 17.1701 7.26562C17.2677 7.35544 17.3533 7.44919 17.427 7.54688C17.1795 7.6208 16.946 7.58953 16.7263 7.45312C16.3401 7.04269 16.3557 6.65208 16.773 6.28125C16.9973 6.16256 17.2153 6.16256 17.427 6.28125Z" fill="#FD3882"/>
<path fill-rule="evenodd" clip-rule="evenodd" d="M17.427 6.28125C17.4425 6.28125 17.4581 6.28125 17.4737 6.28125C17.9356 6.63581 17.9667 7.02642 17.5671 7.45312C17.5204 7.48439 17.4737 7.51561 17.427 7.54688C17.3533 7.44919 17.2677 7.35544 17.1701 7.26562C17.0976 7.15931 17.0586 7.04213 17.0533 6.91406C17.0546 6.62494 17.1792 6.414 17.427 6.28125Z" fill="#FD5895"/>
<path fill-rule="evenodd" clip-rule="evenodd" d="M4.34824 6.32812C5.01792 6.3203 5.68746 6.32812 6.35676 6.35156C6.66817 6.57033 6.66817 6.78905 6.35676 7.00781C5.68746 7.03125 5.01792 7.03908 4.34824 7.03125C4.03684 6.79688 4.03684 6.5625 4.34824 6.32812Z" fill="#8AC9FE"/>
<path fill-rule="evenodd" clip-rule="evenodd" d="M18.7815 6.75C19.3183 6.76453 19.5285 7.03017 19.4121 7.54688C19.036 7.95037 18.709 7.91911 18.4312 7.45312C18.3746 7.12917 18.4914 6.8948 18.7815 6.75Z" fill="#FEFEFF"/>
<path fill-rule="evenodd" clip-rule="evenodd" d="M1.40553 6.98438C1.44444 10.0703 1.46779 13.164 1.4756 16.2656C1.59451 16.7211 1.88255 16.9867 2.33973 17.0625C2.72087 17.0937 3.11012 17.1094 3.50747 17.1094C9.25267 17.0726 14.998 17.0491 20.7433 17.0391C21.1774 16.9108 21.4343 16.6218 21.5141 16.1719C21.5219 13.1015 21.5452 10.039 21.5841 6.98438C23.037 9.72328 23.3717 12.5983 22.5884 15.6094C22.0743 17.4076 21.1868 18.9857 19.9259 20.3438C19.9179 20.6647 19.8945 20.9772 19.8559 21.2812C19.8637 20.453 19.8559 19.6249 19.8325 18.7969C19.7425 18.5659 19.579 18.4175 19.3421 18.3516C14.7489 18.3281 10.1558 18.3203 5.56269 18.3281C4.89302 18.3203 4.2235 18.3281 3.55418 18.3516C3.30485 18.4456 3.15694 18.6254 3.11044 18.8906C3.08709 19.6717 3.0793 20.453 3.08708 21.2344C3.04839 20.9303 3.02504 20.6178 3.01702 20.2969C0.531435 17.4775 -0.41833 14.1963 0.167725 10.4531C0.384145 9.22275 0.796746 8.06653 1.40553 6.98438Z" fill="#F8E0BE"/>
<path fill-rule="evenodd" clip-rule="evenodd" d="M16.7263 7.45312C16.946 7.58953 17.1795 7.6208 17.427 7.54688C17.2281 8.05955 17.0334 8.57517 16.8431 9.09375C16.8081 9.20344 16.8315 9.29719 16.9131 9.375C16.6635 9.38278 16.4144 9.37495 16.1658 9.35156C16.1049 9.31387 16.0737 9.25917 16.0724 9.1875C16.2906 8.60855 16.5086 8.03039 16.7263 7.45312Z" fill="#FD5895"/>
<path fill-rule="evenodd" clip-rule="evenodd" d="M17.5671 7.45312C17.7724 8.00072 17.9826 8.54761 18.1977 9.09375C18.2459 9.22111 18.207 9.30708 18.0809 9.35156C17.6919 9.375 17.3027 9.38278 16.9131 9.375C16.8315 9.29719 16.8081 9.20344 16.8431 9.09375C17.0334 8.57517 17.2281 8.05955 17.427 7.54688C17.4737 7.51561 17.5204 7.48439 17.5671 7.45312Z" fill="#FD78A9"/>
<path fill-rule="evenodd" clip-rule="evenodd" d="M6.31005 7.45312C6.41356 7.48608 6.49918 7.54856 6.56695 7.64062C6.63758 7.88991 6.55191 8.04614 6.31005 8.10938C5.62482 8.1172 4.93973 8.10938 4.25482 8.08594C4.05634 7.86089 4.07191 7.65778 4.30153 7.47656C4.97084 7.45312 5.64037 7.4453 6.31005 7.45312Z" fill="#8AC9FE"/>
<path fill-rule="evenodd" clip-rule="evenodd" d="M4.34824 9.09375C4.84649 9.09375 5.3447 9.09375 5.84295 9.09375C5.68811 9.14775 5.58689 9.25711 5.53934 9.42188C5.50122 9.66488 5.50898 9.89925 5.56269 10.125C4.58128 10.9479 4.38664 11.9323 4.97882 13.0781C5.15151 13.306 5.34615 13.5092 5.56269 13.6875C5.49833 13.9643 5.50608 14.2455 5.58605 14.5312C5.6513 14.6048 5.72137 14.6674 5.79624 14.7188C5.28244 14.7188 4.76863 14.7188 4.25482 14.7188C4.13281 14.6823 4.04718 14.6042 3.99792 14.4844C3.96678 12.7656 3.96678 11.0469 3.99792 9.32812C4.08465 9.20156 4.20142 9.12347 4.34824 9.09375Z" fill="#F9C502"/>
<path fill-rule="evenodd" clip-rule="evenodd" d="M5.84295 9.09375C6.97968 9.08592 8.11627 9.09375 9.25276 9.11719C9.4204 9.15253 9.51382 9.25411 9.53302 9.42188C9.5474 11.1262 9.5318 12.8293 9.48631 14.5312C9.44693 14.6097 9.38467 14.6644 9.29947 14.6953C8.13182 14.7188 6.96408 14.7266 5.79624 14.7188C5.72137 14.6674 5.6513 14.6048 5.58605 14.5312C5.50608 14.2455 5.49833 13.9643 5.56269 13.6875C6.16408 14.077 6.80246 14.1551 7.47779 13.9219C8.70733 13.3288 9.11992 12.3757 8.7156 11.0625C8.4459 10.5183 8.03326 10.1277 7.47779 9.89062C6.80349 9.70561 6.16511 9.7837 5.56269 10.125C5.50898 9.89925 5.50122 9.66488 5.53934 9.42188C5.58689 9.25711 5.68811 9.14775 5.84295 9.09375Z" fill="#FDD306"/>
<path fill-rule="evenodd" clip-rule="evenodd" d="M9.53302 9.42188C9.58739 11.0702 9.59519 12.7265 9.55637 14.3906C9.54554 14.4486 9.52218 14.4955 9.48631 14.5312C9.5318 12.8293 9.5474 11.1262 9.53302 9.42188Z" fill="#F8DD4F"/>
<path fill-rule="evenodd" clip-rule="evenodd" d="M7.47779 9.89062C7.48181 9.93731 7.46621 9.97636 7.43108 10.0078C6.98879 10.2253 6.64627 10.5456 6.40347 10.9688C6.31514 10.9202 6.22952 10.9202 6.14657 10.9688C6.12321 11.6092 6.11541 12.2498 6.12321 12.8906C6.21967 12.8898 6.31309 12.8742 6.40347 12.8438C6.50366 12.9812 6.60488 13.1219 6.70708 13.2656C6.95763 13.5028 7.21454 13.7215 7.47779 13.9219C6.80246 14.1551 6.16408 14.077 5.56269 13.6875C5.34615 13.5092 5.15151 13.306 4.97882 13.0781C4.38664 11.9323 4.58128 10.9479 5.56269 10.125C6.16511 9.7837 6.80349 9.70561 7.47779 9.89062Z" fill="#FE5893"/>
<path fill-rule="evenodd" clip-rule="evenodd" d="M7.47779 9.89062C8.03326 10.1277 8.4459 10.5183 8.7156 11.0625C9.11992 12.3757 8.70733 13.3288 7.47779 13.9219C7.21454 13.7215 6.95763 13.5028 6.70708 13.2656C6.60488 13.1219 6.50366 12.9812 6.40347 12.8438C6.85996 12.5597 7.32706 12.2863 7.80476 12.0234C7.86301 11.9534 7.86301 11.8831 7.80476 11.8125C7.32356 11.547 6.85646 11.2657 6.40347 10.9688C6.64627 10.5456 6.98879 10.2253 7.43108 10.0078C7.46621 9.97636 7.48181 9.93731 7.47779 9.89062Z" fill="#FE76A7"/>
<path fill-rule="evenodd" clip-rule="evenodd" d="M10.5606 10.2656C13.41 10.2578 16.2593 10.2656 19.1085 10.2891C19.3292 10.4032 19.3992 10.5829 19.3187 10.8281C19.2798 10.8672 19.2408 10.9063 19.2019 10.9453C16.3059 10.9766 13.4099 10.9766 10.5139 10.9453C10.3179 10.8056 10.279 10.6259 10.3971 10.4062C10.4506 10.353 10.5051 10.3061 10.5606 10.2656Z" fill="#857CC2"/>
<path fill-rule="evenodd" clip-rule="evenodd" d="M6.40347 10.9688C6.85646 11.2657 7.32356 11.547 7.80476 11.8125C7.86301 11.8831 7.86301 11.9534 7.80476 12.0234C7.32706 12.2863 6.85996 12.5597 6.40347 12.8438C6.31309 12.8742 6.21967 12.8898 6.12321 12.8906C6.11541 12.2498 6.12321 11.6092 6.14657 10.9688C6.22952 10.9202 6.31514 10.9202 6.40347 10.9688Z" fill="#FFFDFD"/>
<path fill-rule="evenodd" clip-rule="evenodd" d="M10.5139 11.5312C11.495 11.5234 12.4759 11.5312 13.4566 11.5547C13.6735 11.6518 13.7436 11.8159 13.6668 12.0469C13.6101 12.1195 13.5401 12.1741 13.4566 12.2109C12.4757 12.2422 11.4948 12.2422 10.5139 12.2109C10.267 11.9845 10.267 11.7579 10.5139 11.5312Z" fill="#8379C1"/>
<path fill-rule="evenodd" clip-rule="evenodd" d="M14.3441 11.5312C15.9323 11.5234 17.5205 11.5312 19.1085 11.5547C19.3508 11.6891 19.4053 11.8844 19.272 12.1406C19.237 12.17 19.198 12.1934 19.1552 12.2109C17.5515 12.2422 15.9478 12.2422 14.3441 12.2109C14.0966 11.9809 14.0966 11.7543 14.3441 11.5312Z" fill="#8379C1"/>
<path fill-rule="evenodd" clip-rule="evenodd" d="M10.5139 12.7969C12.4914 12.789 14.4687 12.7969 16.4461 12.8203C16.7023 13.0585 16.6867 13.2773 16.3993 13.4766C14.4531 13.5078 12.5069 13.5078 10.5606 13.4766C10.3254 13.3353 10.2709 13.14 10.3971 12.8906C10.4436 12.8641 10.4825 12.8328 10.5139 12.7969Z" fill="#8CC9FE"/>
<path fill-rule="evenodd" clip-rule="evenodd" d="M17.2868 12.7969C17.9098 12.789 18.5326 12.7969 19.1552 12.8203C19.4713 13.0545 19.4557 13.2733 19.1085 13.4766C18.5168 13.5078 17.9252 13.5078 17.3335 13.4766C17.1129 13.3624 17.0428 13.1827 17.1233 12.9375C17.1768 12.8842 17.2313 12.8374 17.2868 12.7969Z" fill="#8CCAFE"/>
<path fill-rule="evenodd" clip-rule="evenodd" d="M10.5606 14.0156C11.7907 14.0078 13.0208 14.0156 14.2507 14.0391C14.605 14.2378 14.6206 14.4565 14.2974 14.6953C13.0362 14.7266 11.7751 14.7266 10.5139 14.6953C10.3405 14.5775 10.2861 14.4135 10.3504 14.2031C10.4157 14.1295 10.4858 14.067 10.5606 14.0156Z" fill="#8BC9FE"/>
<path fill-rule="evenodd" clip-rule="evenodd" d="M5.56269 18.3281C5.39487 18.4104 5.26254 18.5355 5.16566 18.7031C5.10102 19.0271 5.07766 19.3552 5.0956 19.6875C4.83047 19.6797 4.56577 19.6875 4.30153 19.7109C4.05292 19.9275 4.05292 20.1462 4.30153 20.3672C4.56577 20.3906 4.83047 20.3984 5.0956 20.3906C5.08784 20.6723 5.09564 20.9535 5.11895 21.2344C5.19887 21.4941 5.36236 21.666 5.6094 21.75C4.97116 21.7699 4.33278 21.7855 3.69431 21.7969C3.37102 21.738 3.16861 21.5505 3.08708 21.2344C3.0793 20.453 3.08709 19.6717 3.11044 18.8906C3.15694 18.6254 3.30485 18.4456 3.55418 18.3516C4.2235 18.3281 4.89302 18.3203 5.56269 18.3281Z" fill="#8BC627"/>
<path fill-rule="evenodd" clip-rule="evenodd" d="M5.56269 18.3281C10.1558 18.3203 14.7489 18.3281 19.3421 18.3516C19.579 18.4175 19.7425 18.5659 19.8325 18.7969C19.8559 19.6249 19.8637 20.453 19.8559 21.2812C19.7781 21.4926 19.638 21.6567 19.4355 21.7734C19.0646 21.8354 18.691 21.8588 18.3144 21.8438C18.3093 21.8148 18.2937 21.7914 18.2677 21.7734C14.0483 21.75 9.82888 21.7422 5.6094 21.75C5.36236 21.666 5.19887 21.4941 5.11895 21.2344C5.09564 20.9535 5.08784 20.6723 5.0956 20.3906C5.31415 20.3984 5.5321 20.3906 5.74953 20.3672C5.97916 20.2505 6.04142 20.0708 5.93637 19.8281C5.88195 19.7773 5.81969 19.7383 5.74953 19.7109C5.5321 19.6875 5.31415 19.6797 5.0956 19.6875C5.07766 19.3552 5.10102 19.0271 5.16566 18.7031C5.26254 18.5355 5.39487 18.4104 5.56269 18.3281Z" fill="#96D629"/>
<path fill-rule="evenodd" clip-rule="evenodd" d="M10.5606 19.2188C10.5233 19.321 10.4532 19.3992 10.3504 19.4531C10.1394 19.7256 10.0927 20.0225 10.2103 20.3438C10.3055 20.5364 10.4223 20.7082 10.5606 20.8594C10.0487 21.0007 9.65951 20.8445 9.39289 20.3906C9.33062 20.1562 9.33062 19.9219 9.39289 19.6875C9.65203 19.2203 10.0413 19.0641 10.5606 19.2188Z" fill="#837AC0"/>
<path fill-rule="evenodd" clip-rule="evenodd" d="M10.5606 19.2188C10.7927 19.3111 10.964 19.4674 11.0744 19.6875C11.1337 19.9212 11.1337 20.1556 11.0744 20.3906C10.964 20.6108 10.7927 20.767 10.5606 20.8594C10.4223 20.7082 10.3055 20.5364 10.2103 20.3438C10.0927 20.0225 10.1394 19.7256 10.3504 19.4531C10.4532 19.3992 10.5233 19.321 10.5606 19.2188Z" fill="#978ECA"/>
<path fill-rule="evenodd" clip-rule="evenodd" d="M5.0956 19.6875C5.31415 19.6797 5.5321 19.6875 5.74953 19.7109C5.81969 19.7383 5.88195 19.7773 5.93637 19.8281C6.04142 20.0708 5.97916 20.2505 5.74953 20.3672C5.5321 20.3906 5.31415 20.3984 5.0956 20.3906C4.83047 20.3984 4.56577 20.3906 4.30153 20.3672C4.05292 20.1462 4.05292 19.9275 4.30153 19.7109C4.56577 19.6875 4.83047 19.6797 5.0956 19.6875Z" fill="#FDFEFC"/>
<path fill-rule="evenodd" clip-rule="evenodd" d="M9.39289 19.6875C9.33062 19.9219 9.33062 20.1562 9.39289 20.3906C8.55197 20.3985 7.7112 20.3906 6.87057 20.3672C6.7367 20.3019 6.67443 20.1925 6.68373 20.0391C6.67359 19.8874 6.7359 19.7781 6.87057 19.7109C7.7112 19.6875 8.55197 19.6797 9.39289 19.6875Z" fill="#FDFEFC"/>
<path fill-rule="evenodd" clip-rule="evenodd" d="M11.0744 19.6875C13.5968 19.6797 16.1191 19.6875 18.6414 19.7109C18.8584 19.8059 18.9284 19.9699 18.8516 20.2031C18.7949 20.2757 18.7248 20.3304 18.6414 20.3672C16.1191 20.3906 13.5968 20.3985 11.0744 20.3906C11.1337 20.1556 11.1337 19.9212 11.0744 19.6875Z" fill="#FEFEFD"/>
<path fill-rule="evenodd" clip-rule="evenodd" d="M5.6094 21.75C9.82888 21.7422 14.0483 21.75 18.2677 21.7734C18.2937 21.7914 18.3093 21.8148 18.3144 21.8438C16.6814 22.9943 14.8753 23.7131 12.8961 24C11.9619 24 11.0277 24 10.0935 24C8.14429 23.7256 6.36932 23.0146 4.76863 21.8672C4.40224 21.8592 4.04412 21.8357 3.69431 21.7969C4.33278 21.7855 4.97116 21.7699 5.6094 21.75Z" fill="#F9E1BE"/>
</g>
</svg>
