<svg width="24" height="24" viewBox="0 0 24 24" fill="none" xmlns="http://www.w3.org/2000/svg">
<path d="M24 12C24 18.6274 18.6274 24 12 24C5.37258 24 0 18.6274 0 12C0 5.37258 5.37258 0 12 0C18.6274 0 24 5.37258 24 12ZM6.08588 12C6.08588 15.2663 8.73372 17.9141 12 17.9141C15.2663 17.9141 17.9141 15.2663 17.9141 12C17.9141 8.73372 15.2663 6.08588 12 6.08588C8.73372 6.08588 6.08588 8.73372 6.08588 12Z" fill="#C4D8F7"/>
<mask id="path-2-inside-1_1192_489" fill="white">
<path fill-rule="evenodd" clip-rule="evenodd" d="M12 21C13.1819 21 14.3522 20.7672 15.4442 20.3149C16.5361 19.8626 17.5282 19.1997 18.364 18.364C19.1997 17.5282 19.8626 16.5361 20.3149 15.4442C20.7672 14.3522 21 13.1819 21 12C21 10.8181 20.7672 9.64778 20.3149 8.55585C19.8626 7.46392 19.1997 6.47177 18.364 5.63604C17.5282 4.80031 16.5361 4.13738 15.4442 3.68508C14.3522 3.23279 13.1819 3 12 3C9.61305 3 7.32387 3.94821 5.63604 5.63604C3.94821 7.32387 3 9.61305 3 12C3 14.3869 3.94821 16.6761 5.63604 18.364C7.32387 20.0518 9.61305 21 12 21ZM11.768 15.64L16.768 9.64L15.232 8.36L10.932 13.519L8.707 11.293L7.293 12.707L10.293 15.707L11.067 16.481L11.768 15.64Z"/>
</mask>
<path fill-rule="evenodd" clip-rule="evenodd" d="M12 21C13.1819 21 14.3522 20.7672 15.4442 20.3149C16.5361 19.8626 17.5282 19.1997 18.364 18.364C19.1997 17.5282 19.8626 16.5361 20.3149 15.4442C20.7672 14.3522 21 13.1819 21 12C21 10.8181 20.7672 9.64778 20.3149 8.55585C19.8626 7.46392 19.1997 6.47177 18.364 5.63604C17.5282 4.80031 16.5361 4.13738 15.4442 3.68508C14.3522 3.23279 13.1819 3 12 3C9.61305 3 7.32387 3.94821 5.63604 5.63604C3.94821 7.32387 3 9.61305 3 12C3 14.3869 3.94821 16.6761 5.63604 18.364C7.32387 20.0518 9.61305 21 12 21ZM11.768 15.64L16.768 9.64L15.232 8.36L10.932 13.519L8.707 11.293L7.293 12.707L10.293 15.707L11.067 16.481L11.768 15.64Z" fill="#4082E6"/>
<path d="M12 21L12 57.8L12 21ZM12 3L12 -33.8L12 3ZM11.768 15.64L40.0358 39.2021L40.0385 39.1988L11.768 15.64ZM16.768 9.64L45.0385 33.1988L68.5973 4.92826L40.3268 -18.6305L16.768 9.64ZM15.232 8.36L38.7908 -19.9105L10.5229 -43.4671L-13.0363 -15.2015L15.232 8.36ZM10.932 13.519L-15.0954 39.5347L13.3964 68.0392L39.2003 37.0805L10.932 13.519ZM8.707 11.293L34.7344 -14.7227L8.71284 -40.7559L-17.3145 -14.7285L8.707 11.293ZM7.293 12.707L-18.7285 -13.3145L-44.7501 12.707L-18.7285 38.7285L7.293 12.707ZM10.293 15.707L36.3145 -10.3145L36.3145 -10.3145L10.293 15.707ZM11.067 16.481L-14.9545 42.5025L13.5366 70.9937L39.3348 40.0431L11.067 16.481ZM12 57.8C18.0145 57.8 23.9702 56.6154 29.5269 54.3137L1.3614 -13.6838C4.73427 -15.0809 8.34927 -15.8 12 -15.8L12 57.8ZM29.5269 54.3137C35.0836 52.012 40.1326 48.6384 44.3855 44.3855L-7.65757 -7.65757C-5.07613 -10.239 -2.01148 -12.2868 1.3614 -13.6838L29.5269 54.3137ZM44.3855 44.3855C48.6384 40.1326 52.012 35.0836 54.3137 29.5269L-13.6838 1.3614C-12.2868 -2.01148 -10.239 -5.07613 -7.65757 -7.65757L44.3855 44.3855ZM54.3137 29.5269C56.6154 23.9702 57.8 18.0145 57.8 12H-15.8C-15.8 8.34927 -15.0809 4.73427 -13.6838 1.3614L54.3137 29.5269ZM57.8 12C57.8 5.98548 56.6154 0.029827 54.3137 -5.5269L-13.6838 22.6386C-15.0809 19.2657 -15.8 15.6507 -15.8 12H57.8ZM54.3137 -5.5269C52.012 -11.0836 48.6384 -16.1326 44.3855 -20.3855L-7.65757 31.6576C-10.239 29.0761 -12.2868 26.0115 -13.6838 22.6386L54.3137 -5.5269ZM44.3855 -20.3855C40.1326 -24.6384 35.0836 -28.012 29.5269 -30.3137L1.3614 37.6839C-2.01146 36.2868 -5.07611 34.239 -7.65757 31.6576L44.3855 -20.3855ZM29.5269 -30.3137C23.9702 -32.6153 18.0145 -33.8 12 -33.8L12 39.8C8.34925 39.8 4.73425 39.0809 1.3614 37.6839L29.5269 -30.3137ZM12 -33.8C-0.146913 -33.8 -11.7963 -28.9747 -20.3855 -20.3855L31.6576 31.6576C26.4441 36.8711 19.373 39.8 12 39.8L12 -33.8ZM-20.3855 -20.3855C-28.9747 -11.7963 -33.8 -0.146915 -33.8 12L39.8 12C39.8 19.373 36.8711 26.4441 31.6576 31.6576L-20.3855 -20.3855ZM-33.8 12C-33.8 24.1469 -28.9747 35.7963 -20.3855 44.3855L31.6576 -7.65757C36.8711 -2.44406 39.8 4.62698 39.8 12L-33.8 12ZM-20.3855 44.3855C-11.7963 52.9746 -0.146923 57.8 12 57.8L12 -15.8C19.373 -15.8 26.4441 -12.8711 31.6576 -7.65757L-20.3855 44.3855ZM40.0385 39.1988L45.0385 33.1988L-11.5025 -13.9188L-16.5025 -7.91879L40.0385 39.1988ZM40.3268 -18.6305L38.7908 -19.9105L-8.3268 36.6305L-6.7908 37.9105L40.3268 -18.6305ZM-13.0363 -15.2015L-17.3363 -10.0425L39.2003 37.0805L43.5003 31.9215L-13.0363 -15.2015ZM36.9594 -12.4967L34.7344 -14.7227L-17.3204 37.3087L-15.0954 39.5347L36.9594 -12.4967ZM-17.3145 -14.7285L-18.7285 -13.3145L33.3145 38.7285L34.7285 37.3145L-17.3145 -14.7285ZM-18.7285 38.7285L-15.7285 41.7285L36.3145 -10.3145L33.3145 -13.3145L-18.7285 38.7285ZM-15.7285 41.7285L-14.9545 42.5025L37.0885 -9.54051L36.3145 -10.3145L-15.7285 41.7285ZM39.3348 40.0431L40.0358 39.2021L-16.4998 -7.92207L-17.2008 -7.08107L39.3348 40.0431Z" fill="#4082E6" mask="url(#path-2-inside-1_1192_489)"/>
</svg>
