<svg width="24" height="24" viewBox="0 0 24 24" fill="none" xmlns="http://www.w3.org/2000/svg">
<g clip-path="url(#clip0_1459_458)">
<path fill-rule="evenodd" clip-rule="evenodd" d="M1.89844 0.867188C5.25783 0.867188 8.61717 0.867188 11.9766 0.867188C11.9766 2.78906 11.9766 4.71094 11.9766 6.63281C10.086 6.63281 8.1953 6.63281 6.30469 6.63281C4.19531 6.63281 2.08594 6.63281 -0.0234375 6.63281C-0.0234375 5.17969 -0.0234375 3.72656 -0.0234375 2.27344C0.299627 1.38412 0.940252 0.915366 1.89844 0.867188Z" fill="#0D527B"/>
<path fill-rule="evenodd" clip-rule="evenodd" d="M1.89844 0.867169C8.64061 0.812508 15.3906 0.804694 22.1484 0.843731C23.054 0.944859 23.6633 1.42142 23.9766 2.27342C23.9766 3.72654 23.9766 5.17967 23.9766 6.63279C19.9766 6.63279 15.9765 6.63279 11.9766 6.63279C11.9766 4.71092 11.9766 2.78904 11.9766 0.867169C8.61717 0.867169 5.25783 0.867169 1.89844 0.867169Z" fill="#013A5E"/>
<path fill-rule="evenodd" clip-rule="evenodd" d="M2.83591 3.0703C3.55806 3.06532 3.8315 3.40908 3.65622 4.10155C3.34129 4.51265 2.96629 4.57515 2.53122 4.28905C2.17831 3.76583 2.27986 3.35958 2.83591 3.0703Z" fill="#FADE4E"/>
<path fill-rule="evenodd" clip-rule="evenodd" d="M5.64843 3.07029C6.36843 3.06343 6.6419 3.40718 6.46874 4.10154C6.15543 4.51968 5.78043 4.58218 5.34374 4.28904C4.99096 3.76506 5.09254 3.35882 5.64843 3.07029Z" fill="#B9DF3A"/>
<path fill-rule="evenodd" clip-rule="evenodd" d="M20.7422 3.07031C21.4858 3.09 21.7436 3.44937 21.5156 4.14844C21.1999 4.51943 20.8405 4.5663 20.4375 4.28906C20.0857 3.7597 20.1873 3.35345 20.7422 3.07031Z" fill="#C874F3"/>
<path fill-rule="evenodd" clip-rule="evenodd" d="M-0.0234375 6.63281C2.08594 6.63281 4.19531 6.63281 6.30469 6.63281C6.30469 12.1328 6.30469 17.6328 6.30469 23.1328C4.69383 23.154 3.08447 23.1305 1.47656 23.0625C0.741694 22.8509 0.241692 22.3899 -0.0234375 21.6797C-0.0234375 16.6641 -0.0234375 11.6484 -0.0234375 6.63281Z" fill="#A7EAF9"/>
<path fill-rule="evenodd" clip-rule="evenodd" d="M6.30469 6.63281C8.1953 6.63281 10.086 6.63281 11.9766 6.63281C11.9766 7.85156 11.9766 9.07031 11.9766 10.2891C11.4682 10.2737 10.9681 10.2893 10.4766 10.3359C10.1978 10.3858 10.0025 10.542 9.89062 10.8047C9.84516 11.917 9.86081 13.0264 9.9375 14.1328C10.0316 14.3247 10.18 14.4575 10.3828 14.5312C10.9138 14.5547 11.4451 14.5625 11.9766 14.5547C11.9766 15.039 11.9766 15.5235 11.9766 16.0078C10.1511 15.6068 9.44794 16.3177 9.86719 18.1406C9.44794 19.9635 10.1511 20.6745 11.9766 20.2734C11.9766 21.1953 11.9766 22.1172 11.9766 23.0391C15.3907 23.0235 18.797 23.0391 22.1953 23.0859C16.9017 23.1327 11.6048 23.1483 6.30469 23.1328C6.30469 17.6328 6.30469 12.1328 6.30469 6.63281Z" fill="#EEF5FD"/>
<path fill-rule="evenodd" clip-rule="evenodd" d="M11.9766 6.63281C15.9765 6.63281 19.9766 6.63281 23.9766 6.63281C23.9766 11.664 23.9766 16.6953 23.9766 21.7266C23.6535 22.534 23.0597 22.9871 22.1953 23.0859C18.797 23.0391 15.3907 23.0235 11.9766 23.0391C11.9766 22.1172 11.9766 21.1953 11.9766 20.2734C12.5006 20.2888 13.0162 20.2732 13.5234 20.2266C13.8004 20.1606 13.9801 19.9887 14.0625 19.7109C14.0938 18.6484 14.0938 17.586 14.0625 16.5234C13.9564 16.2531 13.7611 16.0968 13.4766 16.0547C12.985 16.0081 12.485 15.9924 11.9766 16.0078C11.9766 15.5235 11.9766 15.039 11.9766 14.5547C12.508 14.5625 13.0393 14.5547 13.5703 14.5312C13.8293 14.4597 13.9934 14.2957 14.0625 14.0391C14.0938 12.9609 14.0938 11.8828 14.0625 10.8047C13.9722 10.5737 13.8081 10.4253 13.5703 10.3594C13.0393 10.3359 12.508 10.3281 11.9766 10.3359C11.4765 10.3359 10.9766 10.3359 10.4766 10.3359C10.9681 10.2893 11.4682 10.2737 11.9766 10.2891C11.9766 9.07031 11.9766 7.85156 11.9766 6.63281Z" fill="#DEE6F3"/>
<path fill-rule="evenodd" clip-rule="evenodd" d="M17.9297 9.25779C18.1599 9.2373 18.3787 9.27635 18.5859 9.37498C19.3125 10.1015 20.0391 10.8281 20.7656 11.5547C20.9411 11.8733 20.9099 12.1702 20.6719 12.4453C20.0078 13.1094 19.3438 13.7734 18.6797 14.4375C18.376 14.6915 18.0635 14.7071 17.7422 14.4844C17.0312 13.7734 16.3203 13.0625 15.6094 12.3515C15.4429 12.0434 15.4585 11.7466 15.6562 11.4609C16.3949 10.6987 17.1527 9.96434 17.9297 9.25779Z" fill="#FE9103"/>
<path fill-rule="evenodd" clip-rule="evenodd" d="M10.4765 10.3359C10.9766 10.3359 11.4765 10.3359 11.9765 10.3359C11.9765 11.7422 11.9765 13.1484 11.9765 14.5547C11.4451 14.5625 10.9138 14.5547 10.3828 14.5313C10.18 14.4575 10.0316 14.3247 9.93748 14.1328C9.86079 13.0264 9.84514 11.917 9.89061 10.8047C10.0024 10.542 10.1978 10.3858 10.4765 10.3359Z" fill="#4793FE"/>
<path fill-rule="evenodd" clip-rule="evenodd" d="M11.9766 10.3359C12.508 10.3281 13.0393 10.3359 13.5703 10.3594C13.8081 10.4253 13.9722 10.5737 14.0625 10.8047C14.0938 11.8828 14.0938 12.9609 14.0625 14.0391C13.9934 14.2957 13.8293 14.4597 13.5703 14.5313C13.0393 14.5547 12.508 14.5625 11.9766 14.5547C11.9766 13.1484 11.9766 11.7422 11.9766 10.3359Z" fill="#525CDD"/>
<path fill-rule="evenodd" clip-rule="evenodd" d="M2.9297 10.8516C3.71217 10.8702 3.96998 11.2452 3.70314 11.9766C3.42567 12.2752 3.10536 12.3299 2.7422 12.1406C2.47899 11.9078 2.39306 11.6187 2.48439 11.2734C2.59716 11.0903 2.74559 10.9496 2.9297 10.8516Z" fill="#4894FE"/>
<path fill-rule="evenodd" clip-rule="evenodd" d="M2.9297 13.6641C3.71217 13.6827 3.96998 14.0577 3.70314 14.7891C3.42567 15.0877 3.10536 15.1424 2.7422 14.9531C2.47899 14.7203 2.39306 14.4312 2.48439 14.0859C2.59716 13.9028 2.74559 13.7621 2.9297 13.6641Z" fill="#4894FE"/>
<path fill-rule="evenodd" clip-rule="evenodd" d="M11.9766 16.0078C12.485 15.9925 12.985 16.0081 13.4766 16.0547C12.9766 16.0547 12.4766 16.0547 11.9766 16.0547C11.9766 17.4454 11.9766 18.8359 11.9766 20.2266C12.4922 20.2266 13.0078 20.2266 13.5235 20.2266C13.0162 20.2732 12.5006 20.2888 11.9766 20.2735C10.1511 20.6745 9.44796 19.9636 9.86721 18.1407C9.44796 16.3177 10.1511 15.6068 11.9766 16.0078Z" fill="#4A93FE"/>
<path fill-rule="evenodd" clip-rule="evenodd" d="M13.4766 16.0547C13.7611 16.0968 13.9564 16.2531 14.0625 16.5234C14.0938 17.586 14.0938 18.6484 14.0625 19.7109C13.9801 19.9887 13.8004 20.1606 13.5234 20.2266C13.0078 20.2266 12.4922 20.2266 11.9766 20.2266C11.9766 18.8359 11.9766 17.4453 11.9766 16.0547C12.4766 16.0547 12.9765 16.0547 13.4766 16.0547Z" fill="#525CDD"/>
<path fill-rule="evenodd" clip-rule="evenodd" d="M15.9141 16.0547C17.0079 16.0469 18.1017 16.0547 19.1953 16.0781C19.4531 16.1484 19.6172 16.3125 19.6875 16.5703C19.7188 17.6016 19.7188 18.6328 19.6875 19.6641C19.6236 19.9625 19.4439 20.1578 19.1484 20.25C18.1172 20.2813 17.0859 20.2813 16.0547 20.25C15.7813 20.1641 15.6016 19.9844 15.5156 19.7109C15.4844 18.6484 15.4844 17.586 15.5156 16.5234C15.6084 16.3295 15.7412 16.1732 15.9141 16.0547Z" fill="#525CDD"/>
<path fill-rule="evenodd" clip-rule="evenodd" d="M2.9297 16.4766C3.71217 16.4952 3.96998 16.8702 3.70314 17.6016C3.42567 17.9002 3.10536 17.9549 2.7422 17.7656C2.47899 17.5328 2.39306 17.2437 2.48439 16.8984C2.59716 16.7153 2.74559 16.5746 2.9297 16.4766Z" fill="#4894FE"/>
</g>
<defs>
<clipPath id="clip0_1459_458">
<rect width="24" height="24" fill="white"/>
</clipPath>
</defs>
</svg>
