<svg width="24" height="24" viewBox="0 0 24 24" fill="none" xmlns="http://www.w3.org/2000/svg">
<g clip-path="url(#clip0_1460_560)">
<path opacity="0.842" fill-rule="evenodd" clip-rule="evenodd" d="M8.92969 1.10158C8.985 1.21469 9.07875 1.26156 9.21094 1.2422C9.55828 1.36954 9.90202 1.49454 10.2422 1.6172C8.49736 3.06469 6.77864 4.54906 5.08594 6.07033C4.93533 6.0558 4.7947 6.07141 4.66406 6.1172C4.52682 6.16834 4.42526 6.26209 4.35938 6.39845C4.33597 6.63231 4.32816 6.86669 4.33594 7.10158C3.99183 7.0938 3.64808 7.10158 3.30469 7.12502C3.04949 7.20114 2.88542 7.3652 2.8125 7.6172C2.78906 10.3828 2.78125 13.1484 2.78906 15.9141C2.78906 16.4141 2.78906 16.9141 2.78906 17.4141C2.74234 16.5941 2.72671 15.766 2.74219 14.9297C2.75781 12.6639 2.74218 10.3983 2.69531 8.13283C2.01919 8.73138 1.34732 9.32514 0.679688 9.91408C0.496687 9.52183 0.340439 9.11556 0.210938 8.69533C0.217291 8.55231 0.201666 8.41169 0.164062 8.27345C0.152477 8.21659 0.121227 8.18533 0.0703125 8.1797C0.0446177 8.08005 0.0133677 7.9863 -0.0234375 7.89845C-0.0234375 7.19533 -0.0234375 6.4922 -0.0234375 5.78908C0.179922 4.72474 0.617423 3.77162 1.28906 2.9297C1.35498 2.90753 1.38623 2.86065 1.38281 2.78908C1.45025 2.70188 1.52837 2.62375 1.61719 2.5547C1.75781 2.44533 1.88281 2.32033 1.99219 2.1797C2.04278 2.08394 2.12091 2.02144 2.22656 1.9922C2.28906 1.96095 2.33594 1.91408 2.36719 1.85158C2.55631 1.69421 2.75943 1.55358 2.97656 1.4297C3.04814 1.43313 3.09501 1.40187 3.11719 1.33595C5.01553 0.305066 6.95306 0.226941 8.92969 1.10158Z" fill="#FCB7B7"/>
<path opacity="0.701" fill-rule="evenodd" clip-rule="evenodd" d="M18.9141 0.632839C18.8086 0.617904 18.7148 0.641342 18.6328 0.703151C18.7318 0.770872 18.8333 0.763062 18.9375 0.679714C19.0082 0.707356 19.0785 0.738608 19.1484 0.773464C17.8222 1.93707 16.4941 3.10113 15.1641 4.26565C15.2603 4.28087 15.354 4.26524 15.4453 4.21878C16.7196 3.09285 18.0009 1.97566 19.2891 0.867214C19.3269 0.881633 19.3582 0.90507 19.3828 0.937526C18.1172 2.0469 16.8516 3.15627 15.5859 4.26565C15.808 4.27089 16.0267 4.2787 16.2422 4.28909C16.539 4.03909 16.836 3.78909 17.1328 3.53909C17.1484 3.5469 17.1641 3.55471 17.1797 3.56253C16.8892 3.81406 16.608 4.07187 16.3359 4.33596C15.3045 4.32815 14.2733 4.33596 13.2422 4.3594C13.1875 4.38284 13.1484 4.4219 13.125 4.47659C13.1016 4.88253 13.0938 5.28879 13.1016 5.69534C13.1016 5.83596 13.1016 5.97659 13.1016 6.11721C13.086 6.11721 13.0703 6.11721 13.0547 6.11721C12.5342 6.18378 12.1748 6.46503 11.9766 6.96096C11.7783 6.46503 11.4189 6.18378 10.8984 6.11721C8.96892 6.07039 7.03139 6.05478 5.08594 6.07034C6.77864 4.54907 8.49736 3.0647 10.2422 1.61721C11.4157 1.9352 12.5876 1.92739 13.7578 1.59378C14.3519 1.39829 14.93 1.16392 15.4922 0.890651C16.6155 0.476164 17.7561 0.390227 18.9141 0.632839Z" fill="#FDBDBD"/>
<path opacity="0.548" fill-rule="evenodd" clip-rule="evenodd" d="M18.9141 0.632838C20.7033 1.00204 22.0783 1.95516 23.0391 3.49221C23.0789 3.61105 23.1257 3.72823 23.1797 3.84378C23.1515 3.91901 23.1046 3.98151 23.0391 4.03128C23.1092 4.05506 23.1639 4.03162 23.2031 3.96096C23.2344 3.99222 23.2344 4.02346 23.2031 4.05471C22.6953 4.50003 22.1875 4.94534 21.6797 5.39065C21.5684 5.42548 21.4747 5.40204 21.3984 5.32034C21.3668 5.10232 21.2418 5.03201 21.0234 5.1094C20.9401 5.20948 20.9088 5.32667 20.9297 5.46096C20.6486 5.40626 20.5314 5.51562 20.5781 5.78909C20.5958 5.85668 20.6348 5.90356 20.6953 5.92971C20.7149 5.96356 20.7461 5.98699 20.7891 6.00003C20.408 6.30284 20.0408 6.62318 19.6875 6.96096C19.6788 6.84209 19.6553 6.73273 19.6172 6.63284C19.6337 6.35314 19.5087 6.18124 19.2422 6.11721C19.0013 6.0709 18.7512 6.05529 18.4922 6.07034C18.4922 5.94532 18.4922 5.82035 18.4922 5.69534C18.5071 5.2617 18.4915 4.83204 18.4453 4.40628C17.7467 4.33749 17.0436 4.31405 16.3359 4.33596C16.608 4.07187 16.8892 3.81406 17.1797 3.56253C17.1641 3.55471 17.1484 3.5469 17.1328 3.53909C16.836 3.78909 16.539 4.03909 16.2422 4.28909C16.0267 4.2787 15.808 4.27089 15.5859 4.26565C16.8516 3.15627 18.1172 2.0469 19.3828 0.937526C19.3582 0.90507 19.3269 0.881632 19.2891 0.867213C18.0009 1.97566 16.7196 3.09285 15.4453 4.21878C15.354 4.26524 15.2603 4.28087 15.1641 4.26565C16.4941 3.10113 17.8222 1.93706 19.1484 0.773463C19.0785 0.738607 19.0082 0.707356 18.9375 0.679713C18.8333 0.763062 18.7318 0.770871 18.6328 0.703151C18.7148 0.641341 18.8086 0.617904 18.9141 0.632838Z" fill="#FDC3C3"/>
<path opacity="0.788" fill-rule="evenodd" clip-rule="evenodd" d="M8.92969 1.10156C9.03839 1.12465 9.13214 1.17152 9.21094 1.24219C9.07875 1.26155 8.985 1.21467 8.92969 1.10156Z" fill="#796060"/>
<path opacity="0.035" fill-rule="evenodd" clip-rule="evenodd" d="M3.11719 1.33595C3.09501 1.40187 3.04814 1.43312 2.97656 1.4297C2.99874 1.36378 3.04561 1.33252 3.11719 1.33595Z" fill="#261A1A"/>
<path opacity="0.024" fill-rule="evenodd" clip-rule="evenodd" d="M2.36719 1.85156C2.33594 1.91406 2.28906 1.96094 2.22656 1.99219C2.22656 1.89844 2.27344 1.85156 2.36719 1.85156Z" fill="#241F1F"/>
<path opacity="0.998" fill-rule="evenodd" clip-rule="evenodd" d="M13.3828 2.08594C13.6242 2.09302 13.7335 2.21802 13.7109 2.46094C14.0532 2.46573 14.147 2.61417 13.9922 2.90625C13.8997 2.92948 13.8059 2.93729 13.7109 2.92969C13.7303 3.30423 13.5819 3.39798 13.2656 3.21094C13.2424 3.11847 13.2346 3.02472 13.2422 2.92969C12.8495 2.94027 12.7714 2.79183 13.0078 2.48438C13.0844 2.46124 13.1625 2.45343 13.2422 2.46094C13.2195 2.3068 13.2664 2.18181 13.3828 2.08594Z" fill="#FF6E6E"/>
<path opacity="0.031" fill-rule="evenodd" clip-rule="evenodd" d="M1.99219 2.17969C1.88281 2.32031 1.75781 2.44531 1.61719 2.55469C1.69531 2.38281 1.82031 2.25781 1.99219 2.17969Z" fill="#271C1B"/>
<path opacity="0.031" fill-rule="evenodd" clip-rule="evenodd" d="M1.38282 2.78906C1.38624 2.86064 1.35499 2.90751 1.28907 2.92969C1.28565 2.85811 1.3169 2.81124 1.38282 2.78906Z" fill="#1C1C1C"/>
<path opacity="0.999" fill-rule="evenodd" clip-rule="evenodd" d="M11.5078 3.25781C11.6088 3.25181 11.7026 3.27525 11.7891 3.32813C11.9219 3.46094 12.0547 3.59375 12.1875 3.72656C12.2422 4.01563 12.125 4.13282 11.8359 4.07813C11.7648 3.99914 11.6867 3.92883 11.6016 3.86719C11.5144 3.94652 11.4207 4.01683 11.3203 4.07813C11.0184 4.09212 10.9325 3.95931 11.0625 3.67969C11.206 3.52818 11.3545 3.38755 11.5078 3.25781Z" fill="#FF9E39"/>
<path fill-rule="evenodd" clip-rule="evenodd" d="M16.3359 4.33594C17.0436 4.31403 17.7467 4.33747 18.4453 4.40625C18.4915 4.83202 18.5071 5.26168 18.4922 5.69532C16.6953 5.69532 14.8984 5.69532 13.1015 5.69532C13.0938 5.28877 13.1015 4.8825 13.125 4.47657C13.1484 4.42188 13.1875 4.38282 13.2422 4.35938C14.2733 4.33594 15.3045 4.32813 16.3359 4.33594Z" fill="#FFC498"/>
<path opacity="0.383" fill-rule="evenodd" clip-rule="evenodd" d="M23.0391 3.49219C23.3098 3.86165 23.5208 4.26789 23.6719 4.71094C23.7894 5.08791 23.891 5.46291 23.9766 5.83594C23.9766 6.52345 23.9766 7.21092 23.9766 7.89844C23.9003 8.15634 23.83 8.42194 23.7656 8.69531C23.5361 9.24816 23.333 9.81066 23.1562 10.3828C23.0697 10.7932 22.9994 11.1994 22.9453 11.6016C22.953 11.4601 22.9452 11.3195 22.9219 11.1797C22.9025 11.3078 22.8713 11.4328 22.8281 11.5547C22.3116 12.0165 21.7882 12.4697 21.2578 12.9141C21.2265 14.4061 21.1953 15.8905 21.1641 17.3672C21.1641 16.8828 21.1641 16.3984 21.1641 15.9141C21.1719 13.1328 21.1641 10.3515 21.1406 7.57031C21.0515 7.34062 20.8874 7.19217 20.6484 7.125C20.305 7.10156 19.9613 7.09378 19.6172 7.10156C19.6172 6.94533 19.6172 6.78905 19.6172 6.63281C19.6553 6.7327 19.6788 6.84206 19.6875 6.96094C20.0408 6.62316 20.408 6.30281 20.7891 6C20.7461 5.98697 20.7149 5.96353 20.6953 5.92969C20.7735 5.92969 20.8515 5.92969 20.9297 5.92969C20.9103 6.30422 21.0587 6.39797 21.375 6.21094C21.3982 6.11845 21.406 6.0247 21.3984 5.92969C21.7728 5.95322 21.8665 5.80477 21.6797 5.48438C21.5872 5.46117 21.4935 5.45334 21.3984 5.46094C21.3984 5.41406 21.3984 5.36719 21.3984 5.32031C21.4747 5.40202 21.5684 5.42545 21.6797 5.39062C22.1875 4.94531 22.6953 4.5 23.2031 4.05469C23.2344 4.02344 23.2344 3.99219 23.2031 3.96094C23.1639 4.0316 23.1092 4.05503 23.0391 4.03125C23.1046 3.98149 23.1515 3.91898 23.1797 3.84375C23.1257 3.72821 23.0789 3.61102 23.0391 3.49219Z" fill="#FBC7C6"/>
<path fill-rule="evenodd" clip-rule="evenodd" d="M13.9453 4.99219C14.1794 5.01548 14.2262 5.11706 14.0859 5.29688C13.8351 5.30508 13.7882 5.20355 13.9453 4.99219Z" fill="#FF736F"/>
<path fill-rule="evenodd" clip-rule="evenodd" d="M14.4609 4.99219C14.695 5.01548 14.7419 5.11706 14.6016 5.29688C14.3625 5.29158 14.3156 5.19005 14.4609 4.99219Z" fill="#FF716E"/>
<path fill-rule="evenodd" clip-rule="evenodd" d="M14.9766 4.99219C15.1864 5.00625 15.2489 5.10783 15.1641 5.29688C14.894 5.31647 14.8315 5.21489 14.9766 4.99219Z" fill="#FF736F"/>
<path opacity="0.999" fill-rule="evenodd" clip-rule="evenodd" d="M21.3985 5.32033C21.3985 5.3672 21.3985 5.41408 21.3985 5.46095C21.4935 5.45336 21.5872 5.46119 21.6797 5.48439C21.8666 5.80478 21.7728 5.95324 21.3985 5.9297C21.4061 6.02472 21.3982 6.11847 21.375 6.21095C21.0588 6.39799 20.9103 6.30424 20.9297 5.9297C20.8516 5.9297 20.7735 5.9297 20.6953 5.9297C20.6349 5.90355 20.5958 5.85667 20.5782 5.78908C20.5315 5.51561 20.6487 5.40625 20.9297 5.46095C20.9089 5.32666 20.9401 5.20947 21.0235 5.10939C21.2419 5.032 21.3669 5.10231 21.3985 5.32033Z" fill="#8684FD"/>
<path fill-rule="evenodd" clip-rule="evenodd" d="M13.1016 5.69531C14.8984 5.69531 16.6953 5.69531 18.4922 5.69531C18.4922 5.82033 18.4922 5.9453 18.4922 6.07031C18.4922 7.0703 18.4922 8.07033 18.4922 9.07031C18.4543 9.11573 18.4074 9.15478 18.3516 9.1875C16.6485 9.21877 14.9453 9.21877 13.2422 9.1875C13.1864 9.15478 13.1395 9.11573 13.1016 9.07031C13.1016 8.08594 13.1016 7.10156 13.1016 6.11719C13.1016 5.97656 13.1016 5.83594 13.1016 5.69531Z" fill="#FF6B6B"/>
<path fill-rule="evenodd" clip-rule="evenodd" d="M4.66404 6.11717C4.86776 6.10939 5.07087 6.11721 5.27342 6.14061C5.17137 6.21078 5.10889 6.30453 5.08592 6.42186C5.14995 6.59586 5.23587 6.75992 5.34373 6.91404C5.44723 7.52918 5.18942 7.81821 4.57029 7.78123C4.47881 7.76407 4.40068 7.72503 4.33592 7.66404C4.33592 7.47654 4.33592 7.28904 4.33592 7.10154C4.32814 6.86665 4.33595 6.63228 4.35936 6.39842C4.42524 6.26206 4.5268 6.16831 4.66404 6.11717Z" fill="#EBEAFD"/>
<path fill-rule="evenodd" clip-rule="evenodd" d="M4.66406 6.11722C4.7947 6.07142 4.93533 6.05581 5.08594 6.07034C7.03139 6.05478 8.96892 6.07039 10.8984 6.11722C10.0547 6.11722 9.21094 6.11722 8.36719 6.11722C7.96064 6.10943 7.55437 6.11722 7.14844 6.14065C7.54542 6.43348 7.68605 6.81626 7.57031 7.28909C7.39941 7.33418 7.3447 7.44354 7.40625 7.61722C7.45917 7.69414 7.52948 7.74101 7.61719 7.75784C7.61719 7.80472 7.61719 7.85159 7.61719 7.89847C6.63394 7.99348 5.69644 8.25129 4.80469 8.6719C4.64129 8.76547 4.48504 8.86704 4.33594 8.97659C4.33594 8.53911 4.33594 8.10158 4.33594 7.66409C4.4007 7.72508 4.47883 7.76412 4.57031 7.78128C5.18944 7.81826 5.44725 7.52923 5.34375 6.91409C5.23589 6.75997 5.14997 6.5959 5.08594 6.4219C5.10891 6.30457 5.17139 6.21082 5.27344 6.14065C5.07089 6.11726 4.86778 6.10943 4.66406 6.11722Z" fill="#FEFAFB"/>
<path fill-rule="evenodd" clip-rule="evenodd" d="M8.36719 6.11717C8.61919 6.4491 8.71294 6.8241 8.64844 7.24217C9.32859 7.22675 10.0005 7.24236 10.6641 7.28905C9.63281 7.28905 8.60156 7.28905 7.57031 7.28905C7.68605 6.81622 7.54542 6.43344 7.14844 6.14061C7.55437 6.11717 7.96064 6.10939 8.36719 6.11717Z" fill="#E9E9FE"/>
<path opacity="0.999" fill-rule="evenodd" clip-rule="evenodd" d="M8.36719 6.11719C9.21094 6.11719 10.0547 6.11719 10.8984 6.11719C11.4189 6.18375 11.7783 6.465 11.9766 6.96094C12.1748 6.465 12.5342 6.18375 13.0547 6.11719C13.0625 6.78923 13.0547 7.46114 13.0313 8.13281C11.5808 8.03962 10.1198 8.00836 8.64844 8.03906C8.64844 7.94531 8.64844 7.85156 8.64844 7.75781C9.33609 7.76564 10.0236 7.75781 10.7109 7.73438C10.9103 7.55348 10.8947 7.40503 10.6641 7.28906C10.0005 7.24238 9.32859 7.22677 8.64844 7.24219C8.71294 6.82411 8.61919 6.44911 8.36719 6.11719Z" fill="#FEFDFD"/>
<path opacity="0.999" fill-rule="evenodd" clip-rule="evenodd" d="M19.2422 6.11719C19.5087 6.18122 19.6337 6.35311 19.6172 6.63281C19.6172 6.78905 19.6172 6.94533 19.6172 7.10156C19.5783 7.43695 19.5549 7.78073 19.5469 8.13281C19.3953 8.07253 19.2313 8.04127 19.0547 8.03906C18.8781 8.04127 18.7141 8.07253 18.5625 8.13281C18.5391 7.46114 18.5312 6.78923 18.5391 6.11719C18.7734 6.11719 19.0078 6.11719 19.2422 6.11719Z" fill="#FFFDFD"/>
<path fill-rule="evenodd" clip-rule="evenodd" d="M15.2109 6.58594C15.6356 6.73186 16.034 6.93502 16.4062 7.19531C16.4375 7.24219 16.4375 7.28906 16.4062 7.33594C16.0821 7.56445 15.7462 7.77539 15.3984 7.96875C15.3307 8.00536 15.2682 7.99753 15.2109 7.94531C15.1485 7.49081 15.1485 7.03767 15.2109 6.58594Z" fill="#FFFAFA"/>
<path fill-rule="evenodd" clip-rule="evenodd" d="M7.57034 7.28906C8.60159 7.28906 9.63284 7.28906 10.6641 7.28906C10.8947 7.40503 10.9103 7.55348 10.711 7.73438C10.0236 7.75781 9.33612 7.76564 8.64846 7.75781C8.30473 7.75781 7.96095 7.75781 7.61721 7.75781C7.52951 7.74098 7.4592 7.69411 7.40628 7.61719C7.34473 7.44352 7.39943 7.33416 7.57034 7.28906Z" fill="#8784FC"/>
<path fill-rule="evenodd" clip-rule="evenodd" d="M4.33594 7.10155C4.33594 7.28905 4.33594 7.47655 4.33594 7.66405C4.33594 8.10153 4.33594 8.53906 4.33594 8.97655C4.33594 9.08591 4.33594 9.19531 4.33594 9.30467C4.33594 9.96092 4.33594 10.6172 4.33594 11.2734C4.33594 11.3828 4.33594 11.4922 4.33594 11.6015C4.33594 11.8828 4.33594 12.164 4.33594 12.4453C4.33594 13.0547 4.33594 13.664 4.33594 14.2734C4.33594 14.6953 4.33594 15.1172 4.33594 15.539C4.33594 15.6641 4.33594 15.789 4.33594 15.914C3.82031 15.914 3.30469 15.914 2.78906 15.914C2.78125 13.1484 2.78906 10.3828 2.8125 7.61717C2.88542 7.36517 3.04949 7.20111 3.30469 7.12499C3.64809 7.10155 3.99183 7.09377 4.33594 7.10155Z" fill="#FF6767"/>
<path fill-rule="evenodd" clip-rule="evenodd" d="M7.61719 7.75781C7.96092 7.75781 8.3047 7.75781 8.64844 7.75781C8.64844 7.85156 8.64844 7.94531 8.64844 8.03906C8.64844 8.08594 8.64844 8.13281 8.64844 8.17969C8.27311 8.17191 7.89811 8.17969 7.52344 8.20312C7.40461 8.24662 7.35773 8.33259 7.38281 8.46094C7.32595 8.41055 7.25564 8.37933 7.17188 8.36719C6.62311 8.44777 6.0997 8.61183 5.60156 8.85938C5.19919 9.07814 4.96481 9.41409 4.89844 9.86719C4.71792 9.84239 4.55388 9.87366 4.40625 9.96094C4.39807 9.73355 4.37463 9.51478 4.33594 9.30469C4.33594 9.19533 4.33594 9.08592 4.33594 8.97656C4.48504 8.86702 4.64129 8.76544 4.80469 8.67188C5.69644 8.25127 6.63394 7.99345 7.61719 7.89844C7.61719 7.85156 7.61719 7.80469 7.61719 7.75781Z" fill="#ECE3F5"/>
<path fill-rule="evenodd" clip-rule="evenodd" d="M18.4922 6.0703C18.7512 6.05525 19.0013 6.07086 19.2422 6.11717C19.0078 6.11717 18.7734 6.11717 18.5391 6.11717C18.5312 6.78922 18.5391 7.46112 18.5625 8.1328C18.714 8.07252 18.8781 8.04125 19.0547 8.03905C19.2313 8.04125 19.3953 8.07252 19.5469 8.1328C19.5549 7.78072 19.5783 7.43694 19.6172 7.10155C19.6172 7.83594 19.6172 8.57028 19.6172 9.30467C19.5785 9.51477 19.555 9.73353 19.5469 9.96092C19.2083 9.8698 18.8568 9.83853 18.4922 9.86717C18.4922 9.60153 18.4922 9.33594 18.4922 9.0703C18.4922 8.07031 18.4922 7.07028 18.4922 6.0703Z" fill="#FFF4F4"/>
<path opacity="0.999" fill-rule="evenodd" clip-rule="evenodd" d="M19.6172 7.10155C19.9613 7.09377 20.305 7.10155 20.6484 7.12499C20.8874 7.19216 21.0515 7.34061 21.1406 7.5703C21.1641 10.3515 21.1719 13.1328 21.1641 15.914C20.6484 15.914 20.1328 15.914 19.6172 15.914C19.6172 15.7265 19.6172 15.539 19.6172 15.3515C19.6172 14.9922 19.6172 14.6328 19.6172 14.2734C19.6172 13.9922 19.6172 13.7109 19.6172 13.4297C19.6172 12.8203 19.6172 12.2109 19.6172 11.6015C19.6172 11.2422 19.6172 10.8828 19.6172 10.5234C19.6172 10.1172 19.6172 9.71094 19.6172 9.30467C19.6172 8.57028 19.6172 7.83594 19.6172 7.10155Z" fill="#FF6767"/>
<path opacity="0.693" fill-rule="evenodd" clip-rule="evenodd" d="M2.74219 14.9297C1.83777 15.6855 0.939333 16.4511 0.046875 17.2266C0.033824 17.1836 0.0103865 17.1524 -0.0234375 17.1328C-0.0234375 16.7734 -0.0234375 16.4141 -0.0234375 16.0547C0.185903 15.2548 0.451529 14.4735 0.773438 13.7109C0.824353 13.7053 0.8556 13.674 0.867188 13.6172C0.905953 13.4633 0.921581 13.3071 0.914062 13.1484C1.08044 12.0522 1.00231 10.9741 0.679688 9.91406C1.34732 9.32512 2.01919 8.73136 2.69531 8.13281C2.74218 10.3982 2.75781 12.6638 2.74219 14.9297Z" fill="#FBBCBC"/>
<path opacity="0.569" fill-rule="evenodd" clip-rule="evenodd" d="M0.0703125 8.17969C0.121227 8.18531 0.152477 8.21658 0.164062 8.27344C0.201666 8.41167 0.217291 8.5523 0.210938 8.69531C0.143211 8.5342 0.0963356 8.36236 0.0703125 8.17969Z" fill="#9B7877"/>
<path fill-rule="evenodd" clip-rule="evenodd" d="M8.64846 8.17969C9.33612 8.17187 10.0236 8.17969 10.711 8.20313C10.9103 8.38402 10.8947 8.53248 10.6641 8.64844C9.63284 8.64844 8.60159 8.64844 7.57034 8.64844C7.46098 8.63283 7.39845 8.5703 7.38284 8.46094C7.35776 8.3326 7.40463 8.24663 7.52346 8.20313C7.89813 8.17969 8.27313 8.17191 8.64846 8.17969Z" fill="#8B82F6"/>
<path fill-rule="evenodd" clip-rule="evenodd" d="M7.57031 8.64844C8.60156 8.64844 9.63281 8.64844 10.6641 8.64844C10.0005 8.69512 9.32859 8.71073 8.64844 8.69531C8.64844 8.82033 8.64844 8.9453 8.64844 9.07031C9.32859 9.05489 10.0005 9.0705 10.6641 9.11719C9.63281 9.11719 8.60156 9.11719 7.57031 9.11719C7.6328 8.96095 7.6328 8.80467 7.57031 8.64844Z" fill="#E7DCF3"/>
<path fill-rule="evenodd" clip-rule="evenodd" d="M7.38283 8.46094C7.39844 8.5703 7.46097 8.63283 7.57033 8.64844C7.63282 8.80467 7.63282 8.96095 7.57033 9.11719C7.38466 9.18206 7.33778 9.30708 7.42971 9.49219C7.46988 9.53555 7.51675 9.56681 7.57033 9.58594C7.53532 9.74527 7.48844 9.90155 7.42971 10.0547C7.40111 10.0965 7.3855 10.1433 7.38283 10.1953C7.05217 10.6426 6.61469 10.9317 6.07033 11.0625C5.23446 11.1094 4.84385 10.7109 4.89846 9.86719C4.96483 9.41409 5.19921 9.07814 5.60158 8.85938C6.09972 8.61183 6.62313 8.44777 7.17189 8.36719C7.25566 8.37933 7.32597 8.41055 7.38283 8.46094Z" fill="#FEEEEE"/>
<path fill-rule="evenodd" clip-rule="evenodd" d="M13.0547 6.11719C13.0703 6.11719 13.086 6.11719 13.1016 6.11719C13.1016 7.10156 13.1016 8.08594 13.1016 9.07031C13.1016 9.22655 13.1016 9.38283 13.1016 9.53906C13.0562 9.63783 13.0405 9.74723 13.0547 9.86719C11.586 9.86719 10.1172 9.86719 8.64844 9.86719C8.64844 9.77344 8.64844 9.67969 8.64844 9.58594C9.33609 9.59377 10.0236 9.58594 10.7109 9.5625C10.9103 9.38161 10.8947 9.23316 10.6641 9.11719C10.0005 9.0705 9.32859 9.05489 8.64844 9.07031C8.64844 8.9453 8.64844 8.82033 8.64844 8.69531C9.32859 8.71073 10.0005 8.69512 10.6641 8.64844C10.8947 8.53247 10.9103 8.38402 10.7109 8.20312C10.0236 8.17969 9.33609 8.17186 8.64844 8.17969C8.64844 8.13281 8.64844 8.08594 8.64844 8.03906C10.1198 8.00836 11.5808 8.03962 13.0312 8.13281C13.0547 7.46114 13.0625 6.78923 13.0547 6.11719Z" fill="#FEF1F2"/>
<path fill-rule="evenodd" clip-rule="evenodd" d="M7.57032 9.11719C8.60157 9.11719 9.63282 9.11719 10.6641 9.11719C10.8947 9.23316 10.9103 9.38161 10.7109 9.5625C10.0236 9.58594 9.3361 9.59377 8.64844 9.58594C8.28905 9.58594 7.92971 9.58594 7.57032 9.58594C7.51674 9.56681 7.46986 9.53555 7.42969 9.49219C7.33777 9.30708 7.38464 9.18206 7.57032 9.11719Z" fill="#9081F0"/>
<path fill-rule="evenodd" clip-rule="evenodd" d="M13.1016 9.07031C13.1395 9.11573 13.1863 9.15478 13.2422 9.1875C14.9453 9.21877 16.6484 9.21877 18.3516 9.1875C18.4074 9.15478 18.4543 9.11573 18.4922 9.07031C18.4922 9.33595 18.4922 9.60155 18.4922 9.86719C18.4714 9.9428 18.4245 9.9975 18.3516 10.0312C16.6484 10.0625 14.9453 10.0625 13.2422 10.0312C13.1875 10.0078 13.1484 9.96877 13.125 9.91406C13.1017 9.79003 13.0939 9.66502 13.1016 9.53906C13.1016 9.38283 13.1016 9.22655 13.1016 9.07031Z" fill="#F8E2ED"/>
<path fill-rule="evenodd" clip-rule="evenodd" d="M19.6172 9.30469C19.6172 9.71095 19.6172 10.1172 19.6172 10.5234C19.5793 10.6074 19.5558 10.7012 19.5469 10.8047C19.4112 10.7447 19.2628 10.7135 19.1016 10.7109C18.9491 10.7119 18.8007 10.7275 18.6562 10.7578C18.6345 10.73 18.6267 10.6987 18.6328 10.6641C18.7186 10.4975 18.6874 10.3647 18.5391 10.2656C17.4765 10.2344 16.4141 10.2344 15.3516 10.2656C15.1597 10.4418 15.1753 10.5902 15.3984 10.7109C15.4046 10.752 15.389 10.7833 15.3516 10.8047C15.1748 10.7027 14.9873 10.6871 14.7891 10.7578C14.7446 10.9891 14.729 11.2235 14.7422 11.4609C14.7266 11.4609 14.7109 11.4609 14.6953 11.4609C14.7031 11.1012 14.6953 10.7418 14.6719 10.3828C14.6328 10.3438 14.5937 10.3047 14.5547 10.2656C14.1172 10.2344 13.6797 10.2344 13.2422 10.2656C13.1855 10.3143 13.1386 10.369 13.1016 10.4297C13.056 10.5444 13.0403 10.6695 13.0547 10.8047C11.6433 10.7119 10.2214 10.6806 8.78906 10.7109C8.75395 10.6626 8.72273 10.6079 8.69531 10.5469C9.35967 10.539 10.0159 10.5155 10.6641 10.4766C10.8947 10.3606 10.9103 10.2121 10.7109 10.0312C10.0236 10.0078 9.33609 9.99998 8.64844 10.0078C8.64844 9.96094 8.64844 9.91406 8.64844 9.86719C10.1172 9.86719 11.586 9.86719 13.0547 9.86719C13.0405 9.74723 13.0562 9.63783 13.1016 9.53906C13.0939 9.66502 13.1017 9.79003 13.125 9.91406C13.1484 9.96877 13.1875 10.0078 13.2422 10.0312C14.9453 10.0625 16.6485 10.0625 18.3516 10.0312C18.4245 9.9975 18.4714 9.9428 18.4922 9.86719C18.8568 9.83855 19.2083 9.86981 19.5469 9.96094C19.555 9.73355 19.5785 9.51478 19.6172 9.30469Z" fill="#FEEAEA"/>
<path fill-rule="evenodd" clip-rule="evenodd" d="M7.57031 9.58594C7.9297 9.58594 8.28905 9.58594 8.64844 9.58594C8.64844 9.67969 8.64844 9.77344 8.64844 9.86719C8.64844 9.91406 8.64844 9.96094 8.64844 10.0078C8.23964 9.99492 7.83342 10.0105 7.42969 10.0547C7.48842 9.90155 7.5353 9.74527 7.57031 9.58594Z" fill="#EDDBED"/>
<path fill-rule="evenodd" clip-rule="evenodd" d="M8.64846 10.0078C9.33612 9.99996 10.0236 10.0078 10.711 10.0312C10.9103 10.2121 10.8947 10.3606 10.6641 10.4765C9.60148 10.4844 8.53896 10.4765 7.47659 10.4531C7.39901 10.3854 7.36774 10.2994 7.38284 10.1953C7.38551 10.1433 7.40112 10.0964 7.42971 10.0547C7.83345 10.0105 8.23966 9.9949 8.64846 10.0078Z" fill="#937FEA"/>
<path fill-rule="evenodd" clip-rule="evenodd" d="M18.6328 10.6641C17.5582 10.7104 16.4801 10.726 15.3985 10.7109C15.1753 10.5902 15.1597 10.4418 15.3516 10.2656C16.4141 10.2344 17.4766 10.2344 18.5391 10.2656C18.6874 10.3647 18.7187 10.4975 18.6328 10.6641Z" fill="#947EE9"/>
<path fill-rule="evenodd" clip-rule="evenodd" d="M19.6172 10.5234C19.6172 10.8828 19.6172 11.2422 19.6172 11.6016C19.5793 11.6856 19.5558 11.7793 19.5469 11.8828C17.9558 11.7896 16.3542 11.7583 14.7422 11.7891C14.7422 11.6797 14.7422 11.5703 14.7422 11.4609C14.729 11.2235 14.7446 10.9891 14.7891 10.7578C14.9873 10.6871 15.1748 10.7027 15.3516 10.8047C15.389 10.7833 15.4046 10.752 15.3984 10.7109C16.4801 10.726 17.5582 10.7104 18.6328 10.6641C18.6267 10.6987 18.6345 10.73 18.6563 10.7578C18.8007 10.7275 18.9491 10.7119 19.1016 10.7109C19.2628 10.7135 19.4112 10.7447 19.5469 10.8047C19.5558 10.7012 19.5793 10.6074 19.6172 10.5234Z" fill="#FCE2E4"/>
<path fill-rule="evenodd" clip-rule="evenodd" d="M4.33594 9.30469C4.37463 9.51478 4.39807 9.73355 4.40625 9.96094C4.55388 9.87366 4.71792 9.84239 4.89844 9.86719C4.84383 10.7109 5.23444 11.1094 6.07031 11.0625C6.61467 10.9317 7.05216 10.6426 7.38281 10.1953C7.36772 10.2995 7.39898 10.3854 7.47656 10.4531C8.53894 10.4766 9.60145 10.4844 10.6641 10.4766C10.0159 10.5155 9.35967 10.539 8.69531 10.5469C8.72273 10.6079 8.75395 10.6626 8.78906 10.7109C8.80988 10.7865 8.85675 10.8412 8.92969 10.875C9.51595 10.8829 10.0941 10.9064 10.6641 10.9453C9.63281 10.9453 8.60156 10.9453 7.57031 10.9453C7.64259 10.9142 7.72073 10.883 7.80469 10.8516C7.74998 10.7422 7.69533 10.6328 7.64062 10.5234C6.72216 11.5899 5.62059 11.8399 4.33594 11.2734C4.33594 10.6172 4.33594 9.96094 4.33594 9.30469Z" fill="#EDD5E6"/>
<path fill-rule="evenodd" clip-rule="evenodd" d="M7.57031 10.9453C7.45078 10.9633 7.3883 11.0336 7.38281 11.1562C7.38206 11.2643 7.42894 11.3424 7.52344 11.3906C8.58595 11.4219 9.64842 11.4219 10.7109 11.3906C10.9103 11.2097 10.8947 11.0613 10.6641 10.9453C10.0941 10.9064 9.51595 10.8829 8.92969 10.875C8.85675 10.8412 8.80987 10.7865 8.78906 10.7109C10.2214 10.6806 11.6433 10.7119 13.0547 10.8047C13.0625 11.1644 13.0547 11.5238 13.0312 11.8828C11.7913 11.8205 10.5413 11.7893 9.28125 11.7891C8.03114 11.7891 6.78895 11.8047 5.55469 11.8359C5.16155 11.7589 4.77872 11.7745 4.40625 11.8828C4.3973 11.7793 4.37386 11.6856 4.33594 11.6016C4.33594 11.4922 4.33594 11.3828 4.33594 11.2734C5.62059 11.8399 6.72216 11.5899 7.64062 10.5234C7.69533 10.6328 7.74998 10.7422 7.80469 10.8516C7.72073 10.883 7.64259 10.9142 7.57031 10.9453Z" fill="#FEE2E3"/>
<path fill-rule="evenodd" clip-rule="evenodd" d="M14.6953 11.4609C14.6953 11.5703 14.6953 11.6797 14.6953 11.7891C14.1641 11.7891 13.6328 11.7891 13.1016 11.7891C13.1016 11.3359 13.1016 10.8828 13.1016 10.4297C13.1386 10.369 13.1855 10.3143 13.2422 10.2656C13.6797 10.2344 14.1172 10.2344 14.5547 10.2656C14.5937 10.3047 14.6328 10.3438 14.6719 10.3828C14.6953 10.7418 14.7031 11.1012 14.6953 11.4609Z" fill="#957BE5"/>
<path fill-rule="evenodd" clip-rule="evenodd" d="M7.57032 10.9453C8.60157 10.9453 9.63282 10.9453 10.6641 10.9453C10.8947 11.0613 10.9103 11.2097 10.7109 11.3906C9.64843 11.4219 8.58596 11.4219 7.52345 11.3906C7.42895 11.3424 7.38207 11.2643 7.38282 11.1562C7.38831 11.0336 7.45079 10.9633 7.57032 10.9453Z" fill="#987DE4"/>
<path fill-rule="evenodd" clip-rule="evenodd" d="M15.3047 11.1797C16.3986 11.1719 17.4923 11.1797 18.5859 11.2031C18.7227 11.3659 18.7071 11.5065 18.5391 11.625C17.4766 11.6563 16.4141 11.6563 15.3516 11.625C15.1854 11.4903 15.1698 11.3419 15.3047 11.1797Z" fill="#997DE3"/>
<path fill-rule="evenodd" clip-rule="evenodd" d="M13.1016 10.4297C13.1016 10.8828 13.1016 11.3359 13.1016 11.7891C13.1016 12.0078 13.1016 12.2265 13.1016 12.4453C13.0632 12.5768 13.0397 12.7174 13.0312 12.8672C12.675 12.8055 12.3079 12.7742 11.9297 12.7734C11.5511 12.7741 11.1761 12.7897 10.8047 12.8203C9.02344 12.7578 7.24219 12.7578 5.46094 12.8203C5.28511 12.7906 5.10539 12.775 4.92188 12.7734C4.73761 12.7755 4.56573 12.8068 4.40625 12.8672C4.39779 12.7174 4.37435 12.5768 4.33594 12.4453C4.33594 12.1641 4.33594 11.8828 4.33594 11.6016C4.37386 11.6856 4.3973 11.7793 4.40625 11.8828C4.77872 11.7745 5.16155 11.7589 5.55469 11.8359C6.78895 11.8047 8.03114 11.7891 9.28125 11.7891C10.5413 11.7893 11.7913 11.8205 13.0312 11.8828C13.0547 11.5238 13.0625 11.1644 13.0547 10.8047C13.0403 10.6695 13.056 10.5444 13.1016 10.4297Z" fill="#FCDADD"/>
<path fill-rule="evenodd" clip-rule="evenodd" d="M14.6953 11.4609C14.7109 11.4609 14.7266 11.4609 14.7422 11.4609C14.7422 11.5703 14.7422 11.6797 14.7422 11.7891C16.3542 11.7583 17.9557 11.7896 19.5469 11.8828C19.5558 11.7793 19.5793 11.6856 19.6172 11.6016C19.6172 12.2109 19.6172 12.8203 19.6172 13.4297C19.5788 13.5612 19.5554 13.7018 19.5469 13.8516C19.5237 13.775 19.5159 13.6968 19.5234 13.6172C17.9453 13.6172 16.3672 13.6172 14.7891 13.6172C14.7744 13.8447 14.7432 14.0634 14.6953 14.2734C14.6953 14.0547 14.6953 13.836 14.6953 13.6172C14.6953 13.0078 14.6953 12.3984 14.6953 11.7891C14.6953 11.6797 14.6953 11.5703 14.6953 11.4609Z" fill="#FDDADB"/>
<path fill-rule="evenodd" clip-rule="evenodd" d="M13.1016 11.7891C13.6328 11.7891 14.1641 11.7891 14.6953 11.7891C14.6953 12.3984 14.6953 13.0078 14.6953 13.6172C14.1641 13.6172 13.6328 13.6172 13.1016 13.6172C13.1016 13.2266 13.1016 12.8359 13.1016 12.4453C13.1016 12.2265 13.1016 12.0078 13.1016 11.7891Z" fill="#9B78DB"/>
<path fill-rule="evenodd" clip-rule="evenodd" d="M5.55467 11.8359C7.27349 11.8281 8.99225 11.8359 10.7109 11.8594C10.874 11.9862 10.8896 12.1269 10.7578 12.2813C9.00781 12.3125 7.25778 12.3125 5.5078 12.2813C5.37355 12.1114 5.38916 11.9629 5.55467 11.8359Z" fill="#9B7BDE"/>
<path fill-rule="evenodd" clip-rule="evenodd" d="M15.3515 12.0703C16.4141 12.0625 17.4767 12.0703 18.539 12.0938C18.7071 12.2123 18.7227 12.3529 18.5859 12.5156C17.4922 12.5469 16.3984 12.5469 15.3047 12.5156C15.1722 12.3504 15.1878 12.202 15.3515 12.0703Z" fill="#9C7ADD"/>
<path fill-rule="evenodd" clip-rule="evenodd" d="M15.3047 13.0078C16.3986 13 17.4923 13.0078 18.5859 13.0313C18.7227 13.194 18.7071 13.3346 18.5391 13.4531C17.4766 13.4844 16.4141 13.4844 15.3516 13.4531C15.1854 13.3185 15.1698 13.17 15.3047 13.0078Z" fill="#A179D7"/>
<path opacity="0.482" fill-rule="evenodd" clip-rule="evenodd" d="M0.914062 13.1484C0.921581 13.3071 0.905953 13.4633 0.867188 13.6172C0.8556 13.674 0.824353 13.7053 0.773438 13.7109C0.806873 13.5147 0.853748 13.3272 0.914062 13.1484Z" fill="#947A7A"/>
<path fill-rule="evenodd" clip-rule="evenodd" d="M4.33594 12.4453C4.37435 12.5768 4.39779 12.7174 4.40625 12.8672C4.56573 12.8068 4.73761 12.7755 4.92188 12.7734C5.10539 12.775 5.28511 12.7906 5.46094 12.8203C5.38195 12.9802 5.41322 13.1131 5.55469 13.2188C7.27345 13.25 8.99217 13.25 10.7109 13.2188C10.8528 13.111 10.884 12.9782 10.8047 12.8203C11.1761 12.7897 11.5511 12.7741 11.9297 12.7734C12.3079 12.7742 12.675 12.8055 13.0312 12.8672C13.0397 12.7174 13.0632 12.5768 13.1016 12.4453C13.1016 12.8359 13.1016 13.2266 13.1016 13.6172C13.1016 14.1172 13.1016 14.6172 13.1016 15.1172C13.0671 14.9674 13.0358 14.8111 13.0078 14.6484C12.6641 14.6328 12.3203 14.6172 11.9766 14.6016C11.614 14.6024 11.2624 14.6337 10.9219 14.6953C10.9136 14.499 10.8902 14.3115 10.8516 14.1328C10.8145 14.0722 10.7677 14.0175 10.7109 13.9688C8.99217 13.9375 7.27345 13.9375 5.55469 13.9688C5.46441 13.9885 5.41753 14.0432 5.41406 14.1328C5.38748 14.3202 5.34844 14.5077 5.29688 14.6953C5.16122 14.6353 5.01277 14.6041 4.85156 14.6016C4.69036 14.6041 4.5419 14.6353 4.40625 14.6953C4.39779 14.5455 4.37435 14.4049 4.33594 14.2734C4.33594 13.6641 4.33594 13.0547 4.33594 12.4453Z" fill="#FED3D3"/>
<path fill-rule="evenodd" clip-rule="evenodd" d="M10.8047 12.8203C10.884 12.9782 10.8528 13.111 10.711 13.2187C8.99219 13.25 7.27347 13.25 5.55471 13.2187C5.41324 13.1131 5.38197 12.9802 5.46096 12.8203C7.24221 12.7578 9.02346 12.7578 10.8047 12.8203Z" fill="#A079D8"/>
<path fill-rule="evenodd" clip-rule="evenodd" d="M19.6172 13.4297C19.6172 13.7109 19.6172 13.9922 19.6172 14.2734C19.5788 14.4049 19.5554 14.5455 19.5469 14.6953C18.7603 14.6332 17.9634 14.6019 17.1562 14.6016C16.3672 14.6172 15.5781 14.6328 14.7891 14.6484C14.7619 14.7802 14.7307 14.9052 14.6953 15.0234C14.6953 14.7735 14.6953 14.5234 14.6953 14.2734C14.7432 14.0634 14.7744 13.8447 14.7891 13.6172C16.3672 13.6172 17.9453 13.6172 19.5234 13.6172C19.5159 13.6968 19.5237 13.775 19.5469 13.8516C19.5554 13.7018 19.5788 13.5612 19.6172 13.4297Z" fill="#FDD0D1"/>
<path fill-rule="evenodd" clip-rule="evenodd" d="M10.8515 14.1328C10.8593 14.4769 10.8515 14.8207 10.8281 15.1641C10.8047 15.2188 10.7656 15.2578 10.7109 15.2813C8.97655 15.3125 7.24217 15.3125 5.5078 15.2813C5.48436 15.2578 5.46092 15.2344 5.43749 15.2109C5.41405 14.8519 5.40627 14.4925 5.41405 14.1328C5.41752 14.0432 5.46439 13.9885 5.55467 13.9688C7.27344 13.9375 8.99216 13.9375 10.7109 13.9688C10.7676 14.0175 10.8145 14.0722 10.8515 14.1328Z" fill="#FF873B"/>
<path fill-rule="evenodd" clip-rule="evenodd" d="M13.1016 13.6172C13.6328 13.6172 14.1641 13.6172 14.6953 13.6172C14.6953 13.836 14.6953 14.0547 14.6953 14.2734C14.6953 14.5234 14.6953 14.7735 14.6953 15.0234C14.7003 15.1361 14.6535 15.222 14.5547 15.2812C14.1172 15.3125 13.6797 15.3125 13.2422 15.2812C13.1693 15.2475 13.1224 15.1928 13.1016 15.1172C13.1016 14.6172 13.1016 14.1172 13.1016 13.6172Z" fill="#A474CF"/>
<path fill-rule="evenodd" clip-rule="evenodd" d="M15.3515 13.8984C16.4141 13.8906 17.4767 13.8984 18.539 13.9219C18.7071 14.0404 18.7227 14.181 18.5859 14.3438C17.4922 14.375 16.3984 14.375 15.3047 14.3438C15.1722 14.1786 15.1878 14.0302 15.3515 13.8984Z" fill="#A577D1"/>
<path fill-rule="evenodd" clip-rule="evenodd" d="M5.41406 14.1328C5.40628 14.4925 5.41406 14.8519 5.4375 15.2109C5.46094 15.2344 5.48438 15.2578 5.50781 15.2812C7.24219 15.3125 8.97656 15.3125 10.7109 15.2812C10.7656 15.2578 10.8047 15.2188 10.8281 15.1641C10.8516 14.8207 10.8593 14.4769 10.8516 14.1328C10.8902 14.3115 10.9136 14.499 10.9219 14.6953C11.2624 14.6337 11.614 14.6024 11.9766 14.6016C12.3203 14.6172 12.6641 14.6328 13.0078 14.6484C13.0358 14.8111 13.0671 14.9674 13.1016 15.1172C13.1224 15.1928 13.1693 15.2475 13.2422 15.2812C13.6797 15.3125 14.1172 15.3125 14.5547 15.2812C14.6535 15.222 14.7003 15.1361 14.6953 15.0234C14.7307 14.9052 14.7619 14.7802 14.7891 14.6484C15.5781 14.6328 16.3672 14.6172 17.1562 14.6016C17.9634 14.6019 18.7603 14.6332 19.5469 14.6953C19.5554 14.5455 19.5788 14.4049 19.6172 14.2734C19.6172 14.6328 19.6172 14.9922 19.6172 15.3516C19.5788 15.483 19.5554 15.6237 19.5469 15.7734C17.0333 15.711 14.5098 15.6798 11.9766 15.6797C9.4433 15.6798 6.91983 15.711 4.40625 15.7734C4.39696 15.6852 4.37353 15.6071 4.33594 15.5391C4.33594 15.1172 4.33594 14.6953 4.33594 14.2734C4.37435 14.4049 4.39779 14.5455 4.40625 14.6953C4.5419 14.6353 4.69036 14.6041 4.85156 14.6016C5.01277 14.6041 5.16122 14.6353 5.29688 14.6953C5.34844 14.5077 5.38748 14.3202 5.41406 14.1328Z" fill="#FEC9C9"/>
<path fill-rule="evenodd" clip-rule="evenodd" d="M15.3047 14.8359C16.3986 14.8281 17.4923 14.8359 18.5859 14.8594C18.7227 15.0221 18.7071 15.1628 18.5391 15.2813C17.4766 15.3125 16.4141 15.3125 15.3516 15.2813C15.1854 15.1466 15.1698 14.9981 15.3047 14.8359Z" fill="#A975CB"/>
<path opacity="0.212" fill-rule="evenodd" clip-rule="evenodd" d="M22.9453 11.6016C22.9144 12.8372 23.1722 14.0091 23.7188 15.1172C23.8032 15.3613 23.8579 15.6113 23.8828 15.8672C21.0892 18.2388 18.3236 20.645 15.5859 23.0859C15.1633 22.9111 14.7414 22.7314 14.3203 22.5469C13.2689 22.1523 12.1908 22.0351 11.0859 22.1953C10.9553 22.1495 10.8147 22.1339 10.6641 22.1484C12.2092 20.8222 13.7405 19.4784 15.2578 18.1172C17.0235 18.125 18.7891 18.1172 20.5547 18.0938C20.9396 18.0033 21.1428 17.7611 21.1641 17.3672C21.1953 15.8905 21.2265 14.4061 21.2578 12.9141C21.7882 12.4697 22.3116 12.0165 22.8281 11.5547C22.8713 11.4328 22.9025 11.3078 22.9219 11.1797C22.9452 11.3195 22.953 11.4601 22.9453 11.6016Z" fill="#FDCECE"/>
<path fill-rule="evenodd" clip-rule="evenodd" d="M19.6172 15.3516C19.6172 15.5391 19.6172 15.7266 19.6172 15.9141C19.6234 16.058 19.6077 16.1986 19.5703 16.3359C19.5175 16.488 19.4081 16.574 19.2422 16.5938C16.9297 16.625 14.6172 16.625 12.3047 16.5938C12.1262 16.542 12.0169 16.4248 11.9765 16.2422C11.8763 16.4987 11.6888 16.6238 11.414 16.6172C10.7422 16.6172 10.0703 16.6172 9.39842 16.6172C7.82023 16.625 6.24209 16.6172 4.66404 16.5938C4.51839 16.5607 4.42464 16.4747 4.38279 16.3359C4.34534 16.1986 4.32971 16.058 4.33592 15.9141C4.33592 15.789 4.33592 15.6641 4.33592 15.5391C4.37351 15.6071 4.39694 15.6852 4.40623 15.7734C6.91981 15.711 9.44328 15.6798 11.9765 15.6797C14.5098 15.6798 17.0333 15.711 19.5469 15.7734C19.5553 15.6237 19.5788 15.483 19.6172 15.3516Z" fill="#FFC4C4"/>
<path opacity="0.537" fill-rule="evenodd" clip-rule="evenodd" d="M2.74219 14.9297C2.72671 15.766 2.74234 16.5941 2.78906 17.4141C2.83514 17.7805 3.03826 18.0071 3.39844 18.0938C4.5077 18.1172 5.61708 18.125 6.72656 18.1172C6.6908 18.1532 6.64392 18.1766 6.58594 18.1875C6.63281 18.2031 6.67969 18.2188 6.72656 18.2344C5.35158 19.4219 3.97656 20.6094 2.60156 21.7969C2.49537 21.8793 2.41724 21.9809 2.36719 22.1016C1.07807 21.0705 0.281196 19.7423 -0.0234375 18.1172C-0.0234375 17.7891 -0.0234375 17.4609 -0.0234375 17.1328C0.0103865 17.1524 0.033824 17.1836 0.046875 17.2266C0.939333 16.4511 1.83777 15.6855 2.74219 14.9297Z" fill="#FDC3C3"/>
<path opacity="0.187" fill-rule="evenodd" clip-rule="evenodd" d="M23.8828 15.8672C23.9141 15.9453 23.9453 16.0234 23.9766 16.1016C23.9766 16.7734 23.9766 17.4453 23.9766 18.1172C23.2587 21.2177 21.3212 22.9911 18.1641 23.4375C17.2785 23.4997 16.4191 23.3826 15.5859 23.0859C18.3236 20.645 21.0892 18.2388 23.8828 15.8672Z" fill="#FDD1D0"/>
<path opacity="0.999" fill-rule="evenodd" clip-rule="evenodd" d="M2.78906 15.9141C3.30469 15.9141 3.82031 15.9141 4.33594 15.9141C4.32974 16.058 4.34536 16.1986 4.38281 16.3359C4.31784 16.6283 4.32566 16.9252 4.40625 17.2266C4.483 17.3348 4.58456 17.4052 4.71094 17.4375C6.27338 17.4609 7.83586 17.4688 9.39844 17.4609C9.39844 17.6797 9.39844 17.8984 9.39844 18.1172C9.36717 18.1172 9.33595 18.1172 9.30469 18.1172C8.44533 18.1172 7.58592 18.1172 6.72656 18.1172C5.61708 18.125 4.5077 18.1172 3.39844 18.0938C3.03826 18.0071 2.83514 17.7805 2.78906 17.4141C2.78906 16.914 2.78906 16.4141 2.78906 15.9141Z" fill="#FF803F"/>
<path opacity="0.998" fill-rule="evenodd" clip-rule="evenodd" d="M19.6172 15.9141C20.1328 15.9141 20.6485 15.9141 21.1641 15.9141C21.1641 16.3984 21.1641 16.8828 21.1641 17.3672C21.1428 17.7611 20.9396 18.0033 20.5547 18.0938C18.7892 18.1172 17.0235 18.125 15.2578 18.1172C13.9766 18.1172 12.6953 18.1172 11.4141 18.1172C11.37 17.903 11.3544 17.6842 11.3672 17.4609C11.3985 17.4609 11.4141 17.4453 11.4141 17.4141C11.6876 17.4493 11.8751 17.3399 11.9766 17.0859C12.0492 17.2602 12.1742 17.3774 12.3516 17.4375C14.6485 17.4688 16.9453 17.4688 19.2422 17.4375C19.4033 17.3857 19.5205 17.2841 19.5938 17.1328C19.6321 16.8586 19.6243 16.593 19.5703 16.3359C19.6078 16.1986 19.6234 16.058 19.6172 15.9141Z" fill="#FF803F"/>
<path fill-rule="evenodd" clip-rule="evenodd" d="M19.5703 16.3359C19.6243 16.593 19.6321 16.8586 19.5937 17.1328C19.5205 17.2841 19.4033 17.3857 19.2422 17.4375C16.9453 17.4688 14.6484 17.4688 12.3516 17.4375C12.1742 17.3774 12.0492 17.2602 11.9766 17.0859C11.8751 17.3399 11.6876 17.4493 11.4141 17.4141C11.4141 17.1484 11.4141 16.8828 11.4141 16.6172C11.6888 16.6238 11.8763 16.4987 11.9766 16.2422C12.0169 16.4248 12.1262 16.542 12.3047 16.5938C14.6172 16.625 16.9297 16.625 19.2422 16.5938C19.4081 16.574 19.5175 16.488 19.5703 16.3359Z" fill="#FF661D"/>
<path fill-rule="evenodd" clip-rule="evenodd" d="M4.38279 16.3359C4.42464 16.4747 4.51839 16.5607 4.66404 16.5938C6.24209 16.6172 7.82023 16.625 9.39842 16.6172C9.39842 16.8984 9.39842 17.1797 9.39842 17.4609C7.83584 17.4688 6.27335 17.4609 4.71092 17.4375C4.58454 17.4052 4.48298 17.3348 4.40623 17.2266C4.32564 16.9252 4.31782 16.6283 4.38279 16.3359Z" fill="#FF661C"/>
<path fill-rule="evenodd" clip-rule="evenodd" d="M9.39844 16.6172C10.0703 16.6172 10.7422 16.6172 11.4141 16.6172C11.4141 16.8828 11.4141 17.1484 11.4141 17.4141C11.4141 17.4453 11.3985 17.4609 11.3672 17.4609C10.7109 17.4609 10.0547 17.4609 9.39844 17.4609C9.39844 17.1797 9.39844 16.8984 9.39844 16.6172Z" fill="#FF4E4D"/>
<path opacity="0.999" fill-rule="evenodd" clip-rule="evenodd" d="M9.39842 17.4609C10.0547 17.4609 10.7109 17.4609 11.3672 17.4609C11.3543 17.6842 11.3699 17.903 11.414 18.1172C11.4218 18.4925 11.414 18.8675 11.3906 19.2422C11.3533 19.3578 11.2752 19.4203 11.1562 19.4297C10.8855 19.3098 10.6355 19.1535 10.4062 18.9609C10.2109 19.0937 10.0156 19.2266 9.8203 19.3594C9.66397 19.4668 9.53117 19.4433 9.42186 19.2891C9.39842 18.8987 9.39064 18.5081 9.39842 18.1172C9.39842 17.8984 9.39842 17.6797 9.39842 17.4609Z" fill="#FF6D6C"/>
<path opacity="0.444" fill-rule="evenodd" clip-rule="evenodd" d="M6.72656 18.1172C7.58592 18.1172 8.44533 18.1172 9.30469 18.1172C7.61569 19.6573 5.89692 21.1651 4.14844 22.6406C4.08594 22.7031 4.02344 22.7656 3.96094 22.8281C4.07616 22.9094 4.06053 22.9641 3.91406 22.9922C3.34613 22.7788 2.8305 22.4819 2.36719 22.1016C2.41724 21.9809 2.49537 21.8793 2.60156 21.7969C3.97656 20.6094 5.35158 19.4219 6.72656 18.2344C6.67969 18.2188 6.63281 18.2031 6.58594 18.1875C6.64392 18.1766 6.6908 18.1532 6.72656 18.1172Z" fill="#FEC7C7"/>
<path opacity="0.371" fill-rule="evenodd" clip-rule="evenodd" d="M9.30469 18.1172C9.33595 18.1172 9.36717 18.1172 9.39844 18.1172C9.39066 18.5081 9.39844 18.8987 9.42188 19.2891C9.53119 19.4433 9.66398 19.4668 9.82031 19.3594C10.0156 19.2266 10.2109 19.0937 10.4062 18.9609C10.6356 19.1535 10.8855 19.3098 11.1562 19.4297C11.2752 19.4203 11.3533 19.3578 11.3906 19.2422C11.4141 18.8675 11.4218 18.4925 11.4141 18.1172C12.6953 18.1172 13.9766 18.1172 15.2578 18.1172C13.7405 19.4784 12.2092 20.8222 10.6641 22.1484C10.5584 22.1866 10.449 22.2179 10.3359 22.2422C10.2791 22.2538 10.2478 22.285 10.2422 22.3359C9.50902 22.6243 8.77463 22.9133 8.03906 23.2031C6.63783 23.5966 5.2628 23.5263 3.91406 22.9922C4.06053 22.9641 4.07616 22.9094 3.96094 22.8281C4.02344 22.7656 4.08594 22.7031 4.14844 22.6406C5.89692 21.1651 7.61569 19.6573 9.30469 18.1172Z" fill="#FDCACA"/>
<path opacity="0.996" fill-rule="evenodd" clip-rule="evenodd" d="M3.02346 19.4766C3.28909 19.461 3.41409 19.5859 3.39846 19.8516C3.59687 19.816 3.72187 19.8942 3.77346 20.086C3.72187 20.2777 3.59687 20.3559 3.39846 20.3203C3.39367 20.6627 3.24523 20.7564 2.95315 20.6016C2.90028 20.5151 2.87684 20.4213 2.88284 20.3203C2.54874 20.3107 2.47061 20.1622 2.64846 19.875C2.74094 19.8518 2.83469 19.844 2.92971 19.8516C2.9113 19.7103 2.94255 19.5853 3.02346 19.4766Z" fill="#FF6E6E"/>
<path opacity="0.998" fill-rule="evenodd" clip-rule="evenodd" d="M4.38281 20.7891C4.47784 20.7815 4.57159 20.7893 4.66406 20.8125C4.81252 20.961 4.96092 21.1094 5.10938 21.2578C5.17969 21.5625 5.0625 21.6797 4.75781 21.6094C4.68668 21.5304 4.60856 21.4601 4.52344 21.3984C4.43832 21.4601 4.3602 21.5304 4.28906 21.6094C3.98438 21.6797 3.86719 21.5625 3.9375 21.2578C4.09551 21.1077 4.24395 20.9514 4.38281 20.7891Z" fill="#8885FC"/>
<path opacity="0.176" fill-rule="evenodd" clip-rule="evenodd" d="M10.6641 22.1484C10.8147 22.1339 10.9553 22.1495 11.0859 22.1953C10.8026 22.2301 10.5213 22.277 10.2422 22.3359C10.2478 22.285 10.2791 22.2538 10.3359 22.2422C10.449 22.2179 10.5584 22.1866 10.6641 22.1484Z" fill="#B19F9F"/>
</g>
<defs>
<clipPath id="clip0_1460_560">
<rect width="24" height="24" fill="white"/>
</clipPath>
</defs>
</svg>
