<?xml version="1.0" encoding="UTF-8"?>
<!DOCTYPE svg PUBLIC "-//W3C//DTD SVG 1.1//EN" "http://www.w3.org/Graphics/SVG/1.1/DTD/svg11.dtd">
<svg xmlns="http://www.w3.org/2000/svg" version="1.1" width="512px" height="512px" style="shape-rendering:geometricPrecision; text-rendering:geometricPrecision; image-rendering:optimizeQuality; fill-rule:evenodd; clip-rule:evenodd" xmlns:xlink="http://www.w3.org/1999/xlink">
<g><path style="opacity:0.999" fill="#febbab" d="M 129.5,-0.5 C 131.833,-0.5 134.167,-0.5 136.5,-0.5C 136.5,39.5 136.5,79.5 136.5,119.5C 121.5,119.5 106.5,119.5 91.5,119.5C 91.5,112.833 91.5,106.167 91.5,99.5C 91.2627,98.209 91.596,97.209 92.5,96.5C 93.4972,96.5299 94.1639,96.0299 94.5,95C 104.551,66.0158 113.884,36.8491 122.5,7.5C 122.5,7.16667 122.5,6.83333 122.5,6.5C 123.906,6.02694 124.573,5.02694 124.5,3.5C 124.5,2.83333 124.833,2.5 125.5,2.5C 127.027,2.57298 128.027,1.90632 128.5,0.5C 129.167,0.5 129.5,0.166667 129.5,-0.5 Z"/></g>
<g><path style="opacity:0.998" fill="#fc7189" d="M 249.5,-0.5 C 251.833,-0.5 254.167,-0.5 256.5,-0.5C 256.5,49.1667 256.5,98.8333 256.5,148.5C 259.833,148.5 263.167,148.5 266.5,148.5C 263.375,149.479 260.042,149.813 256.5,149.5C 238.674,149.085 223.674,142.418 211.5,129.5C 209.129,125.81 206.462,122.477 203.5,119.5C 203.672,118.508 203.338,117.842 202.5,117.5C 196.178,106.381 194.012,94.381 196,81.5C 198.217,72.4 201.55,63.7333 206,55.5C 211.689,46.106 217.855,37.106 224.5,28.5C 225.906,28.0269 226.573,27.0269 226.5,25.5C 227.167,24.8333 227.833,24.1667 228.5,23.5C 229.906,23.0269 230.573,22.0269 230.5,20.5C 231.167,20.5 231.5,20.1667 231.5,19.5C 232.906,19.0269 233.573,18.0269 233.5,16.5C 234.728,15.6935 235.728,14.6935 236.5,13.5C 237.906,13.0269 238.573,12.0269 238.5,10.5C 240.223,8.74721 241.723,6.74721 243,4.5C 244.965,2.44965 247.132,0.782988 249.5,-0.5 Z"/></g>
<g><path style="opacity:1" fill="#fe9368" d="M 136.5,-0.5 C 139.167,-0.5 141.833,-0.5 144.5,-0.5C 148.369,2.70186 151.036,6.70186 152.5,11.5C 151.402,12.6009 151.235,13.9343 152,15.5C 161.333,43.5 170.667,71.5 180,99.5C 180.383,98.944 180.883,98.6107 181.5,98.5C 181.5,98.8333 181.5,99.1667 181.5,99.5C 181.5,106.167 181.5,112.833 181.5,119.5C 166.5,119.5 151.5,119.5 136.5,119.5C 136.5,79.5 136.5,39.5 136.5,-0.5 Z"/></g>
<g><path style="opacity:1" fill="#fc3f61" d="M 256.5,-0.5 C 258.833,-0.5 261.167,-0.5 263.5,-0.5C 283.982,19.5068 300.482,42.5068 313,68.5C 318.146,81.6024 318.812,94.9357 315,108.5C 313.997,111.84 312.497,114.84 310.5,117.5C 307.512,121.462 304.512,125.462 301.5,129.5C 292.007,139.748 280.341,146.081 266.5,148.5C 263.167,148.5 259.833,148.5 256.5,148.5C 256.5,98.8333 256.5,49.1667 256.5,-0.5 Z"/></g>
<g><path style="opacity:0.035" fill="#261a1a" d="M 128.5,0.5 C 128.027,1.90632 127.027,2.57298 125.5,2.5C 125.973,1.09368 126.973,0.427017 128.5,0.5 Z"/></g>
<g><path style="opacity:0.999" fill="#fbe175" d="M 511.5,57.5 C 511.5,57.8333 511.5,58.1667 511.5,58.5C 504.666,75.1703 497,91.5037 488.5,107.5C 488.67,106.178 488.337,105.011 487.5,104C 469.5,95.3333 451.5,86.6667 433.5,78C 418.871,75.7169 412.371,81.8836 414,96.5C 414.731,98.8987 415.898,101.065 417.5,103C 436.648,112.74 455.982,122.24 475.5,131.5C 476.183,131.137 476.85,130.804 477.5,130.5C 472.737,141.025 467.737,151.358 462.5,161.5C 462.67,160.178 462.337,159.011 461.5,158C 443.288,149.06 424.954,140.394 406.5,132C 397.986,129.842 391.819,132.675 388,140.5C 386.298,147.245 387.798,153.078 392.5,158C 411.469,167.151 430.469,176.317 449.5,185.5C 450.183,185.137 450.85,184.804 451.5,184.5C 448.104,192.293 444.437,199.959 440.5,207.5C 439.662,207.842 439.328,208.508 439.5,209.5C 394.833,209.5 350.167,209.5 305.5,209.5C 318.11,181.612 331.276,153.946 345,126.5C 346.136,123.904 346.969,121.237 347.5,118.5C 360.928,89.9798 374.594,61.6464 388.5,33.5C 391.375,31.7515 392.708,29.0848 392.5,25.5C 394.562,20.3752 396.896,15.3752 399.5,10.5C 400.906,10.0269 401.573,9.02694 401.5,7.5C 407.316,2.34199 413.983,1.17533 421.5,4C 448.378,17.2725 475.378,30.2725 502.5,43C 504.667,45.1667 506.833,47.3333 509,49.5C 509.782,52.3102 510.616,54.9768 511.5,57.5 Z"/></g>
<g><path style="opacity:0.039" fill="#250e0c" d="M 124.5,3.5 C 124.573,5.02694 123.906,6.02694 122.5,6.5C 122.427,4.97306 123.094,3.97306 124.5,3.5 Z"/></g>
<g><path style="opacity:0.039" fill="#1b0e0d" d="M 401.5,7.5 C 401.573,9.02694 400.906,10.0269 399.5,10.5C 399.427,8.97306 400.094,7.97306 401.5,7.5 Z"/></g>
<g><path style="opacity:0.035" fill="#241018" d="M 238.5,10.5 C 238.573,12.0269 237.906,13.0269 236.5,13.5C 236.427,11.9731 237.094,10.9731 238.5,10.5 Z"/></g>
<g><path style="opacity:0.035" fill="#1d100e" d="M 233.5,16.5 C 233.573,18.0269 232.906,19.0269 231.5,19.5C 231.427,17.9731 232.094,16.9731 233.5,16.5 Z"/></g>
<g><path style="opacity:0.047" fill="#1b1212" d="M 230.5,20.5 C 230.573,22.0269 229.906,23.0269 228.5,23.5C 228.427,21.9731 229.094,20.9731 230.5,20.5 Z"/></g>
<g><path style="opacity:0.035" fill="#27100e" d="M 226.5,25.5 C 226.573,27.0269 225.906,28.0269 224.5,28.5C 224.427,26.9731 225.094,25.9731 226.5,25.5 Z"/></g>
<g><path style="opacity:0.663" fill="#9c954f" d="M 392.5,25.5 C 392.708,29.0848 391.375,31.7515 388.5,33.5C 389.326,30.5152 390.659,27.8485 392.5,25.5 Z"/></g>
<g><path style="opacity:0.933" fill="#c2845e" d="M 152.5,11.5 C 162.363,40.4214 172.029,69.4214 181.5,98.5C 180.883,98.6107 180.383,98.944 180,99.5C 170.667,71.5 161.333,43.5 152,15.5C 151.235,13.9343 151.402,12.6009 152.5,11.5 Z"/></g>
<g><path style="opacity:0.533" fill="#a48478" d="M 122.5,7.5 C 113.884,36.8491 104.551,66.0158 94.5,95C 94.1639,96.0299 93.4972,96.5299 92.5,96.5C 101.73,66.4743 111.73,36.8077 122.5,7.5 Z"/></g>
<g><path style="opacity:0.999" fill="#fc9002" d="M 488.5,107.5 C 485.104,115.293 481.437,122.959 477.5,130.5C 476.85,130.804 476.183,131.137 475.5,131.5C 455.982,122.24 436.648,112.74 417.5,103C 415.898,101.065 414.731,98.8987 414,96.5C 412.371,81.8836 418.871,75.7169 433.5,78C 451.5,86.6667 469.5,95.3333 487.5,104C 488.337,105.011 488.67,106.178 488.5,107.5 Z"/></g>
<g><path style="opacity:0.063" fill="#071313" d="M 91.5,99.5 C 91.5,106.167 91.5,112.833 91.5,119.5C 64.1667,119.5 36.8333,119.5 9.5,119.5C 36.3282,118.502 63.3282,118.169 90.5,118.5C 90.1765,111.978 90.5098,105.645 91.5,99.5 Z"/></g>
<g><path style="opacity:0.062" fill="#181111" d="M 181.5,99.5 C 182.49,105.645 182.823,111.978 182.5,118.5C 189.354,118.824 196.021,118.491 202.5,117.5C 203.338,117.842 203.672,118.508 203.5,119.5C 196.167,119.5 188.833,119.5 181.5,119.5C 181.5,112.833 181.5,106.167 181.5,99.5 Z"/></g>
<g><path style="opacity:0.999" fill="#01607e" d="M 9.5,119.5 C 36.8333,119.5 64.1667,119.5 91.5,119.5C 91.5,149.5 91.5,179.5 91.5,209.5C 84.825,209.334 78.1583,209.5 71.5,210C 65.4802,212.683 61.6469,217.183 60,223.5C 40.1379,313.059 19.9713,402.392 -0.5,491.5C -0.5,370.167 -0.5,248.833 -0.5,127.5C 1.59226,123.353 4.92559,120.687 9.5,119.5 Z"/></g>
<g><path style="opacity:0.999" fill="#01607f" d="M 181.5,119.5 C 188.833,119.5 196.167,119.5 203.5,119.5C 206.462,122.477 209.129,125.81 211.5,129.5C 211.5,156.167 211.5,182.833 211.5,209.5C 201.5,209.5 191.5,209.5 181.5,209.5C 181.5,179.5 181.5,149.5 181.5,119.5 Z"/></g>
<g><path style="opacity:1" fill="#022c3b" d="M 310.5,117.5 C 322.655,118.495 334.989,118.829 347.5,118.5C 346.969,121.237 346.136,123.904 345,126.5C 331.276,153.946 318.11,181.612 305.5,209.5C 304.167,209.5 302.833,209.5 301.5,209.5C 301.5,182.833 301.5,156.167 301.5,129.5C 304.512,125.462 307.512,121.462 310.5,117.5 Z"/></g>
<g><path style="opacity:1" fill="#74eefe" d="M 91.5,119.5 C 106.5,119.5 121.5,119.5 136.5,119.5C 136.5,149.5 136.5,179.5 136.5,209.5C 121.5,209.5 106.5,209.5 91.5,209.5C 91.5,179.5 91.5,149.5 91.5,119.5 Z"/></g>
<g><path style="opacity:1" fill="#00cded" d="M 136.5,119.5 C 151.5,119.5 166.5,119.5 181.5,119.5C 181.5,149.5 181.5,179.5 181.5,209.5C 166.5,209.5 151.5,209.5 136.5,209.5C 136.5,179.5 136.5,149.5 136.5,119.5 Z"/></g>
<g><path style="opacity:1" fill="#bab9bf" d="M 301.5,129.5 C 301.5,156.167 301.5,182.833 301.5,209.5C 286.5,209.5 271.5,209.5 256.5,209.5C 256.5,189.5 256.5,169.5 256.5,149.5C 260.042,149.813 263.375,149.479 266.5,148.5C 280.341,146.081 292.007,139.748 301.5,129.5 Z"/></g>
<g><path style="opacity:0.999" fill="#fc9002" d="M 462.5,161.5 C 459.104,169.293 455.437,176.959 451.5,184.5C 450.85,184.804 450.183,185.137 449.5,185.5C 430.469,176.317 411.469,167.151 392.5,158C 387.798,153.078 386.298,147.245 388,140.5C 391.819,132.675 397.986,129.842 406.5,132C 424.954,140.394 443.288,149.06 461.5,158C 462.337,159.011 462.67,160.178 462.5,161.5 Z"/></g>
<g><path style="opacity:1" fill="#ebebf0" d="M 211.5,129.5 C 223.674,142.418 238.674,149.085 256.5,149.5C 256.5,169.5 256.5,189.5 256.5,209.5C 241.5,209.5 226.5,209.5 211.5,209.5C 211.5,182.833 211.5,156.167 211.5,129.5 Z"/></g>
<g><path style="opacity:0.063" fill="#201110" d="M 440.5,207.5 C 460.833,208.167 481.167,208.833 501.5,209.5C 480.833,209.5 460.167,209.5 439.5,209.5C 439.328,208.508 439.662,207.842 440.5,207.5 Z"/></g>
<g><path style="opacity:1" fill="#fee376" d="M 91.5,209.5 C 106.5,209.5 121.5,209.5 136.5,209.5C 151.5,209.5 166.5,209.5 181.5,209.5C 191.5,209.5 201.5,209.5 211.5,209.5C 226.5,209.5 241.5,209.5 256.5,209.5C 256.5,260.167 256.5,310.833 256.5,361.5C 249.727,361.973 244.894,365.307 242,371.5C 241.333,394.5 241.333,417.5 242,440.5C 244.397,447.442 249.231,451.109 256.5,451.5C 256.5,471.5 256.5,491.5 256.5,511.5C 173.5,511.5 90.5,511.5 7.5,511.5C 4.5,509.167 1.83333,506.5 -0.5,503.5C -0.5,499.5 -0.5,495.5 -0.5,491.5C 19.9713,402.392 40.1379,313.059 60,223.5C 61.6469,217.183 65.4802,212.683 71.5,210C 78.1583,209.5 84.825,209.334 91.5,209.5 Z"/></g>
<g><path style="opacity:1" fill="#fdb554" d="M 256.5,209.5 C 271.5,209.5 286.5,209.5 301.5,209.5C 302.833,209.5 304.167,209.5 305.5,209.5C 350.167,209.5 394.833,209.5 439.5,209.5C 460.167,209.5 480.833,209.5 501.5,209.5C 505.698,211.026 509.032,213.693 511.5,217.5C 511.5,223.5 511.5,229.5 511.5,235.5C 491.52,325.097 471.353,414.764 451,504.5C 448.628,506.703 446.461,509.037 444.5,511.5C 381.833,511.5 319.167,511.5 256.5,511.5C 256.5,491.5 256.5,471.5 256.5,451.5C 298.894,451.984 341.227,451.484 383.5,450C 387.49,448.01 389.99,444.843 391,440.5C 391.667,417.5 391.667,394.5 391,371.5C 389.167,367 386,363.833 381.5,362C 339.835,361.5 298.168,361.333 256.5,361.5C 256.5,310.833 256.5,260.167 256.5,209.5 Z"/></g>
<g><path style="opacity:1" fill="#05607e" d="M 256.5,361.5 C 256.5,391.5 256.5,421.5 256.5,451.5C 249.231,451.109 244.397,447.442 242,440.5C 241.333,417.5 241.333,394.5 242,371.5C 244.894,365.307 249.727,361.973 256.5,361.5 Z"/></g>
<g><path style="opacity:1" fill="#002c3c" d="M 256.5,361.5 C 298.168,361.333 339.835,361.5 381.5,362C 386,363.833 389.167,367 391,371.5C 391.667,394.5 391.667,417.5 391,440.5C 389.99,444.843 387.49,448.01 383.5,450C 341.227,451.484 298.894,451.984 256.5,451.5C 256.5,421.5 256.5,391.5 256.5,361.5 Z"/></g>
</svg>
