<svg width="25" height="24" viewBox="0 0 25 24" fill="none" xmlns="http://www.w3.org/2000/svg">
<path fill-rule="evenodd" clip-rule="evenodd" d="M17.0469 1.33702C17.0469 1.36815 17.0625 1.38371 17.0938 1.38371C13.6875 1.44597 10.2813 1.44597 6.875 1.38371C6.90627 1.38371 6.92188 1.36815 6.92188 1.33702C9.34077 0.169131 11.872 -0.134363 14.5156 0.426539C15.4066 0.615887 16.2504 0.919381 17.0469 1.33702Z" fill="#46ADF1"/>
<path fill-rule="evenodd" clip-rule="evenodd" d="M4.85938 0.776725C4.85938 0.979053 4.85938 1.18139 4.85938 1.38371C4.82044 1.90476 4.797 2.43392 4.78906 2.97122C4.50781 3.2825 4.22656 3.2825 3.94531 2.97122C3.93737 2.43392 3.91393 1.90476 3.875 1.38371C3.875 1.18139 3.875 0.979053 3.875 0.776725C3.91587 0.502291 4.07994 0.362217 4.36719 0.356502C4.62727 0.39018 4.79133 0.530255 4.85938 0.776725Z" fill="#00419A"/>
<path fill-rule="evenodd" clip-rule="evenodd" d="M6.73438 0.776725C6.73438 0.979053 6.73438 1.18139 6.73438 1.38371C6.69542 1.90476 6.67198 2.43392 6.66406 2.97122C6.38281 3.2825 6.10156 3.2825 5.82031 2.97122C5.81239 2.43392 5.78895 1.90476 5.75 1.38371C5.75 1.18139 5.75 0.979053 5.75 0.776725C5.79087 0.502291 5.95494 0.362217 6.24219 0.356502C6.50225 0.39018 6.66631 0.530255 6.73438 0.776725Z" fill="#00419A"/>
<path fill-rule="evenodd" clip-rule="evenodd" d="M19.3906 0.776725C19.3906 0.979053 19.3906 1.18139 19.3906 1.38371C19.3517 1.90476 19.3282 2.43392 19.3203 2.97122C19.0391 3.2825 18.7578 3.2825 18.4766 2.97122C18.4686 2.43392 18.4452 1.90476 18.4062 1.38371C18.4062 1.18139 18.4062 0.979053 18.4062 0.776725C18.4471 0.502291 18.6112 0.362217 18.8984 0.356502C19.1585 0.39018 19.3226 0.530255 19.3906 0.776725Z" fill="#00419A"/>
<path fill-rule="evenodd" clip-rule="evenodd" d="M21.2656 0.776725C21.2656 0.979053 21.2656 1.18139 21.2656 1.38371C21.2267 1.90476 21.2032 2.43392 21.1953 2.97122C20.9141 3.2825 20.6328 3.2825 20.3516 2.97122C20.3436 2.43392 20.3202 1.90476 20.2812 1.38371C20.2812 1.18139 20.2812 0.979053 20.2812 0.776725C20.3221 0.502291 20.4862 0.362217 20.7734 0.356502C21.0335 0.39018 21.1976 0.530255 21.2656 0.776725Z" fill="#00419A"/>
<path fill-rule="evenodd" clip-rule="evenodd" d="M6.73438 0.776725C6.78045 0.954077 6.79611 1.14084 6.78125 1.33702C6.82812 1.33702 6.875 1.33702 6.92188 1.33702C6.92188 1.36815 6.90627 1.38371 6.875 1.38371C6.82812 1.38371 6.78125 1.38371 6.73438 1.38371C6.73438 1.18139 6.73438 0.979053 6.73438 0.776725Z" fill="#020524"/>
<path fill-rule="evenodd" clip-rule="evenodd" d="M3.875 0.776725C3.875 0.979053 3.875 1.18139 3.875 1.38371C3.64062 1.38371 3.40625 1.38371 3.17188 1.38371C2.78125 1.38371 2.39062 1.38371 2 1.38371C2.60106 1.33723 3.21043 1.32167 3.82812 1.33702C3.81328 1.14084 3.8289 0.954077 3.875 0.776725Z" fill="#010E21"/>
<path fill-rule="evenodd" clip-rule="evenodd" d="M4.85938 0.776725C4.90547 0.954077 4.9211 1.14084 4.90625 1.33702C5.17188 1.33702 5.43748 1.33702 5.70312 1.33702C5.68827 1.14084 5.70392 0.954077 5.75 0.776725C5.75 0.979053 5.75 1.18139 5.75 1.38371C5.45314 1.38371 5.15625 1.38371 4.85938 1.38371C4.85938 1.18139 4.85938 0.979053 4.85938 0.776725Z" fill="#000127"/>
<path fill-rule="evenodd" clip-rule="evenodd" d="M18.4062 0.776725C18.4062 0.979053 18.4062 1.18139 18.4062 1.38371C17.9688 1.38371 17.5312 1.38371 17.0938 1.38371C17.0625 1.38371 17.0469 1.36815 17.0469 1.33702C17.4844 1.33702 17.9219 1.33702 18.3594 1.33702C18.3445 1.14084 18.3602 0.954077 18.4062 0.776725Z" fill="#000228"/>
<path fill-rule="evenodd" clip-rule="evenodd" d="M19.3906 0.776725C19.4367 0.954077 19.4524 1.14084 19.4375 1.33702C19.7031 1.33702 19.9687 1.33702 20.2344 1.33702C20.2195 1.14084 20.2352 0.954077 20.2812 0.776725C20.2812 0.979053 20.2812 1.18139 20.2812 1.38371C19.9844 1.38371 19.6875 1.38371 19.3906 1.38371C19.3906 1.18139 19.3906 0.979053 19.3906 0.776725Z" fill="#000127"/>
<path fill-rule="evenodd" clip-rule="evenodd" d="M21.2656 0.776725C21.3117 0.954077 21.3274 1.14084 21.3125 1.33702C21.5405 1.3221 21.7592 1.33767 21.9688 1.38371C21.7344 1.38371 21.5 1.38371 21.2656 1.38371C21.2656 1.18139 21.2656 0.979053 21.2656 0.776725Z" fill="#010027"/>
<path fill-rule="evenodd" clip-rule="evenodd" d="M2 1.38371C2.39062 1.38371 2.78125 1.38371 3.17188 1.38371C3.04816 1.46818 2.9466 1.57713 2.86719 1.71055C2.83594 2.58213 2.83594 3.4537 2.86719 4.32527C2.91117 4.46992 2.99711 4.57885 3.125 4.65211C2.70433 4.64973 2.29808 4.64973 1.90625 4.65211C1.89063 4.65211 1.875 4.65211 1.85938 4.65211C1.7684 4.5973 1.69808 4.51946 1.64844 4.41866C1.61719 3.50039 1.61719 2.58213 1.64844 1.66386C1.71782 1.50898 1.83501 1.41559 2 1.38371Z" fill="#0252C3"/>
<path fill-rule="evenodd" clip-rule="evenodd" d="M3.17188 1.38371C3.40625 1.38371 3.64062 1.38371 3.875 1.38371C3.91393 1.90476 3.93737 2.43392 3.94531 2.97122C4.22656 3.2825 4.50781 3.2825 4.78906 2.97122C4.797 2.43392 4.82044 1.90476 4.85938 1.38371C5.15625 1.38371 5.45314 1.38371 5.75 1.38371C5.78895 1.90476 5.81239 2.43392 5.82031 2.97122C6.10156 3.2825 6.38281 3.2825 6.66406 2.97122C6.67198 2.43392 6.69542 1.90476 6.73438 1.38371C6.78125 1.38371 6.82812 1.38371 6.875 1.38371C10.2813 1.44597 13.6875 1.44597 17.0938 1.38371C17.5312 1.38371 17.9688 1.38371 18.4062 1.38371C18.4452 1.90476 18.4686 2.43392 18.4766 2.97122C18.7578 3.2825 19.0391 3.2825 19.3203 2.97122C19.3282 2.43392 19.3517 1.90476 19.3906 1.38371C19.6875 1.38371 19.9844 1.38371 20.2812 1.38371C20.3202 1.90476 20.3436 2.43392 20.3516 2.97122C20.6328 3.2825 20.9141 3.2825 21.1953 2.97122C21.2032 2.43392 21.2267 1.90476 21.2656 1.38371C21.5 1.38371 21.7344 1.38371 21.9688 1.38371C22.1252 1.42681 22.2424 1.5202 22.3203 1.66386C22.3516 2.58213 22.3516 3.50039 22.3203 4.41866C22.2509 4.57353 22.1337 4.66691 21.9688 4.6988C21.9219 4.6988 21.875 4.6988 21.8281 4.6988C15.6016 4.65211 9.36725 4.63656 3.125 4.65211C2.99711 4.57885 2.91117 4.46992 2.86719 4.32527C2.83594 3.4537 2.83594 2.58213 2.86719 1.71055C2.9466 1.57713 3.04816 1.46818 3.17188 1.38371Z" fill="#0065EB"/>
<path fill-rule="evenodd" clip-rule="evenodd" d="M21.8281 4.6988C21.8281 5.04119 21.8281 5.38363 21.8281 5.72602C21.8281 7.90496 21.8281 10.0839 21.8281 12.2628C21.0762 11.8108 20.2637 11.5151 19.3906 11.3757C18.2531 11.2333 17.1594 11.3889 16.1094 11.8426C15.5757 11.828 15.0445 11.8436 14.5156 11.8893C14.4832 11.9138 14.4597 11.9449 14.4453 11.9827C14.4219 12.3247 14.4141 12.6671 14.4219 13.0099C14.2365 13.2493 14.0412 13.4827 13.8359 13.7102C13.6613 13.9695 13.4973 14.234 13.3438 14.504C12.7498 14.4962 12.156 14.504 11.5625 14.5273C11.5235 14.5662 11.4844 14.6052 11.4453 14.6441C11.414 15.1577 11.414 15.6713 11.4453 16.1849C11.4844 16.2238 11.5235 16.2627 11.5625 16.3016C11.9528 16.325 12.3434 16.3327 12.7344 16.325C12.7032 16.6977 12.6875 17.0712 12.6875 17.4456C9.81252 17.4456 6.93748 17.4456 4.0625 17.4456C3.93653 17.4532 3.81153 17.4454 3.6875 17.4222C3.63281 17.3989 3.59375 17.36 3.57031 17.3055C3.54688 16.8233 3.53907 16.3408 3.54688 15.8581C3.54688 12.1383 3.54688 8.41857 3.54688 4.6988C9.64062 4.6988 15.7344 4.6988 21.8281 4.6988Z" fill="#FEFEFE"/>
<path fill-rule="evenodd" clip-rule="evenodd" d="M21.8281 4.6988C21.875 4.6988 21.9219 4.6988 21.9688 4.6988C21.8792 5.02826 21.848 5.37065 21.875 5.72602C21.8594 5.72602 21.8437 5.72602 21.8281 5.72602C21.8281 5.38363 21.8281 5.04119 21.8281 4.6988Z" fill="#2C2E2F"/>
<path fill-rule="evenodd" clip-rule="evenodd" d="M3.125 4.65211C9.36725 4.63656 15.6016 4.65211 21.8281 4.6988C15.7344 4.6988 9.64062 4.6988 3.54688 4.6988C3.54688 8.41857 3.54688 12.1383 3.54688 15.8581C3.03102 15.8659 2.51539 15.8581 2 15.8347C1.97067 15.7997 1.94723 15.7607 1.92969 15.718C1.90625 12.0294 1.89844 8.34078 1.90625 4.65211C2.29808 4.64973 2.70433 4.64973 3.125 4.65211Z" fill="#D4E4EC"/>
<path fill-rule="evenodd" clip-rule="evenodd" d="M21.8281 5.72602C21.8437 5.72602 21.8594 5.72602 21.875 5.72602C23.3315 8.18689 23.8316 10.8327 23.375 13.6636C23.1365 13.4648 22.9178 13.2391 22.7188 12.9865C22.4186 12.7444 22.1217 12.5032 21.8281 12.2628C21.8281 10.0839 21.8281 7.90496 21.8281 5.72602Z" fill="#48B0F4"/>
<path fill-rule="evenodd" clip-rule="evenodd" d="M1.85938 4.65211C1.875 4.65211 1.89063 4.65211 1.90625 4.65211C1.89844 8.34078 1.90625 12.0294 1.92969 15.718C1.94723 15.7607 1.97067 15.7997 2 15.8347C2.51539 15.8581 3.03102 15.8659 3.54688 15.8581C3.53907 16.3408 3.54688 16.8233 3.57031 17.3055C3.59375 17.36 3.63281 17.3989 3.6875 17.4222C3.81153 17.4454 3.93653 17.4532 4.0625 17.4456C6.16822 20.2682 8.99637 21.5834 12.5469 21.391C13.101 21.3444 13.6479 21.2588 14.1875 21.1342C14.397 21.3817 14.6314 21.6074 14.8906 21.8112C15.2218 22.0379 15.55 22.2636 15.875 22.4882C11.3263 23.9116 7.3107 23.0167 3.82812 19.8035C1.97418 17.9232 0.8648 15.6743 0.5 13.0566C0.5 12.1072 0.5 11.1578 0.5 10.2084C0.695495 8.79154 1.14081 7.45304 1.83594 6.19293C1.85937 5.67956 1.86718 5.16595 1.85938 4.65211Z" fill="#48B2F6"/>
<path fill-rule="evenodd" clip-rule="evenodd" d="M14.5156 6.51977C15.1898 6.50501 15.8616 6.52056 16.5312 6.56646C16.5637 6.59097 16.5871 6.62212 16.6016 6.65984C16.6094 6.9011 16.6172 7.14231 16.625 7.38356C16.6308 7.66086 16.6073 7.93321 16.5547 8.20066C16.5195 8.22989 16.4804 8.25323 16.4375 8.2707C15.8125 8.30184 15.1875 8.30184 14.5625 8.2707C14.5235 8.2318 14.4844 8.19286 14.4453 8.15397C14.414 7.64036 14.414 7.12676 14.4453 6.61315C14.4789 6.58775 14.5024 6.55661 14.5156 6.51977Z" fill="#D9E7EC"/>
<path fill-rule="evenodd" clip-rule="evenodd" d="M17.5156 6.51977C18.1877 6.51197 18.8596 6.51977 19.5312 6.54312C19.5606 6.57813 19.584 6.61707 19.6016 6.65984C19.6094 6.9011 19.6172 7.14231 19.625 7.38356C19.6308 7.66086 19.6073 7.93321 19.5547 8.20066C19.5195 8.22989 19.4804 8.25324 19.4375 8.2707C18.8125 8.30184 18.1875 8.30184 17.5625 8.2707C17.5235 8.2318 17.4844 8.19286 17.4453 8.15397C17.414 7.64036 17.414 7.12676 17.4453 6.61315C17.4789 6.58775 17.5024 6.55661 17.5156 6.51977Z" fill="#D9E7EC"/>
<path fill-rule="evenodd" clip-rule="evenodd" d="M5.5625 6.47308C6.20773 6.45141 6.84838 6.47476 7.48438 6.54312C7.50781 6.56646 7.53125 6.58981 7.55469 6.61315C7.58595 7.12676 7.58595 7.64036 7.55469 8.15397C7.51564 8.19286 7.47655 8.2318 7.4375 8.2707C6.77684 8.31571 6.12059 8.30016 5.46875 8.22401C5.43941 8.18899 5.41597 8.15005 5.39844 8.10728C5.36717 7.60922 5.36717 7.11121 5.39844 6.61315C5.45211 6.56011 5.50681 6.51342 5.5625 6.47308Z" fill="#17C641"/>
<path fill-rule="evenodd" clip-rule="evenodd" d="M8.46875 6.51977C9.1408 6.51197 9.8127 6.51977 10.4844 6.54312C10.5078 6.56646 10.5312 6.58981 10.5547 6.61315C10.586 7.12676 10.586 7.64036 10.5547 8.15397C10.5156 8.19286 10.4765 8.2318 10.4375 8.2707C9.77684 8.31571 9.12059 8.30016 8.46875 8.22401C8.43941 8.18899 8.41597 8.15005 8.39844 8.10728C8.36717 7.62482 8.36717 7.14231 8.39844 6.65984C8.42248 6.61189 8.44592 6.5652 8.46875 6.51977Z" fill="#77D57B"/>
<path fill-rule="evenodd" clip-rule="evenodd" d="M11.5156 6.51977C12.1721 6.51197 12.8283 6.51977 13.4844 6.54312C13.5078 6.56646 13.5312 6.58981 13.5547 6.61315C13.586 7.12676 13.586 7.64036 13.5547 8.15397C13.5156 8.19286 13.4765 8.2318 13.4375 8.2707C12.8125 8.30184 12.1875 8.30184 11.5625 8.2707C11.5235 8.2318 11.4844 8.19286 11.4453 8.15397C11.414 7.64036 11.414 7.12676 11.4453 6.61315C11.4789 6.58775 11.5024 6.55661 11.5156 6.51977Z" fill="#75D57A"/>
<path fill-rule="evenodd" clip-rule="evenodd" d="M5.51562 9.18118C6.19208 9.15942 6.86394 9.18277 7.53125 9.25122C7.5853 9.76903 7.59312 10.2904 7.55469 10.8154C7.51564 10.8543 7.47655 10.8932 7.4375 10.9321C6.79686 10.9633 6.15627 10.9633 5.51562 10.9321C5.47658 10.8932 5.43748 10.8543 5.39844 10.8154C5.36717 10.3173 5.36717 9.81931 5.39844 9.32126C5.44742 9.28049 5.48647 9.2338 5.51562 9.18118Z" fill="#C5D3DD"/>
<path fill-rule="evenodd" clip-rule="evenodd" d="M17.5156 9.18118C18.1721 9.17338 18.8283 9.18118 19.4844 9.20453C19.5234 9.24342 19.5625 9.28236 19.6016 9.32126C19.6328 9.81931 19.6328 10.3173 19.6016 10.8154C19.5625 10.8543 19.5234 10.8932 19.4844 10.9321C18.8437 10.9633 18.2031 10.9633 17.5625 10.9321C17.5235 10.8932 17.4844 10.8543 17.4453 10.8154C17.414 10.3018 17.414 9.78817 17.4453 9.27456C17.4789 9.24916 17.5024 9.21802 17.5156 9.18118Z" fill="#D9E7EC"/>
<path fill-rule="evenodd" clip-rule="evenodd" d="M8.51562 9.18118C9.17206 9.17338 9.82831 9.18118 10.4844 9.20453C10.5078 9.22787 10.5312 9.25122 10.5547 9.27456C10.5927 9.80591 10.5849 10.3351 10.5312 10.8621C10.5066 10.8944 10.4754 10.9177 10.4375 10.9321C9.79686 10.9633 9.15627 10.9633 8.51562 10.9321C8.45933 10.8899 8.42023 10.8355 8.39844 10.7687C8.36717 10.2862 8.36717 9.80372 8.39844 9.32126C8.44742 9.28049 8.48647 9.2338 8.51562 9.18118Z" fill="#75D57A"/>
<path fill-rule="evenodd" clip-rule="evenodd" d="M11.5156 9.18118C12.1721 9.17338 12.8283 9.18118 13.4844 9.20453C13.5078 9.22787 13.5312 9.25122 13.5547 9.27456C13.586 9.80372 13.586 10.3329 13.5547 10.8621C13.5195 10.8913 13.4804 10.9146 13.4375 10.9321C12.7969 10.9633 12.1563 10.9633 11.5156 10.9321C11.4922 10.9088 11.4688 10.8854 11.4453 10.8621C11.414 10.3329 11.414 9.80372 11.4453 9.27456C11.4789 9.24916 11.5024 9.21802 11.5156 9.18118Z" fill="#74D579"/>
<path fill-rule="evenodd" clip-rule="evenodd" d="M14.5156 9.18118C15.1721 9.17338 15.8283 9.18118 16.4844 9.20453C16.5234 9.24342 16.5625 9.28236 16.6016 9.32126C16.6463 9.83944 16.6306 10.353 16.5547 10.8621C16.5195 10.8913 16.4804 10.9146 16.4375 10.9321C15.7948 10.9702 15.1541 10.9624 14.5156 10.9088C14.4832 10.8843 14.4597 10.8531 14.4453 10.8154C14.414 10.3018 14.414 9.78817 14.4453 9.27456C14.4789 9.24916 14.5024 9.21802 14.5156 9.18118Z" fill="#75D57A"/>
<path fill-rule="evenodd" clip-rule="evenodd" d="M19.3906 11.3757C18.1198 11.6545 17.0182 12.246 16.0859 13.15C16.0642 13.1777 16.0564 13.2088 16.0625 13.2433C14.24 14.5871 13.5916 16.3614 14.1172 18.5662C14.4722 19.6489 15.1207 20.5049 16.0625 21.1342C16.1132 21.2399 16.1757 21.3411 16.25 21.4377C17.1478 22.2862 18.2102 22.8154 19.4375 23.0252C19.3946 23.0382 19.3633 23.0615 19.3438 23.0952C18.1204 23.2655 16.9641 23.0631 15.875 22.4882C15.55 22.2636 15.2218 22.0379 14.8906 21.8112C14.6314 21.6074 14.397 21.3817 14.1875 21.1342C13.2672 20.0819 12.7672 18.8524 12.6875 17.4456C12.6875 17.0712 12.7032 16.6977 12.7344 16.325C12.8534 15.6892 13.0565 15.0822 13.3438 14.504C13.4973 14.234 13.6613 13.9695 13.8359 13.7102C14.0412 13.4827 14.2365 13.2493 14.4219 13.0099C14.6457 12.8419 14.8644 12.6629 15.0781 12.4729C15.417 12.2499 15.7608 12.0398 16.1094 11.8426C17.1594 11.3889 18.2531 11.2333 19.3906 11.3757Z" fill="#FCB40D"/>
<path fill-rule="evenodd" clip-rule="evenodd" d="M19.3906 11.3757C20.2637 11.5151 21.0762 11.8108 21.8281 12.2628C22.1217 12.5032 22.4186 12.7444 22.7188 12.9865C22.9178 13.2391 23.1365 13.4648 23.375 13.6636C23.9291 14.4249 24.3041 15.2654 24.5 16.1849C24.5 16.8697 24.5 17.5545 24.5 18.2393C24.0159 20.3484 22.7815 21.8503 20.7969 22.745C20.3277 22.928 19.8434 23.0448 19.3438 23.0952C19.3633 23.0615 19.3946 23.0382 19.4375 23.0252C18.2102 22.8154 17.1478 22.2862 16.25 21.4377C16.1757 21.3411 16.1132 21.2399 16.0625 21.1342C17.6991 22.1037 19.3554 22.127 21.0312 21.2042C22.8927 19.9232 23.588 18.1723 23.1172 15.9514C22.367 13.7914 20.8436 12.6553 18.5469 12.543C18.1317 12.5315 17.7254 12.586 17.3281 12.7064C16.8901 12.8542 16.4682 13.0332 16.0625 13.2433C16.0564 13.2088 16.0642 13.1777 16.0859 13.15C17.0182 12.246 18.1198 11.6545 19.3906 11.3757Z" fill="#FCBF43"/>
<path fill-rule="evenodd" clip-rule="evenodd" d="M5.51562 11.8426C6.15645 11.8348 6.79705 11.8426 7.4375 11.8659C7.47655 11.9048 7.51564 11.9438 7.55469 11.9827C7.5927 12.4985 7.58488 13.0121 7.53125 13.5235C7.50664 13.5558 7.47538 13.5791 7.4375 13.5935C6.79686 13.6247 6.15627 13.6247 5.51562 13.5935C5.47658 13.5546 5.43748 13.5157 5.39844 13.4768C5.36717 12.9787 5.36717 12.4807 5.39844 11.9827C5.44742 11.9419 5.48647 11.8952 5.51562 11.8426Z" fill="#C5D3DD"/>
<path fill-rule="evenodd" clip-rule="evenodd" d="M8.51562 11.8426C9.17417 11.8278 9.83042 11.8434 10.4844 11.8893C10.5168 11.9138 10.5403 11.9449 10.5547 11.9827C10.586 12.4963 10.586 13.0099 10.5547 13.5235C10.5312 13.5468 10.5078 13.5702 10.4844 13.5935C9.82812 13.6247 9.17188 13.6247 8.51562 13.5935C8.47658 13.5546 8.43748 13.5157 8.39844 13.4768C8.36717 12.9787 8.36717 12.4807 8.39844 11.9827C8.44742 11.9419 8.48647 11.8952 8.51562 11.8426Z" fill="#D9E7EC"/>
<path fill-rule="evenodd" clip-rule="evenodd" d="M11.5156 11.8426C12.1921 11.8208 12.8639 11.8442 13.5312 11.9126C13.5853 12.446 13.5931 12.983 13.5547 13.5235C13.5312 13.5468 13.5078 13.5702 13.4844 13.5935C12.8281 13.6247 12.1719 13.6247 11.5156 13.5935C11.4922 13.5702 11.4688 13.5468 11.4453 13.5235C11.414 12.9943 11.414 12.4651 11.4453 11.936C11.4789 11.9106 11.5024 11.8794 11.5156 11.8426Z" fill="#D9E7EC"/>
<path fill-rule="evenodd" clip-rule="evenodd" d="M16.1094 11.8426C15.7608 12.0398 15.417 12.2499 15.0781 12.4729C14.8644 12.6629 14.6457 12.8419 14.4219 13.0099C14.4141 12.6671 14.4219 12.3247 14.4453 11.9827C14.4597 11.9449 14.4832 11.9138 14.5156 11.8893C15.0445 11.8436 15.5757 11.828 16.1094 11.8426Z" fill="#DAE6E9"/>
<path fill-rule="evenodd" clip-rule="evenodd" d="M16.0625 21.1342C15.1207 20.5049 14.4722 19.6489 14.1172 18.5662C13.5916 16.3614 14.24 14.5871 16.0625 13.2433C16.4682 13.0332 16.8901 12.8542 17.3281 12.7064C17.7254 12.586 18.1317 12.5315 18.5469 12.543C20.8436 12.6553 22.367 13.7914 23.1172 15.9514C23.588 18.1723 22.8927 19.9232 21.0312 21.2042C19.3554 22.127 17.6991 22.1037 16.0625 21.1342Z" fill="#FFD98E"/>
<path fill-rule="evenodd" clip-rule="evenodd" d="M18.0312 13.2433C19.7616 13.1208 21.0976 13.7744 22.0391 15.2044C22.831 16.7392 22.7373 18.2177 21.7578 19.6401C20.5995 20.9736 19.1542 21.4327 17.4219 21.0175C15.4342 20.2418 14.5045 18.7866 14.6328 16.6518C15.0238 14.776 16.1566 13.6399 18.0312 13.2433Z" fill="#FEFEFE"/>
<path fill-rule="evenodd" clip-rule="evenodd" d="M18.9219 14.3172C18.6994 14.0732 18.4806 14.0732 18.2656 14.3172C18.1854 14.0092 18.2947 13.8224 18.5938 13.7569C18.8928 13.8224 19.0021 14.0092 18.9219 14.3172Z" fill="#C2D1DE"/>
<path fill-rule="evenodd" clip-rule="evenodd" d="M18.9219 14.3172C18.9219 14.3328 18.9219 14.3484 18.9219 14.3639C18.9297 15.2045 18.9219 16.045 18.8984 16.8853C18.6953 17.0098 18.4922 17.1343 18.2891 17.2588C18.2656 16.294 18.2578 15.329 18.2656 14.3639C18.2656 14.3484 18.2656 14.3328 18.2656 14.3172C18.4806 14.0732 18.6994 14.0732 18.9219 14.3172Z" fill="#0266EC"/>
<path fill-rule="evenodd" clip-rule="evenodd" d="M5.5625 14.504C6.18767 14.4962 6.8127 14.504 7.4375 14.5273C7.47655 14.5662 7.51564 14.6052 7.55469 14.6441C7.59945 15.1778 7.58384 15.707 7.50781 16.2316C7.47266 16.2608 7.43356 16.2842 7.39062 16.3016C7.08594 16.3094 6.78125 16.3172 6.47656 16.325C6.13592 16.3311 5.79997 16.3078 5.46875 16.2549C5.43941 16.2199 5.41597 16.181 5.39844 16.1382C5.36717 15.6401 5.36717 15.1421 5.39844 14.6441C5.45211 14.591 5.50681 14.5443 5.5625 14.504Z" fill="#C6D4DD"/>
<path fill-rule="evenodd" clip-rule="evenodd" d="M8.5625 14.504C9.18767 14.4962 9.8127 14.504 10.4375 14.5273C10.4765 14.5662 10.5156 14.6052 10.5547 14.6441C10.586 15.1577 10.586 15.6713 10.5547 16.1849C10.5156 16.2238 10.4765 16.2627 10.4375 16.3016C9.77684 16.3466 9.12059 16.3311 8.46875 16.2549C8.43941 16.2199 8.41597 16.181 8.39844 16.1382C8.36717 15.6557 8.36717 15.1732 8.39844 14.6908C8.43078 14.6044 8.48544 14.5421 8.5625 14.504Z" fill="#DAE7EC"/>
<path fill-rule="evenodd" clip-rule="evenodd" d="M13.3438 14.504C13.0565 15.0822 12.8534 15.6892 12.7344 16.325C12.3434 16.3327 11.9528 16.325 11.5625 16.3016C11.5235 16.2627 11.4844 16.2238 11.4453 16.1849C11.414 15.6713 11.414 15.1577 11.4453 14.6441C11.4844 14.6052 11.5235 14.5662 11.5625 14.5273C12.156 14.504 12.7498 14.4962 13.3438 14.504Z" fill="#D9E7EB"/>
<path fill-rule="evenodd" clip-rule="evenodd" d="M16.25 14.6441C16.6059 14.6405 16.8246 14.8117 16.9062 15.1577C16.856 15.4477 16.6841 15.5489 16.3906 15.4612C16.0179 15.2351 15.971 14.9628 16.25 14.6441Z" fill="#C6D4DE"/>
<path fill-rule="evenodd" clip-rule="evenodd" d="M20.6562 14.6908C21.0807 14.6694 21.2292 14.8562 21.1016 15.2511C20.9957 15.4044 20.855 15.4978 20.6797 15.5312C20.372 15.4952 20.2626 15.324 20.3516 15.0176C20.4627 14.9147 20.5643 14.8058 20.6562 14.6908Z" fill="#C6D3DD"/>
<path fill-rule="evenodd" clip-rule="evenodd" d="M18.2656 14.3639C18.2578 15.329 18.2656 16.294 18.2891 17.2588C18.4922 17.1343 18.6953 17.0098 18.8984 16.8853C18.9219 16.045 18.9297 15.2045 18.9219 14.3639C18.9531 15.1813 18.9844 16.0061 19.0156 16.8386C19.5529 16.5444 20.0842 16.2409 20.6094 15.9281C21.0601 15.9262 21.1851 16.1286 20.9844 16.5351C20.3341 16.9102 19.6779 17.2759 19.0156 17.6323C18.9844 17.9353 18.9531 18.231 18.9219 18.5195C18.9297 18.2389 18.9218 17.9587 18.8984 17.679C18.6953 17.8035 18.4922 17.928 18.2891 18.0526C18.2657 18.2074 18.2579 18.363 18.2656 18.5195C18.2344 18.386 18.2031 18.2459 18.1719 18.0992C17.8431 18.3385 17.6244 18.2685 17.5156 17.8891C17.5128 17.7836 17.544 17.6902 17.6094 17.609C17.8028 17.5172 17.9903 17.4161 18.1719 17.3055C18.2031 16.3174 18.2344 15.3368 18.2656 14.3639Z" fill="#2B99FC"/>
<path fill-rule="evenodd" clip-rule="evenodd" d="M15.2656 16.8853C15.472 16.8726 15.6751 16.8881 15.875 16.932C16.0724 17.1446 16.0568 17.3392 15.8281 17.5156C15.6223 17.5516 15.4192 17.5439 15.2188 17.4923C15.0238 17.2723 15.0395 17.07 15.2656 16.8853Z" fill="#C6D3DD"/>
<path fill-rule="evenodd" clip-rule="evenodd" d="M21.3594 16.8853C21.5657 16.8726 21.7688 16.8881 21.9688 16.932C22.1662 17.1446 22.1506 17.3392 21.9219 17.5156C21.7161 17.5516 21.513 17.5439 21.3125 17.4923C21.1176 17.2723 21.1333 17.07 21.3594 16.8853Z" fill="#C6D3DD"/>
<path fill-rule="evenodd" clip-rule="evenodd" d="M4.0625 17.4456C6.93748 17.4456 9.81252 17.4456 12.6875 17.4456C12.7672 18.8524 13.2672 20.0819 14.1875 21.1342C13.6479 21.2588 13.101 21.3444 12.5469 21.391C8.99637 21.5834 6.16822 20.2682 4.0625 17.4456Z" fill="#65BDFB"/>
<path fill-rule="evenodd" clip-rule="evenodd" d="M18.9219 18.5195C18.842 18.7383 18.6858 18.8239 18.4531 18.7763C18.3611 18.7085 18.2986 18.6229 18.2656 18.5195C18.2579 18.363 18.2657 18.2074 18.2891 18.0526C18.4922 17.928 18.6953 17.8035 18.8984 17.679C18.9218 17.9587 18.9297 18.2389 18.9219 18.5195Z" fill="#0466ED"/>
<path fill-rule="evenodd" clip-rule="evenodd" d="M16.3438 18.9864C16.796 18.9388 16.9445 19.1255 16.7891 19.5467C16.5644 19.8696 16.3145 19.9007 16.0391 19.6401C16.0078 19.5311 16.0078 19.4222 16.0391 19.3132C16.1502 19.2104 16.2518 19.1014 16.3438 18.9864Z" fill="#C6D3DD"/>
<path fill-rule="evenodd" clip-rule="evenodd" d="M20.5625 18.9397C20.9935 18.9564 21.2044 19.1743 21.1953 19.5934C20.9368 19.8483 20.6869 19.8328 20.4453 19.5467C20.3266 19.3063 20.3656 19.1039 20.5625 18.9397Z" fill="#C6D4DE"/>
<path fill-rule="evenodd" clip-rule="evenodd" d="M18.4531 19.8268C18.6471 19.7897 18.7955 19.8519 18.8984 20.0136C18.9297 20.2004 18.9297 20.3871 18.8984 20.5739C18.6953 20.8229 18.4922 20.8229 18.2891 20.5739C18.2578 20.3871 18.2578 20.2004 18.2891 20.0136C18.3407 19.9459 18.3954 19.8837 18.4531 19.8268Z" fill="#C6D3DD"/>
</svg>
